Labtop Thin.ufo
<glyph name="exclam" format="1">
  <advance width="142"/>
  <unicode hex="0021"/>
  <outline>
    <contour>
      <point x="60" y="126" type="line"/>
      <point x="60" y="799" type="line"/>
      <point x="84" y="799" type="line"/>
      <point x="84" y="126" type="line"/>
    </contour>
    <contour>
      <point x="61" y="4" type="line"/>
      <point x="61" y="31" type="line"/>
      <point x="82" y="31" type="line"/>
      <point x="82" y="4" type="line"/>
    </contour>
  </outline>
</glyph>
<glyph name="quotedbl" format="1">
  <advance width="245"/>
  <unicode hex="0022"/>
  <outline>
    <contour>
      <point x="159" y="596" type="line"/>
      <point x="159" y="779" type="line"/>
      <point x="187" y="779" type="line"/>
      <point x="187" y="596" type="line"/>
    </contour>
    <contour>
      <point x="61" y="596" type="line"/>
      <point x="61" y="779" type="line"/>
      <point x="89" y="779" type="line"/>
      <point x="89" y="596" type="line"/>
    </contour>
  </outline>
</glyph>
<glyph name="numbersign" format="1">
  <advance width="399"/>
  <unicode hex="0023"/>
  <outline>
    <contour>
      <point x="375" y="409" type="line"/>
      <point x="274" y="409" type="line"/>
      <point x="265" y="295" type="line"/>
      <point x="365" y="295" type="line"/>
      <point x="362" y="272" type="line"/>
      <point x="261" y="271" type="line"/>
      <point x="250" y="144" type="line"/>
      <point x="226" y="144" type="line"/>
      <point x="237" y="271" type="line"/>
      <point x="151" y="271" type="line"/>
      <point x="140" y="142" type="line"/>
      <point x="117" y="142" type="line"/>
      <point x="129" y="271" type="line"/>
      <point x="28" y="270" type="line"/>
      <point x="30" y="294" type="line"/>
      <point x="131" y="294" type="line"/>
      <point x="142" y="407" type="line"/>
      <point x="41" y="406" type="line"/>
      <point x="43" y="430" type="line"/>
      <point x="144" y="430" type="line"/>
      <point x="156" y="559" type="line"/>
      <point x="179" y="559" type="line"/>
      <point x="167" y="430" type="line"/>
      <point x="254" y="431" type="line"/>
      <point x="265" y="560" type="line"/>
      <point x="289" y="560" type="line"/>
      <point x="277" y="431" type="line"/>
      <point x="377" y="432" type="line"/>
    </contour>
    <contour>
      <point x="165" y="407" type="line"/>
      <point x="154" y="294" type="line"/>
      <point x="241" y="295" type="line"/>
      <point x="250" y="407" type="line"/>
    </contour>
  </outline>
</glyph>
<glyph name="dollar" format="1">
  <advance width="285"/>
  <unicode hex="0024"/>
  <outline>
    <contour>
      <point x="155" y="-3" type="qcurve"/>
      <point x="155" y="-45" type="line"/>
      <point x="135" y="-45" type="line"/>
      <point x="135" y="-3" type="line"/>
      <point x="44" y="4"/>
      <point x="44" y="114" type="qcurve" smooth="yes"/>
      <point x="44" y="166" type="line"/>
      <point x="69" y="166" type="line"/>
      <point x="69" y="112" type="line" smooth="yes"/>
      <point x="69" y="22"/>
      <point x="135" y="14" type="qcurve"/>
      <point x="135" y="452" type="line"/>
      <point x="44" y="458"/>
      <point x="44" y="569" type="qcurve" smooth="yes"/>
      <point x="44" y="690" type="line" smooth="yes"/>
      <point x="44" y="800"/>
      <point x="135" y="806" type="qcurve"/>
      <point x="135" y="851" type="line"/>
      <point x="155" y="851" type="line"/>
      <point x="155" y="806" type="line"/>
      <point x="241" y="798"/>
      <point x="241" y="690" type="qcurve" smooth="yes"/>
      <point x="241" y="632" type="line"/>
      <point x="219" y="632" type="line"/>
      <point x="219" y="692" type="line" smooth="yes"/>
      <point x="219" y="781"/>
      <point x="155" y="791" type="qcurve"/>
      <point x="155" y="466" type="line"/>
      <point x="230" y="460"/>
      <point x="241" y="377" type="qcurve"/>
      <point x="241" y="114" type="line" smooth="yes"/>
      <point x="241" y="5"/>
    </contour>
    <contour>
      <point x="135" y="791" type="line"/>
      <point x="69" y="784"/>
      <point x="69" y="692" type="qcurve" smooth="yes"/>
      <point x="69" y="566" type="line" smooth="yes"/>
      <point x="69" y="475"/>
      <point x="135" y="466" type="qcurve"/>
    </contour>
    <contour>
      <point x="219" y="371" type="line" smooth="yes"/>
      <point x="219" y="441"/>
      <point x="155" y="451" type="qcurve"/>
      <point x="155" y="14" type="line"/>
      <point x="219" y="23"/>
      <point x="219" y="112" type="qcurve" smooth="yes"/>
    </contour>
  </outline>
</glyph>
<glyph name="percent" format="1">
  <advance width="577"/>
  <unicode hex="0025"/>
  <outline>
    <contour>
      <point x="130" y="407" type="qcurve" smooth="yes"/>
      <point x="32" y="407"/>
      <point x="32" y="525" type="qcurve" smooth="yes"/>
      <point x="32" y="685" type="line" smooth="yes"/>
      <point x="32" y="801"/>
      <point x="130" y="801" type="qcurve" smooth="yes"/>
      <point x="230" y="801"/>
      <point x="230" y="685" type="qcurve" smooth="yes"/>
      <point x="230" y="525" type="line" smooth="yes"/>
      <point x="230" y="407"/>
    </contour>
    <contour>
      <point x="121" y="-3" type="line"/>
      <point x="99" y="-3" type="line"/>
      <point x="435" y="806" type="line"/>
      <point x="457" y="806" type="line"/>
    </contour>
    <contour>
      <point x="425" y="0" type="qcurve" smooth="yes"/>
      <point x="400" y="0"/>
      <point x="393" y="6" type="qcurve" smooth="yes"/>
      <point x="386" y="11"/>
      <point x="371" y="25" type="qcurve"/>
      <point x="349" y="50"/>
      <point x="349" y="116" type="qcurve" smooth="yes"/>
      <point x="349" y="276" type="line" smooth="yes"/>
      <point x="349" y="394"/>
      <point x="446" y="394" type="qcurve" smooth="yes"/>
      <point x="545" y="394"/>
      <point x="545" y="276" type="qcurve" smooth="yes"/>
      <point x="545" y="116" type="line" smooth="yes"/>
      <point x="545" y="51"/>
      <point x="519" y="25" type="qcurve" smooth="yes"/>
      <point x="494" y="0"/>
    </contour>
    <contour>
      <point x="205" y="687" type="line" smooth="yes"/>
      <point x="205" y="785"/>
      <point x="130" y="785" type="qcurve" smooth="yes"/>
      <point x="56" y="785"/>
      <point x="56" y="687" type="qcurve" smooth="yes"/>
      <point x="56" y="522" type="line" smooth="yes"/>
      <point x="56" y="476"/>
      <point x="68" y="454" type="qcurve" smooth="yes"/>
      <point x="83" y="424"/>
      <point x="130" y="424" type="qcurve" smooth="yes"/>
      <point x="205" y="424"/>
      <point x="205" y="522" type="qcurve" smooth="yes"/>
    </contour>
    <contour>
      <point x="521" y="279" type="line" smooth="yes"/>
      <point x="521" y="376"/>
      <point x="371" y="376"/>
      <point x="371" y="279" type="qcurve" smooth="yes"/>
      <point x="371" y="114" type="line" smooth="yes"/>
      <point x="371" y="70"/>
      <point x="383" y="45" type="qcurve"/>
      <point x="402" y="15"/>
      <point x="446" y="15" type="qcurve" smooth="yes"/>
      <point x="521" y="15"/>
      <point x="521" y="114" type="qcurve" smooth="yes"/>
    </contour>
  </outline>
</glyph>
<glyph name="ampersand" format="1">
  <advance width="285"/>
  <unicode hex="0026"/>
  <outline>
    <contour>
      <point x="227" y="22" type="qcurve"/>
      <point x="196" y="-3"/>
      <point x="131" y="-3" type="qcurve" smooth="yes"/>
      <point x="34" y="-3"/>
      <point x="34" y="114" type="qcurve" smooth="yes"/>
      <point x="34" y="359" type="line" smooth="yes"/>
      <point x="34" y="404"/>
      <point x="42" y="423" type="qcurve" smooth="yes"/>
      <point x="51" y="445"/>
      <point x="97" y="467" type="qcurve"/>
      <point x="44" y="491"/>
      <point x="44" y="576" type="qcurve" smooth="yes"/>
      <point x="44" y="690" type="line" smooth="yes"/>
      <point x="44" y="806"/>
      <point x="142" y="806" type="qcurve" smooth="yes"/>
      <point x="241" y="806"/>
      <point x="241" y="690" type="qcurve" smooth="yes"/>
      <point x="241" y="576" type="line" smooth="yes"/>
      <point x="241" y="534"/>
      <point x="230" y="507" type="qcurve" smooth="yes"/>
      <point x="210" y="460"/>
      <point x="142" y="460" type="qcurve" smooth="yes"/>
      <point x="99" y="460"/>
      <point x="68" y="431" type="qcurve"/>
      <point x="56" y="418"/>
      <point x="56" y="360" type="qcurve" smooth="yes"/>
      <point x="56" y="112" type="line" smooth="yes"/>
      <point x="56" y="12"/>
      <point x="131" y="12" type="qcurve" smooth="yes"/>
      <point x="179" y="12"/>
      <point x="204" y="29" type="qcurve"/>
      <point x="227" y="46"/>
      <point x="227" y="95" type="qcurve" smooth="yes"/>
      <point x="227" y="230" type="line" smooth="yes"/>
      <point x="227" y="324"/>
      <point x="157" y="327" type="qcurve"/>
      <point x="157" y="344" type="line"/>
      <point x="245" y="341"/>
      <point x="251" y="239" type="qcurve"/>
      <point x="252" y="239" type="line"/>
      <point x="252" y="11" type="line" smooth="yes"/>
      <point x="252" y="-85"/>
      <point x="322" y="-88" type="qcurve"/>
      <point x="322" y="-104" type="line"/>
      <point x="230" y="-101"/>
    </contour>
    <contour>
      <point x="217" y="692" type="line" smooth="yes"/>
      <point x="217" y="790"/>
      <point x="67" y="790"/>
      <point x="67" y="692" type="qcurve" smooth="yes"/>
      <point x="67" y="574" type="line" smooth="yes"/>
      <point x="67" y="475"/>
      <point x="217" y="475"/>
      <point x="217" y="574" type="qcurve" smooth="yes"/>
    </contour>
  </outline>
</glyph>
<glyph name="quotesingle" format="1">
  <advance width="150"/>
  <unicode hex="0027"/>
  <outline>
    <contour>
      <point x="61" y="596" type="line"/>
      <point x="61" y="779" type="line"/>
      <point x="89" y="779" type="line"/>
      <point x="89" y="596" type="line"/>
    </contour>
  </outline>
</glyph>
<glyph name="parenleft" format="1">
  <advance width="150"/>
  <unicode hex="0028"/>
  <outline>
    <contour>
      <point x="44" y="-110" type="qcurve" smooth="yes"/>
      <point x="44" y="745" type="line" smooth="yes"/>
      <point x="44" y="802"/>
      <point x="64" y="830" type="qcurve"/>
      <point x="85" y="857"/>
      <point x="137" y="861" type="qcurve"/>
      <point x="137" y="844" type="line"/>
      <point x="97" y="840"/>
      <point x="80" y="815" type="qcurve" smooth="yes"/>
      <point x="67" y="796"/>
      <point x="67" y="746" type="qcurve" smooth="yes"/>
      <point x="67" y="-113" type="line" smooth="yes"/>
      <point x="67" y="-162"/>
      <point x="80" y="-182" type="qcurve"/>
      <point x="94" y="-206"/>
      <point x="137" y="-211" type="qcurve"/>
      <point x="137" y="-226" type="line"/>
      <point x="85" y="-225"/>
      <point x="64" y="-196" type="qcurve" smooth="yes"/>
      <point x="44" y="-167"/>
    </contour>
  </outline>
</glyph>
<glyph name="parenright" format="1">
  <advance width="150"/>
  <unicode hex="0029"/>
  <outline>
    <contour>
      <point x="44" y="-226" type="qcurve"/>
      <point x="44" y="-211" type="line"/>
      <point x="87" y="-206"/>
      <point x="101" y="-182" type="qcurve"/>
      <point x="114" y="-162"/>
      <point x="114" y="-113" type="qcurve" smooth="yes"/>
      <point x="114" y="746" type="line" smooth="yes"/>
      <point x="114" y="794"/>
      <point x="102" y="813" type="qcurve" smooth="yes"/>
      <point x="87" y="838"/>
      <point x="44" y="844" type="qcurve"/>
      <point x="44" y="861" type="line"/>
      <point x="97" y="856"/>
      <point x="116" y="830" type="qcurve" smooth="yes"/>
      <point x="137" y="803"/>
      <point x="137" y="745" type="qcurve" smooth="yes"/>
      <point x="137" y="-110" type="line" smooth="yes"/>
      <point x="137" y="-168"/>
      <point x="116" y="-196" type="qcurve" smooth="yes"/>
      <point x="96" y="-224"/>
    </contour>
  </outline>
</glyph>
<glyph name="asterisk" format="1">
  <advance width="356"/>
  <unicode hex="002A"/>
  <outline>
    <contour>
      <point x="297" y="547" type="line"/>
      <point x="191" y="609" type="line"/>
      <point x="191" y="486" type="line"/>
      <point x="164" y="486" type="line"/>
      <point x="164" y="609" type="line"/>
      <point x="58" y="547" type="line"/>
      <point x="44" y="572" type="line"/>
      <point x="149" y="632" type="line"/>
      <point x="44" y="693" type="line"/>
      <point x="58" y="718" type="line"/>
      <point x="164" y="657" type="line"/>
      <point x="164" y="779" type="line"/>
      <point x="191" y="779" type="line"/>
      <point x="191" y="657" type="line"/>
      <point x="297" y="718" type="line"/>
      <point x="310" y="693" type="line"/>
      <point x="206" y="632" type="line"/>
      <point x="310" y="572" type="line"/>
    </contour>
  </outline>
</glyph>
<glyph name="plus" format="1">
  <advance width="366"/>
  <unicode hex="002B"/>
  <outline>
    <contour>
      <point x="195" y="329" type="line"/>
      <point x="195" y="180" type="line"/>
      <point x="173" y="180" type="line"/>
      <point x="173" y="329" type="line"/>
      <point x="25" y="329" type="line"/>
      <point x="25" y="350" type="line"/>
      <point x="173" y="350" type="line"/>
      <point x="173" y="497" type="line"/>
      <point x="195" y="497" type="line"/>
      <point x="195" y="350" type="line"/>
      <point x="343" y="350" type="line"/>
      <point x="343" y="329" type="line"/>
    </contour>
  </outline>
</glyph>
<glyph name="hyphen" format="1">
  <advance width="270"/>
  <unicode hex="002D"/>
  <outline>
    <contour>
      <point x="44" y="329" type="line"/>
      <point x="44" y="350" type="line"/>
      <point x="226" y="350" type="line"/>
      <point x="226" y="329" type="line"/>
    </contour>
  </outline>
</glyph>
<glyph name="period" format="1">
  <advance width="142"/>
  <unicode hex="002E"/>
  <outline>
    <contour>
      <point x="60" y="9" type="line"/>
      <point x="60" y="36" type="line"/>
      <point x="82" y="36" type="line"/>
      <point x="82" y="9" type="line"/>
    </contour>
  </outline>
</glyph>
<glyph name="slash" format="1">
  <advance width="291"/>
  <unicode hex="002F"/>
  <outline>
    <contour>
      <point x="35" y="5" type="line"/>
      <point x="13" y="5" type="line"/>
      <point x="258" y="806" type="line"/>
      <point x="280" y="806" type="line"/>
    </contour>
  </outline>
</glyph>
<glyph name="zero" format="1">
  <advance width="285"/>
  <unicode hex="0030"/>
  <outline>
    <contour>
      <point x="142" y="-3" type="qcurve" smooth="yes"/>
      <point x="44" y="-3"/>
      <point x="44" y="114" type="qcurve" smooth="yes"/>
      <point x="44" y="690" type="line" smooth="yes"/>
      <point x="44" y="806"/>
      <point x="142" y="806" type="qcurve" smooth="yes"/>
      <point x="241" y="806"/>
      <point x="241" y="690" type="qcurve" smooth="yes"/>
      <point x="241" y="114" type="line" smooth="yes"/>
      <point x="241" y="-3"/>
    </contour>
    <contour>
      <point x="142" y="790" type="qcurve" smooth="yes"/>
      <point x="67" y="790"/>
      <point x="67" y="692" type="qcurve" smooth="yes"/>
      <point x="67" y="167" type="line"/>
      <point x="216" y="722" type="line"/>
      <point x="205" y="790"/>
    </contour>
    <contour>
      <point x="217" y="642" type="line"/>
      <point x="69" y="86" type="line"/>
      <point x="77" y="12"/>
      <point x="142" y="12" type="qcurve" smooth="yes"/>
      <point x="217" y="12"/>
      <point x="217" y="112" type="qcurve" smooth="yes"/>
    </contour>
  </outline>
</glyph>
<glyph name="one" format="1">
  <advance width="132"/>
  <unicode hex="0031"/>
  <outline>
    <contour>
      <point x="29" y="5" type="line"/>
      <point x="29" y="26" type="line"/>
      <point x="55" y="26" type="line"/>
      <point x="55" y="766" type="line"/>
      <point x="20" y="752" type="line"/>
      <point x="20" y="773" type="line"/>
      <point x="79" y="797" type="line"/>
      <point x="79" y="26" type="line"/>
      <point x="106" y="26" type="line"/>
      <point x="106" y="5" type="line"/>
    </contour>
  </outline>
</glyph>
<glyph name="two" format="1">
  <advance width="272"/>
  <unicode hex="0032"/>
  <outline>
    <contour>
      <point x="44" y="5" type="line"/>
      <point x="44" y="357" type="line" smooth="yes"/>
      <point x="44" y="430"/>
      <point x="89" y="447" type="qcurve"/>
      <point x="107" y="452"/>
      <point x="131" y="455" type="qcurve"/>
      <point x="183" y="459"/>
      <point x="201" y="474" type="qcurve"/>
      <point x="217" y="489"/>
      <point x="217" y="541" type="qcurve" smooth="yes"/>
      <point x="217" y="692" type="line" smooth="yes"/>
      <point x="217" y="790"/>
      <point x="67" y="790"/>
      <point x="67" y="692" type="qcurve" smooth="yes"/>
      <point x="67" y="637" type="line"/>
      <point x="44" y="637" type="line"/>
      <point x="44" y="690" type="line" smooth="yes"/>
      <point x="44" y="806"/>
      <point x="142" y="806" type="qcurve" smooth="yes"/>
      <point x="241" y="806"/>
      <point x="241" y="690" type="qcurve" smooth="yes"/>
      <point x="241" y="539" type="line" smooth="yes"/>
      <point x="241" y="479"/>
      <point x="222" y="460" type="qcurve"/>
      <point x="202" y="442"/>
      <point x="141" y="436" type="qcurve" smooth="yes"/>
      <point x="79" y="430"/>
      <point x="70" y="392" type="qcurve" smooth="yes"/>
      <point x="67" y="378"/>
      <point x="67" y="356" type="qcurve" smooth="yes"/>
      <point x="67" y="22" type="line"/>
      <point x="241" y="22" type="line"/>
      <point x="241" y="5" type="line"/>
    </contour>
  </outline>
</glyph>
<glyph name="three" format="1">
  <advance width="265"/>
  <unicode hex="0033"/>
  <outline>
    <contour>
      <point x="130" y="-3" type="qcurve" smooth="yes"/>
      <point x="32" y="-3"/>
      <point x="32" y="114" type="qcurve" smooth="yes"/>
      <point x="32" y="171" type="line"/>
      <point x="55" y="171" type="line"/>
      <point x="55" y="112" type="line" smooth="yes"/>
      <point x="55" y="12"/>
      <point x="205" y="12"/>
      <point x="205" y="112" type="qcurve" smooth="yes"/>
      <point x="205" y="361" type="line" smooth="yes"/>
      <point x="205" y="413"/>
      <point x="189" y="432" type="qcurve" smooth="yes"/>
      <point x="170" y="454"/>
      <point x="120" y="454" type="qcurve" smooth="yes"/>
      <point x="92" y="454" type="line"/>
      <point x="92" y="470" type="line"/>
      <point x="120" y="470" type="line" smooth="yes"/>
      <point x="175" y="470"/>
      <point x="191" y="492" type="qcurve" smooth="yes"/>
      <point x="205" y="511"/>
      <point x="205" y="562" type="qcurve" smooth="yes"/>
      <point x="205" y="692" type="line" smooth="yes"/>
      <point x="205" y="790"/>
      <point x="55" y="790"/>
      <point x="55" y="692" type="qcurve" smooth="yes"/>
      <point x="55" y="637" type="line"/>
      <point x="32" y="637" type="line"/>
      <point x="32" y="690" type="line" smooth="yes"/>
      <point x="32" y="806"/>
      <point x="130" y="806" type="qcurve" smooth="yes"/>
      <point x="229" y="806"/>
      <point x="229" y="690" type="qcurve" smooth="yes"/>
      <point x="229" y="559" type="line" smooth="yes"/>
      <point x="229" y="485"/>
      <point x="158" y="461" type="qcurve"/>
      <point x="229" y="440"/>
      <point x="229" y="365" type="qcurve" smooth="yes"/>
      <point x="229" y="114" type="line" smooth="yes"/>
      <point x="229" y="-3"/>
    </contour>
  </outline>
</glyph>
<glyph name="four" format="1">
  <advance width="273"/>
  <unicode hex="0034"/>
  <outline>
    <contour>
      <point x="215" y="454" type="line"/>
      <point x="215" y="5" type="line"/>
      <point x="192" y="5" type="line"/>
      <point x="192" y="454" type="line"/>
      <point x="11" y="454" type="line"/>
      <point x="188" y="799" type="line"/>
      <point x="215" y="799" type="line"/>
      <point x="215" y="470" type="line"/>
      <point x="268" y="470" type="line"/>
      <point x="268" y="454" type="line"/>
    </contour>
    <contour>
      <point x="192" y="755" type="line"/>
      <point x="47" y="470" type="line"/>
      <point x="192" y="470" type="line"/>
    </contour>
  </outline>
</glyph>
<glyph name="five" format="1">
  <advance width="285"/>
  <unicode hex="0035"/>
  <outline>
    <contour>
      <point x="142" y="-3" type="qcurve" smooth="yes"/>
      <point x="44" y="-3"/>
      <point x="44" y="114" type="qcurve" smooth="yes"/>
      <point x="44" y="171" type="line"/>
      <point x="67" y="171" type="line"/>
      <point x="67" y="112" type="line" smooth="yes"/>
      <point x="67" y="12"/>
      <point x="217" y="12"/>
      <point x="217" y="112" type="qcurve" smooth="yes"/>
      <point x="217" y="361" type="line" smooth="yes"/>
      <point x="217" y="414"/>
      <point x="203" y="433" type="qcurve" smooth="yes"/>
      <point x="187" y="455"/>
      <point x="132" y="455" type="qcurve" smooth="yes"/>
      <point x="44" y="455" type="line"/>
      <point x="44" y="799" type="line"/>
      <point x="241" y="799" type="line"/>
      <point x="241" y="781" type="line"/>
      <point x="67" y="781" type="line"/>
      <point x="67" y="471" type="line"/>
      <point x="140" y="471" type="line" smooth="yes"/>
      <point x="202" y="471"/>
      <point x="223" y="442" type="qcurve" smooth="yes"/>
      <point x="241" y="416"/>
      <point x="241" y="352" type="qcurve" smooth="yes"/>
      <point x="241" y="114" type="line" smooth="yes"/>
      <point x="241" y="-3"/>
    </contour>
  </outline>
</glyph>
<glyph name="six" format="1">
  <advance width="285"/>
  <unicode hex="0036"/>
  <outline>
    <contour>
      <point x="142" y="-3" type="qcurve" smooth="yes"/>
      <point x="44" y="-3"/>
      <point x="44" y="114" type="qcurve" smooth="yes"/>
      <point x="44" y="690" type="line" smooth="yes"/>
      <point x="44" y="806"/>
      <point x="142" y="806" type="qcurve" smooth="yes"/>
      <point x="241" y="806"/>
      <point x="241" y="690" type="qcurve" smooth="yes"/>
      <point x="241" y="632" type="line"/>
      <point x="217" y="632" type="line"/>
      <point x="217" y="692" type="line" smooth="yes"/>
      <point x="217" y="790"/>
      <point x="67" y="790"/>
      <point x="67" y="692" type="qcurve" smooth="yes"/>
      <point x="67" y="435" type="line"/>
      <point x="107" y="471"/>
      <point x="146" y="471" type="qcurve" smooth="yes"/>
      <point x="241" y="471"/>
      <point x="241" y="355" type="qcurve" smooth="yes"/>
      <point x="241" y="114" type="line" smooth="yes"/>
      <point x="241" y="-3"/>
    </contour>
    <contour>
      <point x="217" y="356" type="line" smooth="yes"/>
      <point x="217" y="455"/>
      <point x="146" y="455" type="qcurve" smooth="yes"/>
      <point x="67" y="455"/>
      <point x="67" y="356" type="qcurve" smooth="yes"/>
      <point x="67" y="112" type="line" smooth="yes"/>
      <point x="67" y="12"/>
      <point x="217" y="12"/>
      <point x="217" y="112" type="qcurve" smooth="yes"/>
    </contour>
  </outline>
</glyph>
<glyph name="seven" format="1">
  <advance width="222"/>
  <unicode hex="0037"/>
  <outline>
    <contour>
      <point x="32" y="5" type="line"/>
      <point x="11" y="5" type="line"/>
      <point x="189" y="781" type="line"/>
      <point x="20" y="781" type="line"/>
      <point x="20" y="799" type="line"/>
      <point x="216" y="799" type="line"/>
    </contour>
  </outline>
</glyph>
<glyph name="eight" format="1">
  <advance width="285"/>
  <unicode hex="0038"/>
  <outline>
    <contour>
      <point x="142" y="-3" type="qcurve" smooth="yes"/>
      <point x="44" y="-3"/>
      <point x="44" y="114" type="qcurve" smooth="yes"/>
      <point x="44" y="359" type="line" smooth="yes"/>
      <point x="44" y="441"/>
      <point x="97" y="467" type="qcurve"/>
      <point x="44" y="491"/>
      <point x="44" y="576" type="qcurve" smooth="yes"/>
      <point x="44" y="690" type="line" smooth="yes"/>
      <point x="44" y="806"/>
      <point x="142" y="806" type="qcurve" smooth="yes"/>
      <point x="241" y="806"/>
      <point x="241" y="690" type="qcurve" smooth="yes"/>
      <point x="241" y="576" type="line" smooth="yes"/>
      <point x="241" y="493"/>
      <point x="188" y="467" type="qcurve"/>
      <point x="241" y="441"/>
      <point x="241" y="359" type="qcurve" smooth="yes"/>
      <point x="241" y="114" type="line" smooth="yes"/>
      <point x="241" y="-3"/>
    </contour>
    <contour>
      <point x="217" y="692" type="line" smooth="yes"/>
      <point x="217" y="790"/>
      <point x="67" y="790"/>
      <point x="67" y="692" type="qcurve" smooth="yes"/>
      <point x="67" y="574" type="line" smooth="yes"/>
      <point x="67" y="475"/>
      <point x="217" y="475"/>
      <point x="217" y="574" type="qcurve" smooth="yes"/>
    </contour>
    <contour>
      <point x="217" y="360" type="line" smooth="yes"/>
      <point x="217" y="459"/>
      <point x="67" y="459"/>
      <point x="67" y="360" type="qcurve" smooth="yes"/>
      <point x="67" y="112" type="line" smooth="yes"/>
      <point x="67" y="12"/>
      <point x="217" y="12"/>
      <point x="217" y="112" type="qcurve" smooth="yes"/>
    </contour>
  </outline>
</glyph>
<glyph name="nine" format="1">
  <advance width="285"/>
  <unicode hex="0039"/>
  <outline>
    <contour>
      <point x="142" y="-3" type="qcurve" smooth="yes"/>
      <point x="44" y="-3"/>
      <point x="44" y="114" type="qcurve" smooth="yes"/>
      <point x="44" y="171" type="line"/>
      <point x="67" y="171" type="line"/>
      <point x="67" y="112" type="line" smooth="yes"/>
      <point x="67" y="12"/>
      <point x="217" y="12"/>
      <point x="217" y="112" type="qcurve" smooth="yes"/>
      <point x="217" y="489" type="line"/>
      <point x="180" y="452"/>
      <point x="134" y="452" type="qcurve" smooth="yes"/>
      <point x="44" y="452"/>
      <point x="44" y="567" type="qcurve" smooth="yes"/>
      <point x="44" y="690" type="line" smooth="yes"/>
      <point x="44" y="806"/>
      <point x="142" y="806" type="qcurve" smooth="yes"/>
      <point x="241" y="806"/>
      <point x="241" y="690" type="qcurve" smooth="yes"/>
      <point x="241" y="114" type="line" smooth="yes"/>
      <point x="241" y="-3"/>
    </contour>
    <contour>
      <point x="217" y="692" type="line" smooth="yes"/>
      <point x="217" y="790"/>
      <point x="67" y="790"/>
      <point x="67" y="692" type="qcurve" smooth="yes"/>
      <point x="67" y="567" type="line" smooth="yes"/>
      <point x="67" y="469"/>
      <point x="139" y="469" type="qcurve" smooth="yes"/>
      <point x="217" y="469"/>
      <point x="217" y="567" type="qcurve" smooth="yes"/>
    </contour>
  </outline>
</glyph>
<glyph name="colon" format="1">
  <advance width="142"/>
  <unicode hex="003A"/>
  <outline>
    <contour>
      <point x="60" y="331" type="line"/>
      <point x="60" y="359" type="line"/>
      <point x="82" y="359" type="line"/>
      <point x="82" y="331" type="line"/>
    </contour>
    <contour>
      <point x="60" y="9" type="line"/>
      <point x="60" y="36" type="line"/>
      <point x="82" y="36" type="line"/>
      <point x="82" y="9" type="line"/>
    </contour>
  </outline>
</glyph>
<glyph name="semicolon" format="1">
  <advance width="142"/>
  <unicode hex="003B"/>
  <outline>
    <contour>
      <point x="60" y="331" type="line"/>
      <point x="60" y="359" type="line"/>
      <point x="82" y="359" type="line"/>
      <point x="82" y="331" type="line"/>
    </contour>
    <contour>
      <point x="81" y="36" type="line"/>
      <point x="61" y="-68" type="line"/>
      <point x="38" y="-68" type="line"/>
      <point x="53" y="9" type="line"/>
      <point x="34" y="9" type="line"/>
      <point x="34" y="36" type="line"/>
    </contour>
  </outline>
</glyph>
<glyph name="less" format="1">
  <advance width="441"/>
  <unicode hex="003C"/>
  <outline>
    <contour>
      <point x="61" y="325" type="line"/>
      <point x="61" y="342" type="line"/>
      <point x="390" y="518" type="line"/>
      <point x="390" y="490" type="line"/>
      <point x="106" y="334" type="line"/>
      <point x="390" y="176" type="line"/>
      <point x="390" y="149" type="line"/>
    </contour>
  </outline>
</glyph>
<glyph name="equal" format="1">
  <advance width="641"/>
  <unicode hex="003D"/>
  <outline>
    <contour>
      <point x="75" y="391" type="line"/>
      <point x="75" y="415" type="line"/>
      <point x="566" y="415" type="line"/>
      <point x="566" y="391" type="line"/>
    </contour>
    <contour>
      <point x="75" y="251" type="line"/>
      <point x="75" y="276" type="line"/>
      <point x="566" y="276" type="line"/>
      <point x="566" y="251" type="line"/>
    </contour>
  </outline>
</glyph>
<glyph name="greater" format="1">
  <advance width="441"/>
  <unicode hex="003E"/>
  <outline>
    <contour>
      <point x="61" y="149" type="line"/>
      <point x="61" y="176" type="line"/>
      <point x="345" y="334" type="line"/>
      <point x="61" y="490" type="line"/>
      <point x="61" y="518" type="line"/>
      <point x="390" y="342" type="line"/>
      <point x="390" y="325" type="line"/>
    </contour>
  </outline>
</glyph>
<glyph name="question" format="1">
  <advance width="251"/>
  <unicode hex="003F"/>
  <outline>
    <contour>
      <point x="192" y="493" type="qcurve" smooth="yes"/>
      <point x="173" y="463"/>
      <point x="120" y="455" type="qcurve"/>
      <point x="120" y="126" type="line"/>
      <point x="96" y="126" type="line"/>
      <point x="96" y="470" type="line"/>
      <point x="148" y="471"/>
      <point x="166" y="492" type="qcurve"/>
      <point x="183" y="514"/>
      <point x="183" y="570" type="qcurve" smooth="yes"/>
      <point x="183" y="692" type="line" smooth="yes"/>
      <point x="183" y="790"/>
      <point x="33" y="790"/>
      <point x="33" y="692" type="qcurve" smooth="yes"/>
      <point x="33" y="637" type="line"/>
      <point x="8" y="637" type="line"/>
      <point x="8" y="690" type="line" smooth="yes"/>
      <point x="8" y="806"/>
      <point x="108" y="806" type="qcurve" smooth="yes"/>
      <point x="207" y="806"/>
      <point x="207" y="690" type="qcurve" smooth="yes"/>
      <point x="207" y="571" type="line" smooth="yes"/>
      <point x="207" y="516"/>
    </contour>
    <contour>
      <point x="96" y="9" type="line"/>
      <point x="96" y="36" type="line"/>
      <point x="118" y="36" type="line"/>
      <point x="118" y="9" type="line"/>
    </contour>
  </outline>
</glyph>
<glyph name="at" format="1">
  <advance width="659"/>
  <unicode hex="0040"/>
  <outline>
    <contour>
      <point x="542" y="89" type="qcurve" smooth="yes"/>
      <point x="496" y="37"/>
      <point x="446" y="37" type="qcurve" smooth="yes"/>
      <point x="403" y="37"/>
      <point x="393" y="68" type="qcurve" smooth="yes"/>
      <point x="387" y="85"/>
      <point x="386" y="134" type="qcurve"/>
      <point x="353" y="110"/>
      <point x="310" y="110" type="qcurve" smooth="yes"/>
      <point x="225" y="110"/>
      <point x="225" y="197" type="qcurve" smooth="yes"/>
      <point x="225" y="207"/>
      <point x="230" y="260" type="qcurve" smooth="yes"/>
      <point x="242" y="377"/>
      <point x="342" y="377" type="qcurve" smooth="yes"/>
      <point x="386" y="377"/>
      <point x="414" y="351" type="qcurve"/>
      <point x="422" y="432" type="line" smooth="yes"/>
      <point x="423" y="439"/>
      <point x="423" y="454" type="qcurve" smooth="yes"/>
      <point x="423" y="530"/>
      <point x="357" y="530" type="qcurve" smooth="yes"/>
      <point x="285" y="530"/>
      <point x="272" y="427" type="qcurve"/>
      <point x="249" y="427" type="line"/>
      <point x="250" y="429" type="line"/>
      <point x="262" y="547"/>
      <point x="361" y="547" type="qcurve" smooth="yes"/>
      <point x="448" y="547"/>
      <point x="448" y="457" type="qcurve" smooth="yes"/>
      <point x="448" y="453"/>
      <point x="446" y="431" type="qcurve" smooth="yes"/>
      <point x="407" y="109" type="line"/>
      <point x="407" y="60"/>
      <point x="452" y="60" type="qcurve" smooth="yes"/>
      <point x="504" y="60"/>
      <point x="544" y="121" type="qcurve" smooth="yes"/>
      <point x="601" y="206"/>
      <point x="601" y="394" type="qcurve" smooth="yes"/>
      <point x="601" y="516"/>
      <point x="541" y="598" type="qcurve" smooth="yes"/>
      <point x="474" y="689"/>
      <point x="356" y="689" type="qcurve" smooth="yes"/>
      <point x="246" y="689"/>
      <point x="166" y="597" type="qcurve" smooth="yes"/>
      <point x="58" y="471"/>
      <point x="58" y="264" type="qcurve" smooth="yes"/>
      <point x="58" y="120"/>
      <point x="121" y="26" type="qcurve" smooth="yes"/>
      <point x="196" y="-88"/>
      <point x="331" y="-88" type="qcurve" smooth="yes"/>
      <point x="442" y="-88"/>
      <point x="538" y="2" type="qcurve"/>
      <point x="542" y="-7" type="line"/>
      <point x="449" y="-108"/>
      <point x="335" y="-108" type="qcurve" smooth="yes"/>
      <point x="211" y="-108"/>
      <point x="134" y="-22" type="qcurve" smooth="yes"/>
      <point x="36" y="88"/>
      <point x="36" y="271" type="qcurve" smooth="yes"/>
      <point x="36" y="425"/>
      <point x="101" y="543" type="qcurve"/>
      <point x="196" y="710"/>
      <point x="358" y="710" type="qcurve" smooth="yes"/>
      <point x="466" y="710"/>
      <point x="537" y="632" type="qcurve" smooth="yes"/>
      <point x="621" y="538"/>
      <point x="621" y="392" type="qcurve" smooth="yes"/>
      <point x="621" y="315"/>
      <point x="604" y="233" type="qcurve"/>
      <point x="581" y="134"/>
    </contour>
    <contour>
      <point x="338" y="361" type="qcurve" smooth="yes"/>
      <point x="260" y="361"/>
      <point x="253" y="262" type="qcurve" smooth="yes"/>
      <point x="247" y="173" type="line" smooth="yes"/>
      <point x="246" y="156"/>
      <point x="268" y="140" type="qcurve"/>
      <point x="292" y="125"/>
      <point x="313" y="125" type="qcurve" smooth="yes"/>
      <point x="379" y="125"/>
      <point x="395" y="195" type="qcurve"/>
      <point x="405" y="290" type="line"/>
      <point x="405" y="361"/>
    </contour>
  </outline>
</glyph>
<glyph name="A" format="1">
  <advance width="280"/>
  <unicode hex="0041"/>
  <outline>
    <contour>
      <point x="241" y="5" type="line"/>
      <point x="188" y="384" type="line"/>
      <point x="91" y="384" type="line"/>
      <point x="36" y="5" type="line"/>
      <point x="16" y="5" type="line"/>
      <point x="130" y="799" type="line"/>
      <point x="150" y="799" type="line"/>
      <point x="264" y="5" type="line"/>
    </contour>
    <contour>
      <point x="140" y="731" type="line"/>
      <point x="93" y="405" type="line"/>
      <point x="186" y="405" type="line"/>
    </contour>
  </outline>
</glyph>
<glyph name="B" format="1">
  <advance width="279"/>
  <unicode hex="0042"/>
  <outline>
    <contour>
      <point x="223" y="33" type="qcurve" smooth="yes"/>
      <point x="204" y="5"/>
      <point x="139" y="5" type="qcurve" smooth="yes"/>
      <point x="43" y="5" type="line"/>
      <point x="43" y="799" type="line"/>
      <point x="139" y="799" type="line" smooth="yes"/>
      <point x="239" y="799"/>
      <point x="239" y="692" type="qcurve" smooth="yes"/>
      <point x="239" y="561" type="line" smooth="yes"/>
      <point x="239" y="487"/>
      <point x="171" y="464" type="qcurve"/>
      <point x="239" y="441"/>
      <point x="239" y="366" type="qcurve" smooth="yes"/>
      <point x="239" y="125" type="line" smooth="yes"/>
      <point x="239" y="55"/>
    </contour>
    <contour>
      <point x="217" y="689" type="line" smooth="yes"/>
      <point x="217" y="740"/>
      <point x="200" y="762" type="qcurve"/>
      <point x="182" y="782"/>
      <point x="130" y="782" type="qcurve" smooth="yes"/>
      <point x="67" y="782" type="line"/>
      <point x="67" y="471" type="line"/>
      <point x="130" y="471" type="line" smooth="yes"/>
      <point x="182" y="471"/>
      <point x="200" y="493" type="qcurve" smooth="yes"/>
      <point x="217" y="513"/>
      <point x="217" y="565" type="qcurve" smooth="yes"/>
    </contour>
    <contour>
      <point x="217" y="364" type="line" smooth="yes"/>
      <point x="217" y="416"/>
      <point x="199" y="436" type="qcurve" smooth="yes"/>
      <point x="181" y="456"/>
      <point x="130" y="456" type="qcurve" smooth="yes"/>
      <point x="67" y="456" type="line"/>
      <point x="67" y="21" type="line"/>
      <point x="130" y="21" type="line" smooth="yes"/>
      <point x="182" y="21"/>
      <point x="200" y="42" type="qcurve" smooth="yes"/>
      <point x="217" y="62"/>
      <point x="217" y="114" type="qcurve" smooth="yes"/>
    </contour>
  </outline>
</glyph>
<glyph name="D" format="1">
  <advance width="277"/>
  <unicode hex="0044"/>
  <outline>
    <contour>
      <point x="140" y="5" type="qcurve" smooth="yes"/>
      <point x="44" y="5" type="line"/>
      <point x="44" y="799" type="line"/>
      <point x="140" y="799" type="line" smooth="yes"/>
      <point x="202" y="799"/>
      <point x="223" y="768" type="qcurve"/>
      <point x="241" y="746"/>
      <point x="241" y="679" type="qcurve" smooth="yes"/>
      <point x="241" y="111" type="line" smooth="yes"/>
      <point x="241" y="5"/>
    </contour>
    <contour>
      <point x="217" y="690" type="line" smooth="yes"/>
      <point x="217" y="741"/>
      <point x="200" y="761" type="qcurve" smooth="yes"/>
      <point x="182" y="781"/>
      <point x="132" y="781" type="qcurve" smooth="yes"/>
      <point x="67" y="781" type="line"/>
      <point x="67" y="21" type="line"/>
      <point x="132" y="21" type="line" smooth="yes"/>
      <point x="187" y="21"/>
      <point x="203" y="43" type="qcurve" smooth="yes"/>
      <point x="217" y="62"/>
      <point x="217" y="114" type="qcurve" smooth="yes"/>
    </contour>
  </outline>
</glyph>
<glyph name="E" format="1">
  <advance width="257"/>
  <unicode hex="0045"/>
  <outline>
    <contour>
      <point x="43" y="5" type="line"/>
      <point x="43" y="799" type="line"/>
      <point x="237" y="799" type="line"/>
      <point x="237" y="782" type="line"/>
      <point x="67" y="782" type="line"/>
      <point x="67" y="471" type="line"/>
      <point x="237" y="471" type="line"/>
      <point x="237" y="456" type="line"/>
      <point x="67" y="456" type="line"/>
      <point x="67" y="21" type="line"/>
      <point x="237" y="21" type="line"/>
      <point x="237" y="5" type="line"/>
    </contour>
  </outline>
</glyph>
<glyph name="F" format="1">
  <advance width="250"/>
  <unicode hex="0046"/>
  <outline>
    <contour>
      <point x="72" y="781" type="line"/>
      <point x="72" y="474" type="line"/>
      <point x="219" y="474" type="line"/>
      <point x="219" y="457" type="line"/>
      <point x="72" y="457" type="line"/>
      <point x="72" y="5" type="line"/>
      <point x="48" y="5" type="line"/>
      <point x="48" y="799" type="line"/>
      <point x="242" y="799" type="line"/>
      <point x="242" y="781" type="line"/>
    </contour>
  </outline>
</glyph>
<glyph name="G" format="1">
  <advance width="285"/>
  <unicode hex="0047"/>
  <outline>
    <contour>
      <point x="142" y="-3" type="qcurve" smooth="yes"/>
      <point x="44" y="-3"/>
      <point x="44" y="114" type="qcurve" smooth="yes"/>
      <point x="44" y="690" type="line" smooth="yes"/>
      <point x="44" y="806"/>
      <point x="142" y="806" type="qcurve" smooth="yes"/>
      <point x="241" y="806"/>
      <point x="241" y="690" type="qcurve" smooth="yes"/>
      <point x="241" y="637" type="line"/>
      <point x="217" y="637" type="line"/>
      <point x="217" y="692" type="line" smooth="yes"/>
      <point x="217" y="790"/>
      <point x="67" y="790"/>
      <point x="67" y="692" type="qcurve" smooth="yes"/>
      <point x="67" y="112" type="line" smooth="yes"/>
      <point x="67" y="12"/>
      <point x="217" y="12"/>
      <point x="217" y="112" type="qcurve" smooth="yes"/>
      <point x="217" y="452" type="line"/>
      <point x="161" y="452" type="line"/>
      <point x="161" y="474" type="line"/>
      <point x="241" y="474" type="line"/>
      <point x="241" y="114" type="line" smooth="yes"/>
      <point x="241" y="-3"/>
    </contour>
  </outline>
</glyph>
<glyph name="H" format="1">
  <advance width="281"/>
  <unicode hex="0048"/>
  <outline>
    <contour>
      <point x="221" y="5" type="line"/>
      <point x="221" y="456" type="line"/>
      <point x="71" y="456" type="line"/>
      <point x="71" y="5" type="line"/>
      <point x="47" y="5" type="line"/>
      <point x="47" y="799" type="line"/>
      <point x="71" y="799" type="line"/>
      <point x="71" y="471" type="line"/>
      <point x="221" y="471" type="line"/>
      <point x="221" y="799" type="line"/>
      <point x="243" y="799" type="line"/>
      <point x="243" y="5" type="line"/>
    </contour>
  </outline>
</glyph>
<glyph name="I" format="1">
  <advance width="111"/>
  <unicode hex="0049"/>
  <outline>
    <contour>
      <point x="24" y="6" type="line"/>
      <point x="24" y="27" type="line"/>
      <point x="45" y="27" type="line"/>
      <point x="45" y="776" type="line"/>
      <point x="24" y="776" type="line"/>
      <point x="24" y="797" type="line"/>
      <point x="90" y="797" type="line"/>
      <point x="90" y="776" type="line"/>
      <point x="68" y="776" type="line"/>
      <point x="68" y="27" type="line"/>
      <point x="90" y="27" type="line"/>
      <point x="90" y="6" type="line"/>
    </contour>
  </outline>
</glyph>
<glyph name="J" format="1">
  <advance width="265"/>
  <unicode hex="004A"/>
  <outline>
    <contour>
      <point x="122" y="-3" type="qcurve" smooth="yes"/>
      <point x="22" y="-3"/>
      <point x="22" y="114" type="qcurve" smooth="yes"/>
      <point x="22" y="171" type="line"/>
      <point x="47" y="171" type="line"/>
      <point x="47" y="112" type="line" smooth="yes"/>
      <point x="47" y="12"/>
      <point x="197" y="12"/>
      <point x="197" y="112" type="qcurve" smooth="yes"/>
      <point x="197" y="799" type="line"/>
      <point x="221" y="799" type="line"/>
      <point x="221" y="114" type="line" smooth="yes"/>
      <point x="221" y="-3"/>
    </contour>
  </outline>
</glyph>
<glyph name="K" format="1">
  <advance width="295"/>
  <unicode hex="004B"/>
  <outline>
    <contour>
      <point x="223" y="5" type="line"/>
      <point x="223" y="364" type="line" smooth="yes"/>
      <point x="223" y="416"/>
      <point x="205" y="436" type="qcurve" smooth="yes"/>
      <point x="187" y="456"/>
      <point x="136" y="456" type="qcurve" smooth="yes"/>
      <point x="73" y="456" type="line"/>
      <point x="73" y="5" type="line"/>
      <point x="49" y="5" type="line"/>
      <point x="49" y="799" type="line"/>
      <point x="73" y="799" type="line"/>
      <point x="73" y="471" type="line"/>
      <point x="136" y="471" type="line" smooth="yes"/>
      <point x="188" y="471"/>
      <point x="206" y="493" type="qcurve" smooth="yes"/>
      <point x="223" y="513"/>
      <point x="223" y="565" type="qcurve" smooth="yes"/>
      <point x="223" y="799" type="line"/>
      <point x="245" y="799" type="line"/>
      <point x="245" y="561" type="line" smooth="yes"/>
      <point x="245" y="487"/>
      <point x="177" y="464" type="qcurve"/>
      <point x="245" y="441"/>
      <point x="245" y="366" type="qcurve" smooth="yes"/>
      <point x="245" y="5" type="line"/>
    </contour>
  </outline>
</glyph>
<glyph name="L" format="1">
  <advance width="246"/>
  <unicode hex="004C"/>
  <outline>
    <contour>
      <point x="46" y="5" type="line"/>
      <point x="46" y="799" type="line"/>
      <point x="70" y="799" type="line"/>
      <point x="70" y="21" type="line"/>
      <point x="241" y="21" type="line"/>
      <point x="241" y="5" type="line"/>
    </contour>
  </outline>
</glyph>
<glyph name="M" format="1">
  <advance width="459"/>
  <unicode hex="004D"/>
  <outline>
    <contour>
      <point x="391" y="5" type="line"/>
      <point x="391" y="718" type="line"/>
      <point x="237" y="54" type="line"/>
      <point x="218" y="54" type="line"/>
      <point x="70" y="711" type="line"/>
      <point x="70" y="5" type="line"/>
      <point x="46" y="5" type="line"/>
      <point x="46" y="799" type="line"/>
      <point x="72" y="799" type="line"/>
      <point x="227" y="102" type="line"/>
      <point x="388" y="799" type="line"/>
      <point x="414" y="799" type="line"/>
      <point x="414" y="5" type="line"/>
    </contour>
  </outline>
</glyph>
<glyph name="N" format="1">
  <advance width="287"/>
  <unicode hex="004E"/>
  <outline>
    <contour>
      <point x="70" y="799" type="line"/>
      <point x="70" y="797" type="line"/>
      <point x="73" y="797" type="line"/>
      <point x="227" y="121" type="line"/>
      <point x="227" y="799" type="line"/>
      <point x="250" y="799" type="line"/>
      <point x="255" y="5" type="line"/>
      <point x="227" y="5" type="line"/>
      <point x="227" y="18" type="line"/>
      <point x="70" y="711" type="line"/>
      <point x="70" y="5" type="line"/>
      <point x="46" y="5" type="line"/>
      <point x="46" y="799" type="line"/>
    </contour>
  </outline>
</glyph>
<glyph name="O" format="1">
  <advance width="285"/>
  <unicode hex="004F"/>
  <outline>
    <contour>
      <point x="142" y="-3" type="qcurve" smooth="yes"/>
      <point x="44" y="-3"/>
      <point x="44" y="114" type="qcurve" smooth="yes"/>
      <point x="44" y="690" type="line" smooth="yes"/>
      <point x="44" y="806"/>
      <point x="142" y="806" type="qcurve" smooth="yes"/>
      <point x="241" y="806"/>
      <point x="241" y="690" type="qcurve" smooth="yes"/>
      <point x="241" y="114" type="line" smooth="yes"/>
      <point x="241" y="-3"/>
    </contour>
    <contour>
      <point x="217" y="692" type="line" smooth="yes"/>
      <point x="217" y="790"/>
      <point x="67" y="790"/>
      <point x="67" y="692" type="qcurve" smooth="yes"/>
      <point x="67" y="112" type="line" smooth="yes"/>
      <point x="67" y="12"/>
      <point x="217" y="12"/>
      <point x="217" y="112" type="qcurve" smooth="yes"/>
    </contour>
  </outline>
</glyph>
<glyph name="P" format="1">
  <advance width="280"/>
  <unicode hex="0050"/>
  <outline>
    <contour>
      <point x="149" y="457" type="qcurve" smooth="yes"/>
      <point x="77" y="457" type="line"/>
      <point x="77" y="5" type="line"/>
      <point x="53" y="5" type="line"/>
      <point x="53" y="799" type="line"/>
      <point x="149" y="799" type="line" smooth="yes"/>
      <point x="212" y="799"/>
      <point x="233" y="769" type="qcurve" smooth="yes"/>
      <point x="249" y="747"/>
      <point x="249" y="679" type="qcurve" smooth="yes"/>
      <point x="249" y="562" type="line" smooth="yes"/>
      <point x="249" y="457"/>
    </contour>
    <contour>
      <point x="227" y="690" type="line" smooth="yes"/>
      <point x="227" y="744"/>
      <point x="211" y="760" type="qcurve"/>
      <point x="192" y="781"/>
      <point x="140" y="781" type="qcurve" smooth="yes"/>
      <point x="77" y="781" type="line"/>
      <point x="77" y="474" type="line"/>
      <point x="140" y="474" type="line" smooth="yes"/>
      <point x="191" y="474"/>
      <point x="211" y="494" type="qcurve"/>
      <point x="227" y="513"/>
      <point x="227" y="566" type="qcurve" smooth="yes"/>
    </contour>
  </outline>
</glyph>
<glyph name="Q" format="1">
  <advance width="285"/>
  <unicode hex="0051"/>
  <outline>
    <contour>
      <point x="160" y="-2" type="qcurve"/>
      <point x="160" y="-61" type="line" smooth="yes"/>
      <point x="160" y="-156"/>
      <point x="230" y="-159" type="qcurve"/>
      <point x="230" y="-175" type="line"/>
      <point x="136" y="-172"/>
      <point x="136" y="-59" type="qcurve" smooth="yes"/>
      <point x="136" y="-3" type="line"/>
      <point x="44" y="3"/>
      <point x="44" y="114" type="qcurve" smooth="yes"/>
      <point x="44" y="690" type="line" smooth="yes"/>
      <point x="44" y="806"/>
      <point x="142" y="806" type="qcurve" smooth="yes"/>
      <point x="241" y="806"/>
      <point x="241" y="690" type="qcurve" smooth="yes"/>
      <point x="241" y="114" type="line" smooth="yes"/>
      <point x="241" y="8"/>
    </contour>
    <contour>
      <point x="217" y="692" type="line" smooth="yes"/>
      <point x="217" y="790"/>
      <point x="67" y="790"/>
      <point x="67" y="692" type="qcurve" smooth="yes"/>
      <point x="67" y="480" type="line"/>
      <point x="160" y="474"/>
      <point x="160" y="364" type="qcurve" smooth="yes"/>
      <point x="160" y="14" type="line"/>
      <point x="217" y="28"/>
      <point x="217" y="112" type="qcurve" smooth="yes"/>
    </contour>
    <contour>
      <point x="136" y="366" type="line" smooth="yes"/>
      <point x="136" y="458"/>
      <point x="67" y="465" type="qcurve"/>
      <point x="67" y="112" type="line" smooth="yes"/>
      <point x="67" y="18"/>
      <point x="136" y="14" type="qcurve"/>
    </contour>
  </outline>
</glyph>
<glyph name="R" format="1">
  <advance width="298"/>
  <unicode hex="0052"/>
  <outline>
    <contour>
      <point x="223" y="5" type="line"/>
      <point x="223" y="352" type="line" smooth="yes"/>
      <point x="223" y="399"/>
      <point x="204" y="424" type="qcurve"/>
      <point x="182" y="446"/>
      <point x="136" y="446" type="qcurve" smooth="yes"/>
      <point x="73" y="446" type="line"/>
      <point x="73" y="5" type="line"/>
      <point x="49" y="5" type="line"/>
      <point x="49" y="799" type="line"/>
      <point x="145" y="799" type="line" smooth="yes"/>
      <point x="208" y="799"/>
      <point x="229" y="769" type="qcurve" smooth="yes"/>
      <point x="245" y="747"/>
      <point x="245" y="679" type="qcurve" smooth="yes"/>
      <point x="245" y="557" type="line" smooth="yes"/>
      <point x="245" y="481"/>
      <point x="177" y="461" type="qcurve"/>
      <point x="245" y="435"/>
      <point x="245" y="356" type="qcurve" smooth="yes"/>
      <point x="245" y="5" type="line"/>
    </contour>
    <contour>
      <point x="223" y="690" type="line" smooth="yes"/>
      <point x="223" y="744"/>
      <point x="207" y="760" type="qcurve"/>
      <point x="188" y="781"/>
      <point x="136" y="781" type="qcurve" smooth="yes"/>
      <point x="73" y="781" type="line"/>
      <point x="73" y="467" type="line"/>
      <point x="136" y="467" type="line" smooth="yes"/>
      <point x="188" y="467"/>
      <point x="207" y="489" type="qcurve" smooth="yes"/>
      <point x="223" y="506"/>
      <point x="223" y="560" type="qcurve" smooth="yes"/>
    </contour>
  </outline>
</glyph>
<glyph name="S" format="1">
  <advance width="267"/>
  <unicode hex="0053"/>
  <outline>
    <contour>
      <point x="134" y="-3" type="qcurve" smooth="yes"/>
      <point x="34" y="-3"/>
      <point x="34" y="114" type="qcurve" smooth="yes"/>
      <point x="34" y="166" type="line"/>
      <point x="59" y="166" type="line"/>
      <point x="59" y="112" type="line" smooth="yes"/>
      <point x="59" y="14"/>
      <point x="209" y="14"/>
      <point x="209" y="112" type="qcurve" smooth="yes"/>
      <point x="209" y="371" type="line" smooth="yes"/>
      <point x="209" y="451"/>
      <point x="134" y="451" type="qcurve" smooth="yes"/>
      <point x="34" y="451"/>
      <point x="34" y="569" type="qcurve" smooth="yes"/>
      <point x="34" y="690" type="line" smooth="yes"/>
      <point x="34" y="806"/>
      <point x="134" y="806" type="qcurve" smooth="yes"/>
      <point x="231" y="806"/>
      <point x="231" y="690" type="qcurve" smooth="yes"/>
      <point x="231" y="632" type="line"/>
      <point x="209" y="632" type="line"/>
      <point x="209" y="692" type="line" smooth="yes"/>
      <point x="209" y="791"/>
      <point x="59" y="791"/>
      <point x="59" y="692" type="qcurve" smooth="yes"/>
      <point x="59" y="566" type="line" smooth="yes"/>
      <point x="59" y="466"/>
      <point x="134" y="466" type="qcurve" smooth="yes"/>
      <point x="221" y="466"/>
      <point x="230" y="377" type="qcurve"/>
      <point x="231" y="377" type="line"/>
      <point x="231" y="114" type="line" smooth="yes"/>
      <point x="231" y="-3"/>
    </contour>
  </outline>
</glyph>
<glyph name="T" format="1">
  <advance width="274"/>
  <unicode hex="0054"/>
  <outline>
    <contour>
      <point x="151" y="781" type="line"/>
      <point x="151" y="5" type="line"/>
      <point x="127" y="5" type="line"/>
      <point x="127" y="781" type="line"/>
      <point x="14" y="781" type="line"/>
      <point x="14" y="799" type="line"/>
      <point x="260" y="799" type="line"/>
      <point x="260" y="781" type="line"/>
    </contour>
  </outline>
</glyph>
<glyph name="V" format="1">
  <advance width="280"/>
  <unicode hex="0056"/>
  <outline>
    <contour>
      <point x="150" y="5" type="line"/>
      <point x="130" y="5" type="line"/>
      <point x="16" y="799" type="line"/>
      <point x="40" y="799" type="line"/>
      <point x="140" y="95" type="line"/>
      <point x="240" y="799" type="line"/>
      <point x="264" y="799" type="line"/>
    </contour>
  </outline>
</glyph>
<glyph name="X" format="1">
  <advance width="280"/>
  <unicode hex="0058"/>
  <outline>
    <contour>
      <point x="236" y="5" type="line"/>
      <point x="139" y="368" type="line"/>
      <point x="40" y="5" type="line"/>
      <point x="17" y="5" type="line"/>
      <point x="127" y="411" type="line"/>
      <point x="17" y="799" type="line"/>
      <point x="43" y="799" type="line"/>
      <point x="140" y="441" type="line"/>
      <point x="240" y="799" type="line"/>
      <point x="263" y="799" type="line"/>
      <point x="152" y="404" type="line"/>
      <point x="263" y="5" type="line"/>
    </contour>
  </outline>
</glyph>
<glyph name="Y" format="1">
  <advance width="267"/>
  <unicode hex="0059"/>
  <outline>
    <contour>
      <point x="146" y="413" type="line"/>
      <point x="146" y="5" type="line"/>
      <point x="122" y="5" type="line"/>
      <point x="122" y="415" type="line"/>
      <point x="12" y="799" type="line"/>
      <point x="38" y="799" type="line"/>
      <point x="135" y="441" type="line"/>
      <point x="235" y="799" type="line"/>
      <point x="258" y="799" type="line"/>
    </contour>
  </outline>
</glyph>
<glyph name="Z" format="1">
  <advance width="262"/>
  <unicode hex="005A"/>
  <outline>
    <contour>
      <point x="55" y="21" type="line"/>
      <point x="236" y="21" type="line"/>
      <point x="236" y="5" type="line"/>
      <point x="25" y="5" type="line"/>
      <point x="209" y="781" type="line"/>
      <point x="28" y="781" type="line"/>
      <point x="28" y="799" type="line"/>
      <point x="238" y="799" type="line"/>
    </contour>
  </outline>
</glyph>
<glyph name="bracketright" format="1">
  <advance width="150"/>
  <unicode hex="005D"/>
  <outline>
    <contour>
      <point x="46" y="-219" type="line"/>
      <point x="46" y="-204" type="line"/>
      <point x="111" y="-204" type="line"/>
      <point x="111" y="836" type="line"/>
      <point x="46" y="836" type="line"/>
      <point x="46" y="852" type="line"/>
      <point x="135" y="852" type="line"/>
      <point x="135" y="-219" type="line"/>
    </contour>
  </outline>
</glyph>
<glyph name="asciicircum" format="1">
  <advance width="332"/>
  <unicode hex="005E"/>
  <outline>
    <contour>
      <point x="191" y="541" type="line"/>
      <point x="166" y="702" type="line"/>
      <point x="141" y="541" type="line"/>
      <point x="118" y="541" type="line"/>
      <point x="156" y="789" type="line"/>
      <point x="176" y="789" type="line"/>
      <point x="214" y="541" type="line"/>
    </contour>
  </outline>
</glyph>
<glyph name="underscore" format="1">
  <advance width="558"/>
  <unicode hex="005F"/>
  <outline>
    <contour>
      <point x="4" y="-95" type="line"/>
      <point x="4" y="-72" type="line"/>
      <point x="554" y="-72" type="line"/>
      <point x="554" y="-95" type="line"/>
    </contour>
  </outline>
</glyph>
<glyph name="grave" format="1">
  <advance width="150"/>
  <unicode hex="0060"/>
  <outline>
    <contour>
      <point x="89" y="654" type="line"/>
      <point x="32" y="769" type="line"/>
      <point x="57" y="782" type="line"/>
      <point x="115" y="667" type="line"/>
    </contour>
  </outline>
</glyph>
<glyph name="b" format="1">
  <advance width="275"/>
  <unicode hex="0062"/>
  <outline>
    <contour>
      <point x="142" y="-3" type="qcurve" smooth="yes"/>
      <point x="99" y="-3"/>
      <point x="67" y="22" type="qcurve"/>
      <point x="67" y="1" type="line"/>
      <point x="44" y="1" type="line"/>
      <point x="44" y="789" type="line"/>
      <point x="67" y="789" type="line"/>
      <point x="67" y="540" type="line"/>
      <point x="99" y="566"/>
      <point x="142" y="566" type="qcurve" smooth="yes"/>
      <point x="241" y="566"/>
      <point x="241" y="449" type="qcurve" smooth="yes"/>
      <point x="241" y="114" type="line" smooth="yes"/>
      <point x="241" y="-3"/>
    </contour>
    <contour>
      <point x="217" y="451" type="line" smooth="yes"/>
      <point x="217" y="550"/>
      <point x="67" y="550"/>
      <point x="67" y="451" type="qcurve" smooth="yes"/>
      <point x="67" y="112" type="line" smooth="yes"/>
      <point x="67" y="12"/>
      <point x="217" y="12"/>
      <point x="217" y="112" type="qcurve" smooth="yes"/>
    </contour>
  </outline>
</glyph>
<glyph name="c" format="1">
  <advance width="272"/>
  <unicode hex="0063"/>
  <outline>
    <contour>
      <point x="142" y="-3" type="qcurve" smooth="yes"/>
      <point x="44" y="-3"/>
      <point x="44" y="114" type="qcurve" smooth="yes"/>
      <point x="44" y="449" type="line" smooth="yes"/>
      <point x="44" y="566"/>
      <point x="142" y="566" type="qcurve" smooth="yes"/>
      <point x="241" y="566"/>
      <point x="241" y="449" type="qcurve" smooth="yes"/>
      <point x="241" y="397" type="line"/>
      <point x="217" y="397" type="line"/>
      <point x="217" y="451" type="line" smooth="yes"/>
      <point x="217" y="550"/>
      <point x="67" y="550"/>
      <point x="67" y="451" type="qcurve" smooth="yes"/>
      <point x="67" y="112" type="line" smooth="yes"/>
      <point x="67" y="12"/>
      <point x="217" y="12"/>
      <point x="217" y="112" type="qcurve" smooth="yes"/>
      <point x="217" y="171" type="line"/>
      <point x="241" y="171" type="line"/>
      <point x="241" y="114" type="line" smooth="yes"/>
      <point x="241" y="-3"/>
    </contour>
  </outline>
</glyph>
<glyph name="d" format="1">
  <advance width="285"/>
  <unicode hex="0064"/>
  <outline>
    <contour>
      <point x="219" y="1" type="line"/>
      <point x="219" y="22" type="line"/>
      <point x="187" y="-3"/>
      <point x="144" y="-3" type="qcurve" smooth="yes"/>
      <point x="44" y="-3"/>
      <point x="44" y="114" type="qcurve" smooth="yes"/>
      <point x="44" y="449" type="line" smooth="yes"/>
      <point x="44" y="566"/>
      <point x="144" y="566" type="qcurve" smooth="yes"/>
      <point x="187" y="566"/>
      <point x="219" y="540" type="qcurve"/>
      <point x="219" y="789" type="line"/>
      <point x="241" y="789" type="line"/>
      <point x="241" y="1" type="line"/>
    </contour>
    <contour>
      <point x="217" y="451" type="line" smooth="yes"/>
      <point x="217" y="550"/>
      <point x="144" y="550" type="qcurve" smooth="yes"/>
      <point x="67" y="550"/>
      <point x="67" y="451" type="qcurve" smooth="yes"/>
      <point x="67" y="112" type="line" smooth="yes"/>
      <point x="67" y="12"/>
      <point x="144" y="12" type="qcurve" smooth="yes"/>
      <point x="217" y="12"/>
      <point x="217" y="112" type="qcurve" smooth="yes"/>
    </contour>
  </outline>
</glyph>
<glyph name="f" format="1">
  <advance width="254"/>
  <unicode hex="0066"/>
  <outline>
    <contour>
      <point x="223" y="669" type="line"/>
      <point x="223" y="684" type="line" smooth="yes"/>
      <point x="223" y="731"/>
      <point x="211" y="752" type="qcurve" smooth="yes"/>
      <point x="194" y="782"/>
      <point x="148" y="782" type="qcurve" smooth="yes"/>
      <point x="73" y="782"/>
      <point x="73" y="684" type="qcurve" smooth="yes"/>
      <point x="73" y="565" type="line"/>
      <point x="209" y="565" type="line"/>
      <point x="209" y="545" type="line"/>
      <point x="73" y="545" type="line"/>
      <point x="73" y="-3" type="line"/>
      <point x="49" y="-3" type="line"/>
      <point x="49" y="681" type="line" smooth="yes"/>
      <point x="49" y="799"/>
      <point x="148" y="799" type="qcurve" smooth="yes"/>
      <point x="248" y="799"/>
      <point x="248" y="681" type="qcurve" smooth="yes"/>
      <point x="248" y="669" type="line"/>
    </contour>
  </outline>
</glyph>
<glyph name="h" format="1">
  <advance width="285"/>
  <unicode hex="0068"/>
  <outline>
    <contour>
      <point x="217" y="-3" type="line"/>
      <point x="217" y="454" type="line" smooth="yes"/>
      <point x="217" y="554"/>
      <point x="67" y="554"/>
      <point x="67" y="454" type="qcurve" smooth="yes"/>
      <point x="67" y="-3" type="line"/>
      <point x="41" y="-3" type="line"/>
      <point x="41" y="799" type="line"/>
      <point x="65" y="799" type="line"/>
      <point x="65" y="540" type="line"/>
      <point x="97" y="569"/>
      <point x="142" y="569" type="qcurve" smooth="yes"/>
      <point x="241" y="569"/>
      <point x="241" y="452" type="qcurve" smooth="yes"/>
      <point x="241" y="-3" type="line"/>
    </contour>
  </outline>
</glyph>
<glyph name="i" format="1">
  <advance width="116"/>
  <unicode hex="0069"/>
  <outline>
    <contour>
      <point x="46" y="669" type="line"/>
      <point x="46" y="691" type="line"/>
      <point x="70" y="691" type="line"/>
      <point x="70" y="669" type="line"/>
    </contour>
    <contour>
      <point x="46" y="5" type="line"/>
      <point x="46" y="569" type="line"/>
      <point x="70" y="569" type="line"/>
      <point x="70" y="5" type="line"/>
    </contour>
  </outline>
</glyph>
<glyph name="j" format="1">
  <advance width="104"/>
  <unicode hex="006A"/>
  <outline>
    <contour>
      <point x="43" y="670" type="line"/>
      <point x="43" y="692" type="line"/>
      <point x="66" y="692" type="line"/>
      <point x="66" y="670" type="line"/>
    </contour>
    <contour>
      <point x="-30" y="-226" type="qcurve"/>
      <point x="-30" y="-211" type="line"/>
      <point x="41" y="-208"/>
      <point x="41" y="-113" type="qcurve" smooth="yes"/>
      <point x="41" y="564" type="line"/>
      <point x="63" y="564" type="line"/>
      <point x="63" y="-110" type="line" smooth="yes"/>
      <point x="63" y="-223"/>
    </contour>
  </outline>
</glyph>
<glyph name="k" format="1">
  <advance width="281"/>
  <unicode hex="006B"/>
  <outline>
    <contour>
      <point x="218" y="5" type="line"/>
      <point x="218" y="244" type="line" smooth="yes"/>
      <point x="218" y="298"/>
      <point x="200" y="318" type="qcurve" smooth="yes"/>
      <point x="187" y="331"/>
      <point x="131" y="331" type="qcurve" smooth="yes"/>
      <point x="68" y="331" type="line"/>
      <point x="68" y="5" type="line"/>
      <point x="44" y="5" type="line"/>
      <point x="44" y="799" type="line"/>
      <point x="68" y="799" type="line"/>
      <point x="68" y="351" type="line"/>
      <point x="131" y="351" type="line" smooth="yes"/>
      <point x="183" y="351"/>
      <point x="201" y="373" type="qcurve" smooth="yes"/>
      <point x="218" y="393"/>
      <point x="218" y="445" type="qcurve" smooth="yes"/>
      <point x="218" y="569" type="line"/>
      <point x="240" y="570" type="line"/>
      <point x="240" y="441" type="line" smooth="yes"/>
      <point x="240" y="366"/>
      <point x="176" y="344" type="qcurve"/>
      <point x="240" y="325"/>
      <point x="240" y="246" type="qcurve" smooth="yes"/>
      <point x="240" y="5" type="line"/>
    </contour>
  </outline>
</glyph>
<glyph name="l" format="1">
  <advance width="116"/>
  <unicode hex="006C"/>
  <outline>
    <contour>
      <point x="46" y="5" type="line"/>
      <point x="46" y="769" type="line"/>
      <point x="70" y="792" type="line"/>
      <point x="70" y="5" type="line"/>
    </contour>
  </outline>
</glyph>
<glyph name="n" format="1">
  <advance width="279"/>
  <unicode hex="006E"/>
  <outline>
    <contour>
      <point x="217" y="-3" type="line"/>
      <point x="217" y="454" type="line" smooth="yes"/>
      <point x="217" y="554"/>
      <point x="67" y="554"/>
      <point x="67" y="454" type="qcurve" smooth="yes"/>
      <point x="67" y="-3" type="line"/>
      <point x="41" y="-3" type="line"/>
      <point x="41" y="569" type="line"/>
      <point x="65" y="569" type="line"/>
      <point x="65" y="540" type="line"/>
      <point x="97" y="569"/>
      <point x="142" y="569" type="qcurve" smooth="yes"/>
      <point x="241" y="569"/>
      <point x="241" y="452" type="qcurve" smooth="yes"/>
      <point x="241" y="-3" type="line"/>
    </contour>
  </outline>
</glyph>
<glyph name="q" format="1">
  <advance width="275"/>
  <unicode hex="0071"/>
  <outline>
    <contour>
      <point x="212" y="-226" type="line"/>
      <point x="212" y="22" type="line"/>
      <point x="181" y="-4"/>
      <point x="137" y="-4" type="qcurve" smooth="yes"/>
      <point x="39" y="-4"/>
      <point x="39" y="114" type="qcurve" smooth="yes"/>
      <point x="39" y="449" type="line" smooth="yes"/>
      <point x="39" y="565"/>
      <point x="137" y="565" type="qcurve" smooth="yes"/>
      <point x="181" y="565"/>
      <point x="212" y="539" type="qcurve"/>
      <point x="212" y="561" type="line"/>
      <point x="236" y="561" type="line"/>
      <point x="236" y="-226" type="line"/>
    </contour>
    <contour>
      <point x="212" y="450" type="line" smooth="yes"/>
      <point x="212" y="550"/>
      <point x="62" y="550"/>
      <point x="62" y="450" type="qcurve" smooth="yes"/>
      <point x="62" y="111" type="line" smooth="yes"/>
      <point x="62" y="12"/>
      <point x="212" y="12"/>
      <point x="212" y="111" type="qcurve" smooth="yes"/>
    </contour>
  </outline>
</glyph>
<glyph name="r" format="1">
  <advance width="259"/>
  <unicode hex="0072"/>
  <outline>
    <contour>
      <point x="217" y="390" type="line"/>
      <point x="217" y="449" type="line" smooth="yes"/>
      <point x="217" y="489"/>
      <point x="204" y="520" type="qcurve"/>
      <point x="189" y="547"/>
      <point x="142" y="547" type="qcurve" smooth="yes"/>
      <point x="85" y="547"/>
      <point x="70" y="485" type="qcurve"/>
      <point x="70" y="475"/>
      <point x="69" y="468" type="qcurve"/>
      <point x="69" y="452" type="line"/>
      <point x="69" y="2" type="line"/>
      <point x="44" y="2" type="line"/>
      <point x="44" y="569" type="line"/>
      <point x="70" y="569" type="line"/>
      <point x="70" y="540" type="line"/>
      <point x="91" y="554"/>
      <point x="112" y="560" type="qcurve"/>
      <point x="137" y="565"/>
      <point x="155" y="565" type="qcurve" smooth="yes"/>
      <point x="207" y="565"/>
      <point x="227" y="530" type="qcurve" smooth="yes"/>
      <point x="242" y="503"/>
      <point x="242" y="446" type="qcurve" smooth="yes"/>
      <point x="242" y="390" type="line"/>
    </contour>
  </outline>
</glyph>
<glyph name="s" format="1">
  <advance width="267"/>
  <unicode hex="0073"/>
  <outline>
    <contour>
      <point x="137" y="-3" type="qcurve" smooth="yes"/>
      <point x="37" y="-3"/>
      <point x="37" y="114" type="qcurve" smooth="yes"/>
      <point x="37" y="166" type="line"/>
      <point x="62" y="166" type="line"/>
      <point x="62" y="112" type="line" smooth="yes"/>
      <point x="62" y="14"/>
      <point x="212" y="14"/>
      <point x="212" y="112" type="qcurve" smooth="yes"/>
      <point x="212" y="219" type="line" smooth="yes"/>
      <point x="212" y="299"/>
      <point x="137" y="299" type="qcurve" smooth="yes"/>
      <point x="37" y="299"/>
      <point x="37" y="415" type="qcurve" smooth="yes"/>
      <point x="37" y="449" type="line" smooth="yes"/>
      <point x="37" y="566"/>
      <point x="137" y="566" type="qcurve" smooth="yes"/>
      <point x="234" y="566"/>
      <point x="234" y="449" type="qcurve" smooth="yes"/>
      <point x="234" y="409" type="line"/>
      <point x="212" y="409" type="line"/>
      <point x="212" y="451" type="line" smooth="yes"/>
      <point x="212" y="550"/>
      <point x="62" y="550"/>
      <point x="62" y="451" type="qcurve" smooth="yes"/>
      <point x="62" y="422" type="line" smooth="yes"/>
      <point x="62" y="314"/>
      <point x="137" y="314" type="qcurve" smooth="yes"/>
      <point x="224" y="314"/>
      <point x="233" y="224" type="qcurve"/>
      <point x="234" y="224" type="line"/>
      <point x="234" y="114" type="line" smooth="yes"/>
      <point x="234" y="-3"/>
    </contour>
  </outline>
</glyph>
<glyph name="t" format="1">
  <advance width="190"/>
  <unicode hex="0074"/>
  <outline>
    <contour>
      <point x="70" y="550" type="line"/>
      <point x="70" y="5" type="line"/>
      <point x="46" y="5" type="line"/>
      <point x="46" y="695" type="line"/>
      <point x="70" y="695" type="line"/>
      <point x="70" y="570" type="line"/>
      <point x="181" y="570" type="line"/>
      <point x="181" y="550" type="line"/>
    </contour>
  </outline>
</glyph>
<glyph name="u" format="1">
  <advance width="285"/>
  <unicode hex="0075"/>
  <outline>
    <contour>
      <point x="142" y="-3" type="qcurve" smooth="yes"/>
      <point x="44" y="-3"/>
      <point x="44" y="114" type="qcurve" smooth="yes"/>
      <point x="44" y="569" type="line"/>
      <point x="67" y="569" type="line"/>
      <point x="67" y="112" type="line" smooth="yes"/>
      <point x="67" y="12"/>
      <point x="217" y="12"/>
      <point x="217" y="112" type="qcurve" smooth="yes"/>
      <point x="217" y="569" type="line"/>
      <point x="241" y="569" type="line"/>
      <point x="241" y="114" type="line" smooth="yes"/>
      <point x="241" y="-3"/>
    </contour>
  </outline>
</glyph>
<glyph name="v" format="1">
  <advance width="219"/>
  <unicode hex="0076"/>
  <outline>
    <contour>
      <point x="121" y="5" type="line"/>
      <point x="102" y="5" type="line"/>
      <point x="15" y="567" type="line"/>
      <point x="39" y="567" type="line"/>
      <point x="111" y="92" type="line"/>
      <point x="184" y="567" type="line"/>
      <point x="208" y="567" type="line"/>
    </contour>
  </outline>
</glyph>
<glyph name="w" format="1">
  <advance width="459"/>
  <unicode hex="0077"/>
  <outline>
    <contour>
      <point x="316" y="-3" type="qcurve" smooth="yes"/>
      <point x="248" y="-1"/>
      <point x="239" y="90" type="qcurve" smooth="yes"/>
      <point x="238" y="93"/>
      <point x="235" y="131" type="qcurve"/>
      <point x="225" y="131" type="line"/>
      <point x="220" y="82"/>
      <point x="211" y="57" type="qcurve" smooth="yes"/>
      <point x="190" y="-2"/>
      <point x="142" y="-3" type="qcurve" smooth="yes"/>
      <point x="93" y="-4"/>
      <point x="44" y="55"/>
      <point x="44" y="114" type="qcurve" smooth="yes"/>
      <point x="44" y="569" type="line"/>
      <point x="67" y="569" type="line"/>
      <point x="67" y="112" type="line" smooth="yes"/>
      <point x="67" y="12"/>
      <point x="142" y="12" type="qcurve" smooth="yes"/>
      <point x="183" y="12"/>
      <point x="205" y="100" type="qcurve" smooth="yes"/>
      <point x="217" y="150"/>
      <point x="217" y="221" type="qcurve" smooth="yes"/>
      <point x="217" y="569" type="line"/>
      <point x="241" y="569" type="line"/>
      <point x="241" y="221" type="line" smooth="yes"/>
      <point x="241" y="153"/>
      <point x="252" y="98" type="qcurve"/>
      <point x="272" y="12"/>
      <point x="316" y="12" type="qcurve" smooth="yes"/>
      <point x="391" y="12"/>
      <point x="391" y="112" type="qcurve" smooth="yes"/>
      <point x="391" y="569" type="line"/>
      <point x="415" y="569" type="line"/>
      <point x="415" y="114" type="line" smooth="yes"/>
      <point x="415" y="-6"/>
    </contour>
  </outline>
</glyph>
<glyph name="x" format="1">
  <advance width="245"/>
  <unicode hex="0078"/>
  <outline>
    <contour>
      <point x="208" y="7" type="line"/>
      <point x="125" y="273" type="line"/>
      <point x="46" y="7" type="line"/>
      <point x="21" y="7" type="line"/>
      <point x="109" y="296" type="line"/>
      <point x="32" y="565" type="line"/>
      <point x="54" y="565" type="line"/>
      <point x="124" y="332" type="line"/>
      <point x="197" y="565" type="line"/>
      <point x="221" y="565" type="line"/>
      <point x="143" y="304" type="line"/>
      <point x="230" y="7" type="line"/>
    </contour>
  </outline>
</glyph>
<glyph name="y" format="1">
  <advance width="285"/>
  <unicode hex="0079"/>
  <outline>
    <contour>
      <point x="242" y="568" type="line"/>
      <point x="242" y="-110" type="line" smooth="yes"/>
      <point x="242" y="-226"/>
      <point x="144" y="-226" type="qcurve" smooth="yes"/>
      <point x="44" y="-226"/>
      <point x="44" y="-110" type="qcurve" smooth="yes"/>
      <point x="44" y="-53" type="line"/>
      <point x="69" y="-53" type="line"/>
      <point x="69" y="-113" type="line" smooth="yes"/>
      <point x="69" y="-163"/>
      <point x="82" y="-183" type="qcurve"/>
      <point x="98" y="-211"/>
      <point x="144" y="-211" type="qcurve" smooth="yes"/>
      <point x="219" y="-211"/>
      <point x="219" y="-113" type="qcurve" smooth="yes"/>
      <point x="219" y="22" type="line"/>
      <point x="187" y="-3"/>
      <point x="142" y="-3" type="qcurve" smooth="yes"/>
      <point x="44" y="-3"/>
      <point x="44" y="114" type="qcurve" smooth="yes"/>
      <point x="44" y="569" type="line"/>
      <point x="67" y="569" type="line"/>
      <point x="67" y="112" type="line" smooth="yes"/>
      <point x="67" y="12"/>
      <point x="217" y="12"/>
      <point x="217" y="112" type="qcurve" smooth="yes"/>
      <point x="217" y="569" type="line"/>
      <point x="241" y="569" type="line"/>
    </contour>
  </outline>
</glyph>
<glyph name="z" format="1">
  <advance width="245"/>
  <unicode hex="007A"/>
  <outline>
    <contour>
      <point x="40" y="21" type="line"/>
      <point x="222" y="21" type="line"/>
      <point x="222" y="5" type="line"/>
      <point x="14" y="5" type="line"/>
      <point x="205" y="552" type="line"/>
      <point x="23" y="552" type="line"/>
      <point x="23" y="570" type="line"/>
      <point x="232" y="570" type="line"/>
    </contour>
  </outline>
</glyph>
<glyph name="braceleft" format="1">
  <advance width="270"/>
  <unicode hex="007B"/>
  <outline>
    <contour>
      <point x="158" y="-195" type="qcurve" smooth="yes"/>
      <point x="134" y="-164"/>
      <point x="137" y="-110" type="qcurve" smooth="yes"/>
      <point x="160" y="308" type="line"/>
      <point x="39" y="345" type="line"/>
      <point x="39" y="365" type="line"/>
      <point x="160" y="403" type="line"/>
      <point x="137" y="745" type="line"/>
      <point x="132" y="799"/>
      <point x="158" y="829" type="qcurve"/>
      <point x="180" y="856"/>
      <point x="230" y="861" type="qcurve"/>
      <point x="230" y="844" type="line"/>
      <point x="185" y="838"/>
      <point x="172" y="814" type="qcurve" smooth="yes"/>
      <point x="158" y="788"/>
      <point x="161" y="746" type="qcurve" smooth="yes"/>
      <point x="182" y="387" type="line"/>
      <point x="89" y="355" type="line"/>
      <point x="182" y="323" type="line"/>
      <point x="161" y="-113" type="line" smooth="yes"/>
      <point x="159" y="-154"/>
      <point x="174" y="-180" type="qcurve" smooth="yes"/>
      <point x="189" y="-208"/>
      <point x="230" y="-211" type="qcurve"/>
      <point x="230" y="-226" type="line"/>
      <point x="179" y="-223"/>
    </contour>
  </outline>
</glyph>
<glyph name="bar" format="1">
  <advance width="560"/>
  <unicode hex="007C"/>
  <outline>
    <contour>
      <point x="265" y="-259" type="line"/>
      <point x="265" y="850" type="line"/>
      <point x="295" y="850" type="line"/>
      <point x="295" y="-259" type="line"/>
    </contour>
  </outline>
</glyph>
<glyph name="braceright" format="1">
  <advance width="270"/>
  <unicode hex="007D"/>
  <outline>
    <contour>
      <point x="109" y="308" type="line"/>
      <point x="131" y="-110" type="line" smooth="yes"/>
      <point x="137" y="-220"/>
      <point x="39" y="-226" type="qcurve"/>
      <point x="39" y="-211" type="line"/>
      <point x="82" y="-206"/>
      <point x="95" y="-182" type="qcurve" smooth="yes"/>
      <point x="108" y="-156"/>
      <point x="107" y="-113" type="qcurve"/>
      <point x="86" y="323" type="line"/>
      <point x="181" y="355" type="line"/>
      <point x="86" y="387" type="line"/>
      <point x="107" y="746" type="line" smooth="yes"/>
      <point x="110" y="791"/>
      <point x="96" y="814" type="qcurve" smooth="yes"/>
      <point x="81" y="838"/>
      <point x="39" y="844" type="qcurve"/>
      <point x="39" y="861" type="line"/>
      <point x="139" y="853"/>
      <point x="131" y="745" type="qcurve"/>
      <point x="109" y="403" type="line"/>
      <point x="230" y="365" type="line"/>
      <point x="230" y="345" type="line"/>
    </contour>
  </outline>
</glyph>
<glyph name="asciitilde" format="1">
  <advance width="491"/>
  <unicode hex="007E"/>
  <outline>
    <contour>
      <point x="450" y="387" type="line"/>
      <point x="385" y="337"/>
      <point x="339" y="337" type="qcurve" smooth="yes"/>
      <point x="305" y="337"/>
      <point x="234" y="384" type="qcurve"/>
      <point x="186" y="418"/>
      <point x="161" y="421" type="qcurve" smooth="yes"/>
      <point x="116" y="427"/>
      <point x="36" y="367" type="qcurve"/>
      <point x="40" y="393" type="line"/>
      <point x="104" y="442"/>
      <point x="151" y="444" type="qcurve" smooth="yes"/>
      <point x="180" y="445"/>
      <point x="240" y="404" type="qcurve" smooth="yes"/>
      <point x="300" y="364"/>
      <point x="330" y="359" type="qcurve"/>
      <point x="376" y="354"/>
      <point x="453" y="411" type="qcurve"/>
    </contour>
  </outline>
</glyph>
<glyph name="exclamdown" format="1">
  <advance width="142"/>
  <unicode hex="00A1"/>
  <outline>
    <contour>
      <point x="61" y="585" type="line"/>
      <point x="61" y="612" type="line"/>
      <point x="82" y="612" type="line"/>
      <point x="82" y="585" type="line"/>
    </contour>
    <contour>
      <point x="60" y="-183" type="line"/>
      <point x="60" y="491" type="line"/>
      <point x="84" y="491" type="line"/>
      <point x="84" y="-183" type="line"/>
    </contour>
  </outline>
</glyph>
<glyph name="cent" format="1">
  <advance width="275"/>
  <unicode hex="00A2"/>
  <outline>
    <contour>
      <point x="155" y="111" type="qcurve"/>
      <point x="155" y="46" type="line"/>
      <point x="131" y="46" type="line"/>
      <point x="131" y="111" type="line"/>
      <point x="44" y="120"/>
      <point x="44" y="226" type="qcurve" smooth="yes"/>
      <point x="44" y="561" type="line" smooth="yes"/>
      <point x="44" y="668"/>
      <point x="131" y="677" type="qcurve"/>
      <point x="131" y="761" type="line"/>
      <point x="155" y="761" type="line"/>
      <point x="155" y="677" type="line"/>
      <point x="241" y="668"/>
      <point x="241" y="561" type="qcurve" smooth="yes"/>
      <point x="241" y="509" type="line"/>
      <point x="217" y="509" type="line"/>
      <point x="217" y="563" type="line" smooth="yes"/>
      <point x="217" y="650"/>
      <point x="155" y="662" type="qcurve"/>
      <point x="155" y="126" type="line"/>
      <point x="217" y="137"/>
      <point x="217" y="224" type="qcurve" smooth="yes"/>
      <point x="217" y="283" type="line"/>
      <point x="241" y="283" type="line"/>
      <point x="241" y="226" type="line" smooth="yes"/>
      <point x="241" y="120"/>
    </contour>
    <contour>
      <point x="131" y="662" type="line"/>
      <point x="67" y="649"/>
      <point x="67" y="563" type="qcurve" smooth="yes"/>
      <point x="67" y="224" type="line" smooth="yes"/>
      <point x="67" y="135"/>
      <point x="131" y="125" type="qcurve"/>
    </contour>
  </outline>
</glyph>
<glyph name="sterling" format="1">
  <advance width="246"/>
  <unicode hex="00A3"/>
  <outline>
    <contour>
      <point x="46" y="5" type="line"/>
      <point x="46" y="327" type="line"/>
      <point x="3" y="327" type="line"/>
      <point x="3" y="352" type="line"/>
      <point x="46" y="352" type="line"/>
      <point x="46" y="467" type="line"/>
      <point x="3" y="467" type="line"/>
      <point x="3" y="491" type="line"/>
      <point x="46" y="491" type="line"/>
      <point x="46" y="799" type="line"/>
      <point x="70" y="799" type="line"/>
      <point x="70" y="491" type="line"/>
      <point x="204" y="491" type="line"/>
      <point x="204" y="467" type="line"/>
      <point x="70" y="467" type="line"/>
      <point x="70" y="352" type="line"/>
      <point x="204" y="352" type="line"/>
      <point x="204" y="327" type="line"/>
      <point x="70" y="327" type="line"/>
      <point x="70" y="21" type="line"/>
      <point x="241" y="21" type="line"/>
      <point x="241" y="5" type="line"/>
    </contour>
  </outline>
</glyph>
<glyph name="currency" format="1">
  <advance width="295"/>
  <unicode hex="00A4"/>
  <outline>
    <contour>
      <point x="68" y="-3"/>
      <point x="68" y="114" type="qcurve" smooth="yes"/>
      <point x="68" y="346" type="line"/>
      <point x="8" y="346" type="line"/>
      <point x="8" y="371" type="line"/>
      <point x="68" y="371" type="line"/>
      <point x="68" y="485" type="line"/>
      <point x="36" y="485" type="line"/>
      <point x="36" y="510" type="line"/>
      <point x="68" y="510" type="line"/>
      <point x="68" y="690" type="line" smooth="yes"/>
      <point x="68" y="806"/>
      <point x="266" y="806"/>
      <point x="266" y="690" type="qcurve" smooth="yes"/>
      <point x="266" y="637" type="line"/>
      <point x="242" y="637" type="line"/>
      <point x="242" y="692" type="line" smooth="yes"/>
      <point x="242" y="790"/>
      <point x="92" y="790"/>
      <point x="92" y="692" type="qcurve" smooth="yes"/>
      <point x="92" y="510" type="line"/>
      <point x="232" y="510" type="line"/>
      <point x="232" y="485" type="line"/>
      <point x="92" y="485" type="line"/>
      <point x="92" y="371" type="line"/>
      <point x="205" y="371" type="line"/>
      <point x="205" y="346" type="line"/>
      <point x="92" y="346" type="line"/>
      <point x="92" y="112" type="line" smooth="yes"/>
      <point x="92" y="12"/>
      <point x="242" y="12"/>
      <point x="242" y="112" type="qcurve" smooth="yes"/>
      <point x="242" y="171" type="line"/>
      <point x="266" y="171" type="line"/>
      <point x="266" y="114" type="line" smooth="yes"/>
      <point x="266" y="-3"/>
    </contour>
  </outline>
</glyph>
<glyph name="yen" format="1">
  <advance width="263"/>
  <unicode hex="00A5"/>
  <outline>
    <contour>
      <point x="144" y="413" type="line"/>
      <point x="144" y="361" type="line"/>
      <point x="234" y="361" type="line"/>
      <point x="234" y="336" type="line"/>
      <point x="144" y="336" type="line"/>
      <point x="144" y="249" type="line"/>
      <point x="234" y="249" type="line"/>
      <point x="234" y="224" type="line"/>
      <point x="144" y="224" type="line"/>
      <point x="144" y="5" type="line"/>
      <point x="120" y="5" type="line"/>
      <point x="120" y="224" type="line"/>
      <point x="32" y="224" type="line"/>
      <point x="32" y="249" type="line"/>
      <point x="120" y="249" type="line"/>
      <point x="120" y="336" type="line"/>
      <point x="32" y="336" type="line"/>
      <point x="32" y="361" type="line"/>
      <point x="120" y="361" type="line"/>
      <point x="120" y="415" type="line"/>
      <point x="10" y="799" type="line"/>
      <point x="36" y="799" type="line"/>
      <point x="133" y="441" type="line"/>
      <point x="233" y="799" type="line"/>
      <point x="256" y="799" type="line"/>
    </contour>
  </outline>
</glyph>
<glyph name="brokenbar" format="1">
  <advance width="244"/>
  <unicode hex="00A6"/>
  <outline>
    <contour>
      <point x="106" y="374" type="line"/>
      <point x="106" y="777" type="line"/>
      <point x="136" y="777" type="line"/>
      <point x="136" y="374" type="line"/>
    </contour>
    <contour>
      <point x="106" y="-186" type="line"/>
      <point x="106" y="217" type="line"/>
      <point x="136" y="217" type="line"/>
      <point x="136" y="-186" type="line"/>
    </contour>
  </outline>
</glyph>
<glyph name="section" format="1">
  <advance width="285"/>
  <unicode hex="00A7"/>
  <outline>
    <contour>
      <point x="241" y="-9" type="line"/>
      <point x="241" y="-61" type="line" smooth="yes"/>
      <point x="241" y="-178"/>
      <point x="144" y="-178" type="qcurve" smooth="yes"/>
      <point x="44" y="-178"/>
      <point x="44" y="-61" type="qcurve" smooth="yes"/>
      <point x="44" y="-9" type="line"/>
      <point x="69" y="-9" type="line"/>
      <point x="69" y="-63" type="line" smooth="yes"/>
      <point x="69" y="-161"/>
      <point x="219" y="-161"/>
      <point x="219" y="-63" type="qcurve" smooth="yes"/>
      <point x="219" y="44" type="line" smooth="yes"/>
      <point x="219" y="124"/>
      <point x="144" y="124" type="qcurve" smooth="yes"/>
      <point x="44" y="124"/>
      <point x="44" y="245" type="qcurve" smooth="yes"/>
      <point x="44" y="290" type="line" smooth="yes"/>
      <point x="44" y="359"/>
      <point x="100" y="386" type="qcurve"/>
      <point x="51" y="410"/>
      <point x="44" y="470" type="qcurve"/>
      <point x="44" y="580" type="line" smooth="yes"/>
      <point x="44" y="696"/>
      <point x="141" y="696" type="qcurve" smooth="yes"/>
      <point x="241" y="696"/>
      <point x="241" y="580" type="qcurve" smooth="yes"/>
      <point x="241" y="527" type="line"/>
      <point x="217" y="527" type="line"/>
      <point x="217" y="582" type="line" smooth="yes"/>
      <point x="217" y="680"/>
      <point x="141" y="680" type="qcurve" smooth="yes"/>
      <point x="67" y="680"/>
      <point x="67" y="582" type="qcurve" smooth="yes"/>
      <point x="67" y="475" type="line" smooth="yes"/>
      <point x="67" y="396"/>
      <point x="142" y="396" type="qcurve" smooth="yes"/>
      <point x="241" y="396"/>
      <point x="241" y="275" type="qcurve" smooth="yes"/>
      <point x="241" y="229" type="line" smooth="yes"/>
      <point x="241" y="158"/>
      <point x="184" y="134" type="qcurve"/>
      <point x="234" y="110"/>
      <point x="240" y="49" type="qcurve"/>
      <point x="241" y="49" type="line"/>
      <point x="241" y="39" type="line" smooth="yes"/>
      <point x="241" y="35"/>
      <point x="242" y="32" type="qcurve"/>
      <point x="242" y="21" type="line"/>
    </contour>
    <contour>
      <point x="217" y="276" type="line"/>
      <point x="216" y="276" type="line"/>
      <point x="216" y="281" type="line" smooth="yes"/>
      <point x="216" y="322"/>
      <point x="205" y="346" type="qcurve"/>
      <point x="187" y="375"/>
      <point x="144" y="375" type="qcurve" smooth="yes"/>
      <point x="69" y="375"/>
      <point x="69" y="276" type="qcurve" smooth="yes"/>
      <point x="69" y="239" type="line" smooth="yes"/>
      <point x="69" y="192"/>
      <point x="80" y="173" type="qcurve" smooth="yes"/>
      <point x="98" y="144"/>
      <point x="141" y="144" type="qcurve" smooth="yes"/>
      <point x="217" y="144"/>
      <point x="217" y="242" type="qcurve" smooth="yes"/>
    </contour>
  </outline>
</glyph>
<glyph name="dieresis" format="1">
  <advance width="174"/>
  <unicode hex="00A8"/>
  <outline>
    <contour>
      <point x="125" y="692" type="line"/>
      <point x="125" y="719" type="line"/>
      <point x="147" y="719" type="line"/>
      <point x="147" y="692" type="line"/>
    </contour>
    <contour>
      <point x="26" y="692" type="line"/>
      <point x="26" y="719" type="line"/>
      <point x="49" y="719" type="line"/>
      <point x="49" y="692" type="line"/>
    </contour>
  </outline>
</glyph>
<glyph name="copyright" format="1">
  <advance width="932"/>
  <unicode hex="00A9"/>
  <outline>
    <contour>
      <point x="466" y="32" type="qcurve" smooth="yes"/>
      <point x="311" y="32"/>
      <point x="230" y="132" type="qcurve" smooth="yes"/>
      <point x="155" y="225"/>
      <point x="155" y="392" type="qcurve" smooth="yes"/>
      <point x="155" y="558"/>
      <point x="226" y="650" type="qcurve" smooth="yes"/>
      <point x="306" y="752"/>
      <point x="466" y="752" type="qcurve" smooth="yes"/>
      <point x="777" y="752"/>
      <point x="777" y="392" type="qcurve" smooth="yes"/>
      <point x="777" y="227"/>
      <point x="706" y="135" type="qcurve" smooth="yes"/>
      <point x="627" y="32"/>
    </contour>
    <contour>
      <point x="180" y="727"/>
      <point x="180" y="392" type="qcurve" smooth="yes"/>
      <point x="180" y="242"/>
      <point x="246" y="154" type="qcurve" smooth="yes"/>
      <point x="320" y="56"/>
      <point x="466" y="56" type="qcurve" smooth="yes"/>
      <point x="752" y="56"/>
      <point x="752" y="392" type="qcurve" smooth="yes"/>
      <point x="752" y="727"/>
    </contour>
    <contour>
      <point x="465" y="136" type="qcurve" smooth="yes"/>
      <point x="367" y="136"/>
      <point x="367" y="252" type="qcurve" smooth="yes"/>
      <point x="367" y="549" type="line" smooth="yes"/>
      <point x="367" y="666"/>
      <point x="465" y="666" type="qcurve" smooth="yes"/>
      <point x="565" y="666"/>
      <point x="565" y="549" type="qcurve" smooth="yes"/>
      <point x="565" y="497" type="line"/>
      <point x="541" y="497" type="line"/>
      <point x="541" y="551" type="line" smooth="yes"/>
      <point x="541" y="650"/>
      <point x="465" y="650" type="qcurve" smooth="yes"/>
      <point x="391" y="650"/>
      <point x="391" y="551" type="qcurve" smooth="yes"/>
      <point x="391" y="250" type="line" smooth="yes"/>
      <point x="391" y="151"/>
      <point x="465" y="151" type="qcurve" smooth="yes"/>
      <point x="541" y="151"/>
      <point x="541" y="250" type="qcurve" smooth="yes"/>
      <point x="541" y="309" type="line"/>
      <point x="565" y="309" type="line"/>
      <point x="565" y="252" type="line" smooth="yes"/>
      <point x="565" y="136"/>
    </contour>
  </outline>
</glyph>
<glyph name="ordfeminine" format="1">
  <advance width="285"/>
  <unicode hex="00AA"/>
  <outline>
    <contour>
      <point x="239" y="426" type="qcurve"/>
      <point x="239" y="345" type="line"/>
      <point x="215" y="345" type="line"/>
      <point x="215" y="367" type="line"/>
      <point x="184" y="341"/>
      <point x="141" y="341" type="qcurve" smooth="yes"/>
      <point x="44" y="341"/>
      <point x="44" y="459" type="qcurve" smooth="yes"/>
      <point x="44" y="499" type="line" smooth="yes"/>
      <point x="44" y="615"/>
      <point x="141" y="615" type="qcurve" smooth="yes"/>
      <point x="186" y="615"/>
      <point x="217" y="589" type="qcurve"/>
      <point x="217" y="681" type="line" smooth="yes"/>
      <point x="217" y="779"/>
      <point x="141" y="779" type="qcurve" smooth="yes"/>
      <point x="67" y="779"/>
      <point x="67" y="681" type="qcurve" smooth="yes"/>
      <point x="67" y="676" type="line"/>
      <point x="44" y="676" type="line"/>
      <point x="44" y="679" type="line" smooth="yes"/>
      <point x="44" y="796"/>
      <point x="141" y="796" type="qcurve" smooth="yes"/>
      <point x="241" y="796"/>
      <point x="241" y="679" type="qcurve" smooth="yes"/>
      <point x="241" y="459" type="line" smooth="yes"/>
      <point x="241" y="444"/>
    </contour>
    <contour>
      <point x="215" y="527" type="line"/>
      <point x="209" y="599"/>
      <point x="141" y="599" type="qcurve" smooth="yes"/>
      <point x="67" y="599"/>
      <point x="67" y="501" type="qcurve" smooth="yes"/>
      <point x="67" y="456" type="line" smooth="yes"/>
      <point x="67" y="357"/>
      <point x="141" y="357" type="qcurve" smooth="yes"/>
      <point x="206" y="357"/>
      <point x="215" y="429" type="qcurve"/>
    </contour>
  </outline>
</glyph>
<glyph name="guillemotleft" format="1">
  <advance width="482"/>
  <unicode hex="00AB"/>
  <outline>
    <contour>
      <point x="210" y="324" type="line"/>
      <point x="210" y="343" type="line"/>
      <point x="427" y="516" type="line"/>
      <point x="427" y="489" type="line"/>
      <point x="239" y="334" type="line"/>
      <point x="427" y="177" type="line"/>
      <point x="427" y="151" type="line"/>
    </contour>
    <contour>
      <point x="61" y="324" type="line"/>
      <point x="61" y="343" type="line"/>
      <point x="280" y="516" type="line"/>
      <point x="280" y="489" type="line"/>
      <point x="92" y="334" type="line"/>
      <point x="280" y="177" type="line"/>
      <point x="280" y="151" type="line"/>
    </contour>
  </outline>
</glyph>
<glyph name="logicalnot" format="1">
  <advance width="497"/>
  <unicode hex="00AC"/>
  <outline>
    <contour>
      <point x="434" y="269" type="line"/>
      <point x="434" y="361" type="line"/>
      <point x="41" y="361" type="line"/>
      <point x="41" y="385" type="line"/>
      <point x="456" y="385" type="line"/>
      <point x="456" y="269" type="line"/>
    </contour>
  </outline>
</glyph>
<glyph name="registered" format="1">
  <advance width="932"/>
  <unicode hex="00AE"/>
  <outline>
    <contour>
      <point x="466" y="32" type="qcurve" smooth="yes"/>
      <point x="311" y="32"/>
      <point x="230" y="132" type="qcurve" smooth="yes"/>
      <point x="155" y="225"/>
      <point x="155" y="392" type="qcurve" smooth="yes"/>
      <point x="155" y="558"/>
      <point x="226" y="650" type="qcurve" smooth="yes"/>
      <point x="306" y="752"/>
      <point x="466" y="752" type="qcurve" smooth="yes"/>
      <point x="777" y="752"/>
      <point x="777" y="392" type="qcurve" smooth="yes"/>
      <point x="777" y="227"/>
      <point x="706" y="135" type="qcurve" smooth="yes"/>
      <point x="627" y="32"/>
    </contour>
    <contour>
      <point x="180" y="727"/>
      <point x="180" y="392" type="qcurve" smooth="yes"/>
      <point x="180" y="242"/>
      <point x="246" y="154" type="qcurve" smooth="yes"/>
      <point x="320" y="56"/>
      <point x="466" y="56" type="qcurve" smooth="yes"/>
      <point x="752" y="56"/>
      <point x="752" y="392" type="qcurve" smooth="yes"/>
      <point x="752" y="727"/>
    </contour>
    <contour>
      <point x="572" y="250" type="line"/>
      <point x="572" y="136" type="line"/>
      <point x="550" y="136" type="line"/>
      <point x="550" y="299" type="line" smooth="yes"/>
      <point x="550" y="348"/>
      <point x="512" y="392"/>
      <point x="464" y="392" type="qcurve" smooth="yes"/>
      <point x="400" y="392" type="line"/>
      <point x="400" y="136" type="line"/>
      <point x="376" y="136" type="line"/>
      <point x="376" y="651" type="line"/>
      <point x="472" y="651" type="line" smooth="yes"/>
      <point x="535" y="651"/>
      <point x="556" y="622" type="qcurve" smooth="yes"/>
      <point x="574" y="596"/>
      <point x="574" y="531" type="qcurve" smooth="yes"/>
      <point x="574" y="502" type="line" smooth="yes"/>
      <point x="574" y="425"/>
      <point x="504" y="406" type="qcurve"/>
      <point x="574" y="381"/>
      <point x="574" y="301" type="qcurve" smooth="yes"/>
      <point x="574" y="250" type="line"/>
    </contour>
    <contour>
      <point x="550" y="542" type="line" smooth="yes"/>
      <point x="550" y="596"/>
      <point x="534" y="613" type="qcurve" smooth="yes"/>
      <point x="514" y="634"/>
      <point x="464" y="634" type="qcurve" smooth="yes"/>
      <point x="400" y="634" type="line"/>
      <point x="400" y="412" type="line"/>
      <point x="464" y="412" type="line" smooth="yes"/>
      <point x="515" y="412"/>
      <point x="534" y="434" type="qcurve" smooth="yes"/>
      <point x="550" y="453"/>
      <point x="550" y="505" type="qcurve" smooth="yes"/>
    </contour>
  </outline>
</glyph>
<glyph name="macron" format="1">
  <advance width="266"/>
  <unicode hex="00AF"/>
  <outline>
    <contour>
      <point x="52" y="896" type="line"/>
      <point x="52" y="920" type="line"/>
      <point x="214" y="920" type="line"/>
      <point x="214" y="896" type="line"/>
    </contour>
  </outline>
</glyph>
<glyph name="degree" format="1">
  <advance width="369"/>
  <unicode hex="00B0"/>
  <outline>
    <contour>
      <point x="184" y="501" type="qcurve" smooth="yes"/>
      <point x="125" y="501"/>
      <point x="82" y="542" type="qcurve"/>
      <point x="42" y="584"/>
      <point x="42" y="704"/>
      <point x="84" y="746" type="qcurve"/>
      <point x="126" y="786"/>
      <point x="244" y="786"/>
      <point x="285" y="744" type="qcurve" smooth="yes"/>
      <point x="326" y="701"/>
      <point x="326" y="644" type="qcurve" smooth="yes"/>
      <point x="326" y="585"/>
      <point x="284" y="543" type="qcurve"/>
      <point x="240" y="501"/>
    </contour>
    <contour>
      <point x="185" y="769" type="qcurve" smooth="yes"/>
      <point x="131" y="769"/>
      <point x="96" y="733" type="qcurve" smooth="yes"/>
      <point x="60" y="697"/>
      <point x="60" y="644" type="qcurve" smooth="yes"/>
      <point x="60" y="590"/>
      <point x="96" y="554" type="qcurve" smooth="yes"/>
      <point x="131" y="519"/>
      <point x="185" y="519" type="qcurve" smooth="yes"/>
      <point x="238" y="519"/>
      <point x="274" y="556" type="qcurve" smooth="yes"/>
      <point x="309" y="593"/>
      <point x="309" y="695"/>
      <point x="272" y="732" type="qcurve" smooth="yes"/>
      <point x="236" y="769"/>
    </contour>
  </outline>
</glyph>
<glyph name="plusminus" format="1">
  <advance width="399"/>
  <unicode hex="00B1"/>
  <outline>
    <contour>
      <point x="214" y="329" type="line"/>
      <point x="214" y="180" type="line"/>
      <point x="192" y="180" type="line"/>
      <point x="192" y="329" type="line"/>
      <point x="44" y="329" type="line"/>
      <point x="44" y="350" type="line"/>
      <point x="192" y="350" type="line"/>
      <point x="192" y="497" type="line"/>
      <point x="214" y="497" type="line"/>
      <point x="214" y="350" type="line"/>
      <point x="362" y="350" type="line"/>
      <point x="362" y="329" type="line"/>
    </contour>
    <contour>
      <point x="44" y="105" type="line"/>
      <point x="44" y="126" type="line"/>
      <point x="362" y="126" type="line"/>
      <point x="362" y="105" type="line"/>
    </contour>
  </outline>
</glyph>
<glyph name="twosuperior" format="1">
  <advance width="229"/>
  <unicode hex="00B2"/>
  <outline>
    <contour>
      <point x="81" y="322" type="line"/>
      <point x="81" y="535" type="line" smooth="yes"/>
      <point x="81" y="592"/>
      <point x="135" y="596" type="qcurve" smooth="yes"/>
      <point x="154" y="598"/>
      <point x="172" y="604" type="qcurve"/>
      <point x="185" y="611"/>
      <point x="185" y="646" type="qcurve" smooth="yes"/>
      <point x="185" y="736" type="line" smooth="yes"/>
      <point x="185" y="758"/>
      <point x="178" y="776" type="qcurve"/>
      <point x="165" y="792"/>
      <point x="119" y="792"/>
      <point x="107" y="777" type="qcurve"/>
      <point x="100" y="764"/>
      <point x="100" y="736" type="qcurve" smooth="yes"/>
      <point x="100" y="701" type="line"/>
      <point x="81" y="701" type="line"/>
      <point x="81" y="735" type="line" smooth="yes"/>
      <point x="81" y="806"/>
      <point x="142" y="806" type="qcurve" smooth="yes"/>
      <point x="204" y="806"/>
      <point x="204" y="735" type="qcurve" smooth="yes"/>
      <point x="204" y="644" type="line" smooth="yes"/>
      <point x="204" y="595"/>
      <point x="177" y="586" type="qcurve"/>
      <point x="166" y="585"/>
      <point x="124" y="576" type="qcurve" smooth="yes"/>
      <point x="100" y="570"/>
      <point x="100" y="535" type="qcurve" smooth="yes"/>
      <point x="100" y="336" type="line"/>
      <point x="204" y="336" type="line"/>
      <point x="204" y="322" type="line"/>
    </contour>
  </outline>
</glyph>
<glyph name="threesuperior" format="1">
  <advance width="229"/>
  <unicode hex="00B3"/>
  <outline>
    <contour>
      <point x="142" y="315" type="qcurve" smooth="yes"/>
      <point x="81" y="315"/>
      <point x="81" y="387" type="qcurve" smooth="yes"/>
      <point x="81" y="424" type="line"/>
      <point x="100" y="424" type="line"/>
      <point x="100" y="386" type="line" smooth="yes"/>
      <point x="100" y="330"/>
      <point x="142" y="330" type="qcurve" smooth="yes"/>
      <point x="185" y="330"/>
      <point x="185" y="386" type="qcurve" smooth="yes"/>
      <point x="185" y="536" type="line" smooth="yes"/>
      <point x="185" y="568"/>
      <point x="176" y="578" type="qcurve" smooth="yes"/>
      <point x="167" y="589"/>
      <point x="136" y="589" type="qcurve" smooth="yes"/>
      <point x="117" y="589" type="line"/>
      <point x="117" y="602" type="line"/>
      <point x="136" y="602" type="line" smooth="yes"/>
      <point x="164" y="602"/>
      <point x="178" y="616" type="qcurve"/>
      <point x="185" y="631"/>
      <point x="185" y="657" type="qcurve" smooth="yes"/>
      <point x="185" y="735" type="line" smooth="yes"/>
      <point x="185" y="756"/>
      <point x="178" y="774" type="qcurve"/>
      <point x="164" y="791"/>
      <point x="142" y="791" type="qcurve" smooth="yes"/>
      <point x="117" y="791"/>
      <point x="107" y="775" type="qcurve" smooth="yes"/>
      <point x="100" y="764"/>
      <point x="100" y="735" type="qcurve" smooth="yes"/>
      <point x="100" y="700" type="line"/>
      <point x="81" y="700" type="line"/>
      <point x="81" y="732" type="line" smooth="yes"/>
      <point x="81" y="805"/>
      <point x="142" y="805" type="qcurve" smooth="yes"/>
      <point x="204" y="805"/>
      <point x="204" y="732" type="qcurve" smooth="yes"/>
      <point x="204" y="655" type="line" smooth="yes"/>
      <point x="204" y="614"/>
      <point x="170" y="596" type="qcurve"/>
      <point x="204" y="580"/>
      <point x="204" y="537" type="qcurve" smooth="yes"/>
      <point x="204" y="387" type="line" smooth="yes"/>
      <point x="204" y="315"/>
    </contour>
  </outline>
</glyph>
<glyph name="acute" format="1">
  <advance width="150"/>
  <unicode hex="00B4"/>
  <outline>
    <contour>
      <point x="57" y="654" type="line"/>
      <point x="32" y="667" type="line"/>
      <point x="89" y="782" type="line"/>
      <point x="115" y="769" type="line"/>
    </contour>
  </outline>
</glyph>
<glyph name="paragraph" format="1">
  <advance width="366"/>
  <unicode hex="00B6"/>
  <outline>
    <contour>
      <point x="309" y="777" type="line"/>
      <point x="309" y="-55" type="line"/>
      <point x="285" y="-55" type="line"/>
      <point x="285" y="777" type="line"/>
      <point x="225" y="777" type="line"/>
      <point x="225" y="-55" type="line"/>
      <point x="201" y="-55" type="line"/>
      <point x="201" y="457" type="line"/>
      <point x="129" y="457" type="line" smooth="yes"/>
      <point x="27" y="457"/>
      <point x="27" y="562" type="qcurve" smooth="yes"/>
      <point x="27" y="679" type="line" smooth="yes"/>
      <point x="27" y="744"/>
      <point x="45" y="769" type="qcurve" smooth="yes"/>
      <point x="68" y="799"/>
      <point x="129" y="799" type="qcurve" smooth="yes"/>
      <point x="339" y="799" type="line"/>
      <point x="339" y="777" type="line"/>
    </contour>
  </outline>
</glyph>
<glyph name="periodcentered" format="1">
  <advance width="426"/>
  <unicode hex="00B7"/>
  <outline>
    <contour>
      <point x="336" y="352" type="line"/>
      <point x="302" y="386" type="line"/>
      <point x="262" y="350"/>
      <point x="207" y="350" type="qcurve" smooth="yes"/>
      <point x="160" y="350"/>
      <point x="117" y="382" type="qcurve"/>
      <point x="87" y="352" type="line"/>
      <point x="72" y="366" type="line"/>
      <point x="102" y="396" type="line"/>
      <point x="66" y="436"/>
      <point x="66" y="492" type="qcurve" smooth="yes"/>
      <point x="66" y="546"/>
      <point x="102" y="586" type="qcurve"/>
      <point x="72" y="615" type="line"/>
      <point x="87" y="630" type="line"/>
      <point x="117" y="600" type="line"/>
      <point x="160" y="635"/>
      <point x="209" y="635" type="qcurve" smooth="yes"/>
      <point x="264" y="635"/>
      <point x="304" y="598" type="qcurve"/>
      <point x="336" y="630" type="line"/>
      <point x="350" y="615" type="line"/>
      <point x="318" y="582" type="line"/>
      <point x="350" y="541"/>
      <point x="350" y="492" type="qcurve" smooth="yes"/>
      <point x="350" y="441"/>
      <point x="317" y="401" type="qcurve"/>
      <point x="350" y="366" type="line"/>
    </contour>
    <contour>
      <point x="209" y="616" type="qcurve" smooth="yes"/>
      <point x="156" y="616"/>
      <point x="84" y="544"/>
      <point x="84" y="492" type="qcurve" smooth="yes"/>
      <point x="84" y="440"/>
      <point x="120" y="402" type="qcurve"/>
      <point x="158" y="366"/>
      <point x="209" y="366" type="qcurve" smooth="yes"/>
      <point x="262" y="366"/>
      <point x="297" y="402" type="qcurve"/>
      <point x="332" y="440"/>
      <point x="332" y="492" type="qcurve" smooth="yes"/>
      <point x="332" y="546"/>
      <point x="296" y="580" type="qcurve"/>
      <point x="262" y="616"/>
    </contour>
  </outline>
</glyph>
<glyph name="cedilla" format="1">
  <advance width="249"/>
  <unicode hex="00B8"/>
  <outline>
    <contour>
      <point x="115" y="-179" type="line"/>
      <point x="115" y="-180" type="line"/>
      <point x="151" y="-180"/>
      <point x="151" y="-144" type="qcurve" smooth="yes"/>
      <point x="151" y="-106" type="line" smooth="yes"/>
      <point x="151" y="-76"/>
      <point x="124" y="-76" type="qcurve"/>
      <point x="118" y="-74"/>
      <point x="112" y="-76" type="qcurve"/>
      <point x="110" y="-76" type="line"/>
      <point x="110" y="0" type="line"/>
      <point x="122" y="0" type="line"/>
      <point x="122" y="-66" type="line"/>
      <point x="137" y="-66" type="line" smooth="yes"/>
      <point x="167" y="-66"/>
      <point x="167" y="-101" type="qcurve" smooth="yes"/>
      <point x="167" y="-144" type="line" smooth="yes"/>
      <point x="167" y="-190"/>
      <point x="120" y="-190" type="qcurve" smooth="yes"/>
      <point x="81" y="-190" type="line"/>
      <point x="81" y="-179" type="line"/>
    </contour>
  </outline>
</glyph>
<glyph name="onesuperior" format="1">
  <advance width="226"/>
  <unicode hex="00B9"/>
  <outline>
    <contour>
      <point x="115" y="320" type="line"/>
      <point x="115" y="337" type="line"/>
      <point x="131" y="337" type="line"/>
      <point x="131" y="776" type="line"/>
      <point x="110" y="768" type="line"/>
      <point x="110" y="785" type="line"/>
      <point x="150" y="800" type="line"/>
      <point x="150" y="337" type="line"/>
      <point x="166" y="337" type="line"/>
      <point x="166" y="320" type="line"/>
    </contour>
  </outline>
</glyph>
<glyph name="ordmasculine" format="1">
  <advance width="187"/>
  <unicode hex="00BA"/>
  <outline>
    <contour>
      <point x="94" y="476" type="qcurve" smooth="yes"/>
      <point x="26" y="476"/>
      <point x="26" y="549" type="qcurve" smooth="yes"/>
      <point x="26" y="736" type="line" smooth="yes"/>
      <point x="26" y="807"/>
      <point x="94" y="807" type="qcurve" smooth="yes"/>
      <point x="161" y="807"/>
      <point x="161" y="736" type="qcurve" smooth="yes"/>
      <point x="161" y="549" type="line" smooth="yes"/>
      <point x="161" y="476"/>
    </contour>
    <contour>
      <point x="140" y="736" type="line" smooth="yes"/>
      <point x="140" y="794"/>
      <point x="94" y="794" type="qcurve" smooth="yes"/>
      <point x="47" y="794"/>
      <point x="47" y="736" type="qcurve" smooth="yes"/>
      <point x="47" y="547" type="line" smooth="yes"/>
      <point x="47" y="490"/>
      <point x="94" y="490" type="qcurve" smooth="yes"/>
      <point x="140" y="490"/>
      <point x="140" y="547" type="qcurve" smooth="yes"/>
    </contour>
  </outline>
</glyph>
<glyph name="guillemotright" format="1">
  <advance width="482"/>
  <unicode hex="00BB"/>
  <outline>
    <contour>
      <point x="210" y="151" type="line"/>
      <point x="210" y="177" type="line"/>
      <point x="398" y="334" type="line"/>
      <point x="210" y="489" type="line"/>
      <point x="210" y="516" type="line"/>
      <point x="427" y="343" type="line"/>
      <point x="427" y="324" type="line"/>
    </contour>
    <contour>
      <point x="61" y="151" type="line"/>
      <point x="61" y="177" type="line"/>
      <point x="250" y="334" type="line"/>
      <point x="61" y="489" type="line"/>
      <point x="61" y="516" type="line"/>
      <point x="280" y="343" type="line"/>
      <point x="280" y="324" type="line"/>
    </contour>
  </outline>
</glyph>
<glyph name="onequarter" format="1">
  <advance width="291"/>
  <unicode hex="00BC"/>
  <outline>
    <contour>
      <point x="381" y="275" type="line"/>
      <point x="381" y="5" type="line"/>
      <point x="362" y="5" type="line"/>
      <point x="362" y="275" type="line"/>
      <point x="252" y="275" type="line"/>
      <point x="360" y="485" type="line"/>
      <point x="381" y="485" type="line"/>
      <point x="381" y="287" type="line"/>
      <point x="411" y="287" type="line"/>
      <point x="411" y="275" type="line"/>
    </contour>
    <contour>
      <point x="35" y="5" type="line"/>
      <point x="13" y="5" type="line"/>
      <point x="258" y="806" type="line"/>
      <point x="280" y="806" type="line"/>
    </contour>
    <contour>
      <point x="-51" y="326" type="line"/>
      <point x="-51" y="344" type="line"/>
      <point x="-36" y="344" type="line"/>
      <point x="-36" y="782" type="line"/>
      <point x="-58" y="773" type="line"/>
      <point x="-58" y="791" type="line"/>
      <point x="-18" y="807" type="line"/>
      <point x="-18" y="344" type="line"/>
      <point x="-1" y="344" type="line"/>
      <point x="-1" y="326" type="line"/>
    </contour>
    <contour>
      <point x="362" y="447" type="line"/>
      <point x="282" y="287" type="line"/>
      <point x="362" y="287" type="line"/>
    </contour>
  </outline>
</glyph>
<glyph name="onehalf" format="1">
  <advance width="291"/>
  <unicode hex="00BD"/>
  <outline>
    <contour>
      <point x="284" y="5" type="line"/>
      <point x="284" y="217" type="line" smooth="yes"/>
      <point x="284" y="273"/>
      <point x="337" y="279" type="qcurve" smooth="yes"/>
      <point x="357" y="282"/>
      <point x="367" y="284" type="qcurve" smooth="yes"/>
      <point x="382" y="288"/>
      <point x="385" y="305" type="qcurve" smooth="yes"/>
      <point x="387" y="317"/>
      <point x="387" y="329" type="qcurve" smooth="yes"/>
      <point x="387" y="419" type="line" smooth="yes"/>
      <point x="387" y="476"/>
      <point x="344" y="476" type="qcurve" smooth="yes"/>
      <point x="322" y="476"/>
      <point x="308" y="459" type="qcurve"/>
      <point x="301" y="441"/>
      <point x="301" y="419" type="qcurve" smooth="yes"/>
      <point x="301" y="384" type="line"/>
      <point x="284" y="384" type="line"/>
      <point x="284" y="417" type="line" smooth="yes"/>
      <point x="284" y="490"/>
      <point x="344" y="490" type="qcurve" smooth="yes"/>
      <point x="405" y="490"/>
      <point x="405" y="417" type="qcurve" smooth="yes"/>
      <point x="405" y="326" type="line" smooth="yes"/>
      <point x="405" y="290"/>
      <point x="394" y="280" type="qcurve" smooth="yes"/>
      <point x="385" y="271"/>
      <point x="351" y="265" type="qcurve" smooth="yes"/>
      <point x="331" y="262"/>
      <point x="307" y="249" type="qcurve"/>
      <point x="301" y="242"/>
      <point x="301" y="217" type="qcurve" smooth="yes"/>
      <point x="301" y="20" type="line"/>
      <point x="405" y="20" type="line"/>
      <point x="405" y="5" type="line"/>
    </contour>
    <contour>
      <point x="35" y="5" type="line"/>
      <point x="13" y="5" type="line"/>
      <point x="258" y="806" type="line"/>
      <point x="280" y="806" type="line"/>
    </contour>
    <contour>
      <point x="-51" y="326" type="line"/>
      <point x="-51" y="344" type="line"/>
      <point x="-36" y="344" type="line"/>
      <point x="-36" y="782" type="line"/>
      <point x="-58" y="773" type="line"/>
      <point x="-58" y="791" type="line"/>
      <point x="-18" y="807" type="line"/>
      <point x="-18" y="344" type="line"/>
      <point x="-1" y="344" type="line"/>
      <point x="-1" y="326" type="line"/>
    </contour>
  </outline>
</glyph>
<glyph name="threequarters" format="1">
  <advance width="291"/>
  <unicode hex="00BE"/>
  <outline>
    <contour>
      <point x="381" y="275" type="line"/>
      <point x="381" y="5" type="line"/>
      <point x="362" y="5" type="line"/>
      <point x="362" y="275" type="line"/>
      <point x="252" y="275" type="line"/>
      <point x="360" y="485" type="line"/>
      <point x="381" y="485" type="line"/>
      <point x="381" y="287" type="line"/>
      <point x="411" y="287" type="line"/>
      <point x="411" y="275" type="line"/>
    </contour>
    <contour>
      <point x="35" y="5" type="line"/>
      <point x="13" y="5" type="line"/>
      <point x="258" y="806" type="line"/>
      <point x="280" y="806" type="line"/>
    </contour>
    <contour>
      <point x="-21" y="315" type="qcurve" smooth="yes"/>
      <point x="-83" y="315"/>
      <point x="-83" y="387" type="qcurve" smooth="yes"/>
      <point x="-83" y="424" type="line"/>
      <point x="-64" y="424" type="line"/>
      <point x="-64" y="386" type="line" smooth="yes"/>
      <point x="-64" y="361"/>
      <point x="-57" y="346" type="qcurve"/>
      <point x="-44" y="330"/>
      <point x="-21" y="330" type="qcurve" smooth="yes"/>
      <point x="21" y="330"/>
      <point x="21" y="386" type="qcurve" smooth="yes"/>
      <point x="21" y="536" type="line" smooth="yes"/>
      <point x="21" y="568"/>
      <point x="12" y="578" type="qcurve" smooth="yes"/>
      <point x="1" y="589"/>
      <point x="-28" y="589" type="qcurve" smooth="yes"/>
      <point x="-48" y="589" type="line"/>
      <point x="-48" y="602" type="line"/>
      <point x="-28" y="602" type="line" smooth="yes"/>
      <point x="2" y="602"/>
      <point x="12" y="614" type="qcurve"/>
      <point x="21" y="628"/>
      <point x="21" y="657" type="qcurve" smooth="yes"/>
      <point x="21" y="735" type="line" smooth="yes"/>
      <point x="21" y="761"/>
      <point x="14" y="774" type="qcurve"/>
      <point x="3" y="791"/>
      <point x="-21" y="791" type="qcurve" smooth="yes"/>
      <point x="-44" y="791"/>
      <point x="-57" y="775" type="qcurve"/>
      <point x="-64" y="760"/>
      <point x="-64" y="735" type="qcurve" smooth="yes"/>
      <point x="-64" y="700" type="line"/>
      <point x="-83" y="700" type="line"/>
      <point x="-83" y="732" type="line" smooth="yes"/>
      <point x="-83" y="805"/>
      <point x="-21" y="805" type="qcurve" smooth="yes"/>
      <point x="40" y="805"/>
      <point x="40" y="732" type="qcurve" smooth="yes"/>
      <point x="40" y="655" type="line" smooth="yes"/>
      <point x="40" y="614"/>
      <point x="6" y="596" type="qcurve"/>
      <point x="40" y="580"/>
      <point x="40" y="537" type="qcurve" smooth="yes"/>
      <point x="40" y="387" type="line" smooth="yes"/>
      <point x="40" y="315"/>
    </contour>
    <contour>
      <point x="362" y="447" type="line"/>
      <point x="282" y="287" type="line"/>
      <point x="362" y="287" type="line"/>
    </contour>
  </outline>
</glyph>
<glyph name="questiondown" format="1">
  <advance width="275"/>
  <unicode hex="00BF"/>
  <outline>
    <contour>
      <point x="121" y="594" type="line"/>
      <point x="121" y="621" type="line"/>
      <point x="144" y="621" type="line"/>
      <point x="144" y="594" type="line"/>
    </contour>
    <contour>
      <point x="131" y="-178" type="qcurve" smooth="yes"/>
      <point x="32" y="-178"/>
      <point x="32" y="-60" type="qcurve" smooth="yes"/>
      <point x="32" y="57" type="line" smooth="yes"/>
      <point x="32" y="111"/>
      <point x="48" y="136" type="qcurve" smooth="yes"/>
      <point x="69" y="168"/>
      <point x="120" y="175" type="qcurve"/>
      <point x="120" y="504" type="line"/>
      <point x="144" y="504" type="line"/>
      <point x="144" y="160" type="line"/>
      <point x="93" y="158"/>
      <point x="75" y="135" type="qcurve"/>
      <point x="56" y="116"/>
      <point x="56" y="60" type="qcurve" smooth="yes"/>
      <point x="56" y="-63" type="line" smooth="yes"/>
      <point x="56" y="-160"/>
      <point x="206" y="-160"/>
      <point x="206" y="-63" type="qcurve" smooth="yes"/>
      <point x="206" y="-8" type="line"/>
      <point x="231" y="-8" type="line"/>
      <point x="231" y="-60" type="line" smooth="yes"/>
      <point x="231" y="-178"/>
    </contour>
  </outline>
</glyph>
<glyph name="Acircumflex" format="1">
  <advance width="280"/>
  <unicode hex="00C2"/>
  <outline>
    <contour>
      <point x="176" y="847" type="line"/>
      <point x="140" y="953" type="line"/>
      <point x="105" y="847" type="line"/>
      <point x="82" y="847" type="line"/>
      <point x="125" y="992" type="line"/>
      <point x="155" y="992" type="line"/>
      <point x="198" y="847" type="line"/>
    </contour>
    <contour>
      <point x="241" y="5" type="line"/>
      <point x="188" y="384" type="line"/>
      <point x="91" y="384" type="line"/>
      <point x="36" y="5" type="line"/>
      <point x="16" y="5" type="line"/>
      <point x="130" y="799" type="line"/>
      <point x="150" y="799" type="line"/>
      <point x="264" y="5" type="line"/>
    </contour>
    <contour>
      <point x="140" y="731" type="line"/>
      <point x="93" y="405" type="line"/>
      <point x="186" y="405" type="line"/>
    </contour>
  </outline>
</glyph>
<glyph name="Atilde" format="1">
  <advance width="280"/>
  <unicode hex="00C3"/>
  <outline>
    <contour>
      <point x="255" y="908" type="line"/>
      <point x="214" y="866"/>
      <point x="185" y="869" type="qcurve" smooth="yes"/>
      <point x="168" y="871"/>
      <point x="138" y="896" type="qcurve" smooth="yes"/>
      <point x="110" y="919"/>
      <point x="93" y="924" type="qcurve"/>
      <point x="68" y="925"/>
      <point x="22" y="879" type="qcurve"/>
      <point x="25" y="905" type="line"/>
      <point x="65" y="947"/>
      <point x="96" y="946" type="qcurve"/>
      <point x="109" y="944"/>
      <point x="140" y="919" type="qcurve" smooth="yes"/>
      <point x="173" y="892"/>
      <point x="187" y="891" type="qcurve" smooth="yes"/>
      <point x="211" y="890"/>
      <point x="258" y="935" type="qcurve"/>
    </contour>
    <contour>
      <point x="241" y="5" type="line"/>
      <point x="188" y="384" type="line"/>
      <point x="91" y="384" type="line"/>
      <point x="36" y="5" type="line"/>
      <point x="16" y="5" type="line"/>
      <point x="130" y="799" type="line"/>
      <point x="150" y="799" type="line"/>
      <point x="264" y="5" type="line"/>
    </contour>
    <contour>
      <point x="140" y="731" type="line"/>
      <point x="93" y="405" type="line"/>
      <point x="186" y="405" type="line"/>
    </contour>
  </outline>
</glyph>
<glyph name="Adieresis" format="1">
  <advance width="280"/>
  <unicode hex="00C4"/>
  <outline>
    <contour>
      <point x="177" y="894" type="line"/>
      <point x="177" y="921" type="line"/>
      <point x="200" y="921" type="line"/>
      <point x="200" y="894" type="line"/>
    </contour>
    <contour>
      <point x="79" y="894" type="line"/>
      <point x="79" y="921" type="line"/>
      <point x="101" y="921" type="line"/>
      <point x="101" y="894" type="line"/>
    </contour>
    <contour>
      <point x="241" y="5" type="line"/>
      <point x="188" y="384" type="line"/>
      <point x="91" y="384" type="line"/>
      <point x="36" y="5" type="line"/>
      <point x="16" y="5" type="line"/>
      <point x="130" y="799" type="line"/>
      <point x="150" y="799" type="line"/>
      <point x="264" y="5" type="line"/>
    </contour>
    <contour>
      <point x="140" y="731" type="line"/>
      <point x="93" y="405" type="line"/>
      <point x="186" y="405" type="line"/>
    </contour>
  </outline>
</glyph>
<glyph name="Aring" format="1">
  <advance width="280"/>
  <unicode hex="00C5"/>
  <outline>
    <contour>
      <point x="141" y="822" type="qcurve" smooth="yes"/>
      <point x="109" y="822"/>
      <point x="84" y="844" type="qcurve"/>
      <point x="62" y="869"/>
      <point x="62" y="933"/>
      <point x="85" y="958" type="qcurve"/>
      <point x="108" y="981"/>
      <point x="174" y="981"/>
      <point x="197" y="958" type="qcurve"/>
      <point x="220" y="933"/>
      <point x="220" y="901" type="qcurve" smooth="yes"/>
      <point x="220" y="868"/>
      <point x="174" y="822"/>
    </contour>
    <contour>
      <point x="241" y="5" type="line"/>
      <point x="188" y="384" type="line"/>
      <point x="91" y="384" type="line"/>
      <point x="36" y="5" type="line"/>
      <point x="16" y="5" type="line"/>
      <point x="130" y="799" type="line"/>
      <point x="150" y="799" type="line"/>
      <point x="264" y="5" type="line"/>
    </contour>
    <contour>
      <point x="141" y="960" type="qcurve" smooth="yes"/>
      <point x="117" y="960"/>
      <point x="100" y="943" type="qcurve" smooth="yes"/>
      <point x="84" y="927"/>
      <point x="84" y="875"/>
      <point x="100" y="859" type="qcurve" smooth="yes"/>
      <point x="117" y="842"/>
      <point x="141" y="842" type="qcurve" smooth="yes"/>
      <point x="167" y="842"/>
      <point x="182" y="859" type="qcurve"/>
      <point x="199" y="875"/>
      <point x="199" y="927"/>
      <point x="182" y="943" type="qcurve"/>
      <point x="167" y="960"/>
    </contour>
    <contour>
      <point x="140" y="731" type="line"/>
      <point x="93" y="405" type="line"/>
      <point x="186" y="405" type="line"/>
    </contour>
  </outline>
</glyph>
<glyph name="AE" format="1">
  <advance width="475"/>
  <unicode hex="00C6"/>
  <outline>
    <contour>
      <point x="242" y="5" type="line"/>
      <point x="244" y="384" type="line"/>
      <point x="145" y="384" type="line"/>
      <point x="36" y="5" type="line"/>
      <point x="17" y="5" type="line"/>
      <point x="245" y="799" type="line"/>
      <point x="434" y="799" type="line"/>
      <point x="434" y="782" type="line"/>
      <point x="264" y="782" type="line"/>
      <point x="264" y="471" type="line"/>
      <point x="434" y="471" type="line"/>
      <point x="434" y="456" type="line"/>
      <point x="264" y="456" type="line"/>
      <point x="264" y="21" type="line"/>
      <point x="434" y="21" type="line"/>
      <point x="434" y="5" type="line"/>
    </contour>
    <contour>
      <point x="150" y="405" type="line"/>
      <point x="244" y="405" type="line"/>
      <point x="245" y="730" type="line"/>
    </contour>
  </outline>
</glyph>
<glyph name="Ccedilla" format="1">
  <advance width="275"/>
  <unicode hex="00C7"/>
  <outline>
    <contour>
      <point x="139" y="-179" type="line"/>
      <point x="139" y="-180" type="line"/>
      <point x="175" y="-180"/>
      <point x="175" y="-144" type="qcurve" smooth="yes"/>
      <point x="175" y="-106" type="line" smooth="yes"/>
      <point x="175" y="-76"/>
      <point x="147" y="-76" type="qcurve"/>
      <point x="140" y="-74"/>
      <point x="135" y="-76" type="qcurve"/>
      <point x="132" y="-76" type="line"/>
      <point x="132" y="-4" type="line"/>
      <point x="44" y="6"/>
      <point x="44" y="114" type="qcurve" smooth="yes"/>
      <point x="44" y="690" type="line" smooth="yes"/>
      <point x="44" y="806"/>
      <point x="142" y="806" type="qcurve" smooth="yes"/>
      <point x="241" y="806"/>
      <point x="241" y="690" type="qcurve" smooth="yes"/>
      <point x="241" y="637" type="line"/>
      <point x="217" y="637" type="line"/>
      <point x="217" y="692" type="line" smooth="yes"/>
      <point x="217" y="790"/>
      <point x="67" y="790"/>
      <point x="67" y="692" type="qcurve" smooth="yes"/>
      <point x="67" y="112" type="line" smooth="yes"/>
      <point x="67" y="12"/>
      <point x="217" y="12"/>
      <point x="217" y="112" type="qcurve" smooth="yes"/>
      <point x="217" y="171" type="line"/>
      <point x="241" y="171" type="line"/>
      <point x="241" y="114" type="line" smooth="yes"/>
      <point x="241" y="3"/>
      <point x="146" y="-3" type="qcurve"/>
      <point x="146" y="-66" type="line"/>
      <point x="161" y="-66" type="line" smooth="yes"/>
      <point x="191" y="-66"/>
      <point x="191" y="-101" type="qcurve" smooth="yes"/>
      <point x="191" y="-144" type="line" smooth="yes"/>
      <point x="191" y="-190"/>
      <point x="144" y="-190" type="qcurve" smooth="yes"/>
      <point x="105" y="-190" type="line"/>
      <point x="105" y="-179" type="line"/>
    </contour>
  </outline>
</glyph>
<glyph name="Egrave" format="1">
  <advance width="290"/>
  <unicode hex="00C8"/>
  <outline>
    <contour>
      <point x="161" y="854" type="line"/>
      <point x="103" y="969" type="line"/>
      <point x="129" y="980" type="line"/>
      <point x="187" y="867" type="line"/>
    </contour>
    <contour>
      <point x="60" y="5" type="line"/>
      <point x="60" y="799" type="line"/>
      <point x="254" y="799" type="line"/>
      <point x="254" y="782" type="line"/>
      <point x="84" y="782" type="line"/>
      <point x="84" y="471" type="line"/>
      <point x="254" y="471" type="line"/>
      <point x="254" y="456" type="line"/>
      <point x="84" y="456" type="line"/>
      <point x="84" y="21" type="line"/>
      <point x="254" y="21" type="line"/>
      <point x="254" y="5" type="line"/>
    </contour>
  </outline>
</glyph>
<glyph name="Ecircumflex" format="1">
  <advance width="290"/>
  <unicode hex="00CA"/>
  <outline>
    <contour>
      <point x="181" y="847" type="line"/>
      <point x="145" y="953" type="line"/>
      <point x="110" y="847" type="line"/>
      <point x="87" y="847" type="line"/>
      <point x="130" y="992" type="line"/>
      <point x="160" y="992" type="line"/>
      <point x="202" y="847" type="line"/>
    </contour>
    <contour>
      <point x="47" y="5" type="line"/>
      <point x="47" y="799" type="line"/>
      <point x="241" y="799" type="line"/>
      <point x="241" y="782" type="line"/>
      <point x="71" y="782" type="line"/>
      <point x="71" y="471" type="line"/>
      <point x="241" y="471" type="line"/>
      <point x="241" y="456" type="line"/>
      <point x="71" y="456" type="line"/>
      <point x="71" y="21" type="line"/>
      <point x="241" y="21" type="line"/>
      <point x="241" y="5" type="line"/>
    </contour>
  </outline>
</glyph>
<glyph name="Edieresis" format="1">
  <advance width="290"/>
  <unicode hex="00CB"/>
  <outline>
    <contour>
      <point x="182" y="894" type="line"/>
      <point x="182" y="921" type="line"/>
      <point x="205" y="921" type="line"/>
      <point x="205" y="894" type="line"/>
    </contour>
    <contour>
      <point x="84" y="894" type="line"/>
      <point x="84" y="921" type="line"/>
      <point x="106" y="921" type="line"/>
      <point x="106" y="894" type="line"/>
    </contour>
    <contour>
      <point x="47" y="5" type="line"/>
      <point x="47" y="799" type="line"/>
      <point x="241" y="799" type="line"/>
      <point x="241" y="782" type="line"/>
      <point x="71" y="782" type="line"/>
      <point x="71" y="471" type="line"/>
      <point x="241" y="471" type="line"/>
      <point x="241" y="456" type="line"/>
      <point x="71" y="456" type="line"/>
      <point x="71" y="21" type="line"/>
      <point x="241" y="21" type="line"/>
      <point x="241" y="5" type="line"/>
    </contour>
  </outline>
</glyph>
<glyph name="Igrave" format="1">
  <advance width="127"/>
  <unicode hex="00CC"/>
  <outline>
    <contour>
      <point x="81" y="854" type="line"/>
      <point x="22" y="969" type="line"/>
      <point x="47" y="980" type="line"/>
      <point x="105" y="867" type="line"/>
    </contour>
    <contour>
      <point x="75" y="799" type="line"/>
      <point x="75" y="797" type="line"/>
      <point x="97" y="797" type="line"/>
      <point x="97" y="776" type="line"/>
      <point x="75" y="776" type="line"/>
      <point x="75" y="27" type="line"/>
      <point x="97" y="27" type="line"/>
      <point x="97" y="6" type="line"/>
      <point x="75" y="6" type="line"/>
      <point x="75" y="5" type="line"/>
      <point x="52" y="5" type="line"/>
      <point x="52" y="6" type="line"/>
      <point x="31" y="6" type="line"/>
      <point x="31" y="27" type="line"/>
      <point x="52" y="27" type="line"/>
      <point x="52" y="776" type="line"/>
      <point x="31" y="776" type="line"/>
      <point x="31" y="797" type="line"/>
      <point x="52" y="797" type="line"/>
      <point x="52" y="799" type="line"/>
    </contour>
  </outline>
</glyph>
<glyph name="Iacute" format="1">
  <advance width="127"/>
  <unicode hex="00CD"/>
  <outline>
    <contour>
      <point x="47" y="854" type="line"/>
      <point x="22" y="867" type="line"/>
      <point x="81" y="980" type="line"/>
      <point x="105" y="969" type="line"/>
    </contour>
    <contour>
      <point x="75" y="799" type="line"/>
      <point x="75" y="797" type="line"/>
      <point x="97" y="797" type="line"/>
      <point x="97" y="776" type="line"/>
      <point x="75" y="776" type="line"/>
      <point x="75" y="27" type="line"/>
      <point x="97" y="27" type="line"/>
      <point x="97" y="6" type="line"/>
      <point x="75" y="6" type="line"/>
      <point x="75" y="5" type="line"/>
      <point x="52" y="5" type="line"/>
      <point x="52" y="6" type="line"/>
      <point x="31" y="6" type="line"/>
      <point x="31" y="27" type="line"/>
      <point x="52" y="27" type="line"/>
      <point x="52" y="776" type="line"/>
      <point x="31" y="776" type="line"/>
      <point x="31" y="797" type="line"/>
      <point x="52" y="797" type="line"/>
      <point x="52" y="799" type="line"/>
    </contour>
  </outline>
</glyph>
<glyph name="Icircumflex" format="1">
  <advance width="127"/>
  <unicode hex="00CE"/>
  <outline>
    <contour>
      <point x="100" y="847" type="line"/>
      <point x="64" y="953" type="line"/>
      <point x="28" y="847" type="line"/>
      <point x="6" y="847" type="line"/>
      <point x="48" y="992" type="line"/>
      <point x="78" y="992" type="line"/>
      <point x="122" y="847" type="line"/>
    </contour>
    <contour>
      <point x="75" y="799" type="line"/>
      <point x="75" y="797" type="line"/>
      <point x="97" y="797" type="line"/>
      <point x="97" y="776" type="line"/>
      <point x="75" y="776" type="line"/>
      <point x="75" y="27" type="line"/>
      <point x="97" y="27" type="line"/>
      <point x="97" y="6" type="line"/>
      <point x="75" y="6" type="line"/>
      <point x="75" y="5" type="line"/>
      <point x="52" y="5" type="line"/>
      <point x="52" y="6" type="line"/>
      <point x="31" y="6" type="line"/>
      <point x="31" y="27" type="line"/>
      <point x="52" y="27" type="line"/>
      <point x="52" y="776" type="line"/>
      <point x="31" y="776" type="line"/>
      <point x="31" y="797" type="line"/>
      <point x="52" y="797" type="line"/>
      <point x="52" y="799" type="line"/>
    </contour>
  </outline>
</glyph>
<glyph name="Idieresis" format="1">
  <advance width="127"/>
  <unicode hex="00CF"/>
  <outline>
    <contour>
      <point x="101" y="894" type="line"/>
      <point x="101" y="921" type="line"/>
      <point x="124" y="921" type="line"/>
      <point x="124" y="894" type="line"/>
    </contour>
    <contour>
      <point x="4" y="894" type="line"/>
      <point x="4" y="921" type="line"/>
      <point x="25" y="921" type="line"/>
      <point x="25" y="894" type="line"/>
    </contour>
    <contour>
      <point x="75" y="799" type="line"/>
      <point x="75" y="797" type="line"/>
      <point x="97" y="797" type="line"/>
      <point x="97" y="776" type="line"/>
      <point x="75" y="776" type="line"/>
      <point x="75" y="27" type="line"/>
      <point x="97" y="27" type="line"/>
      <point x="97" y="6" type="line"/>
      <point x="75" y="6" type="line"/>
      <point x="75" y="5" type="line"/>
      <point x="52" y="5" type="line"/>
      <point x="52" y="6" type="line"/>
      <point x="31" y="6" type="line"/>
      <point x="31" y="27" type="line"/>
      <point x="52" y="27" type="line"/>
      <point x="52" y="776" type="line"/>
      <point x="31" y="776" type="line"/>
      <point x="31" y="797" type="line"/>
      <point x="52" y="797" type="line"/>
      <point x="52" y="799" type="line"/>
    </contour>
  </outline>
</glyph>
<glyph name="Ntilde" format="1">
  <advance width="287"/>
  <unicode hex="00D1"/>
  <outline>
    <contour>
      <point x="259" y="908" type="line"/>
      <point x="217" y="866"/>
      <point x="187" y="869" type="qcurve" smooth="yes"/>
      <point x="173" y="871"/>
      <point x="142" y="895" type="qcurve"/>
      <point x="137" y="900" type="line"/>
      <point x="110" y="921"/>
      <point x="97" y="924" type="qcurve"/>
      <point x="73" y="926"/>
      <point x="26" y="879" type="qcurve"/>
      <point x="29" y="905" type="line"/>
      <point x="66" y="948"/>
      <point x="99" y="946" type="qcurve"/>
      <point x="114" y="944"/>
      <point x="144" y="919" type="qcurve"/>
      <point x="179" y="892"/>
      <point x="190" y="891" type="qcurve" smooth="yes"/>
      <point x="214" y="889"/>
      <point x="261" y="936" type="qcurve"/>
    </contour>
    <contour>
      <point x="70" y="799" type="line"/>
      <point x="70" y="797" type="line"/>
      <point x="73" y="797" type="line"/>
      <point x="227" y="121" type="line"/>
      <point x="227" y="799" type="line"/>
      <point x="250" y="799" type="line"/>
      <point x="255" y="5" type="line"/>
      <point x="227" y="5" type="line"/>
      <point x="227" y="18" type="line"/>
      <point x="70" y="711" type="line"/>
      <point x="70" y="5" type="line"/>
      <point x="46" y="5" type="line"/>
      <point x="46" y="799" type="line"/>
    </contour>
  </outline>
</glyph>
<glyph name="Oacute" format="1">
  <advance width="285"/>
  <unicode hex="00D3"/>
  <outline>
    <contour>
      <point x="127" y="854" type="line"/>
      <point x="101" y="867" type="line"/>
      <point x="158" y="980" type="line"/>
      <point x="184" y="969" type="line"/>
    </contour>
    <contour>
      <point x="142" y="-3" type="qcurve" smooth="yes"/>
      <point x="44" y="-3"/>
      <point x="44" y="114" type="qcurve" smooth="yes"/>
      <point x="44" y="690" type="line" smooth="yes"/>
      <point x="44" y="806"/>
      <point x="142" y="806" type="qcurve" smooth="yes"/>
      <point x="241" y="806"/>
      <point x="241" y="690" type="qcurve" smooth="yes"/>
      <point x="241" y="114" type="line" smooth="yes"/>
      <point x="241" y="-3"/>
    </contour>
    <contour>
      <point x="217" y="692" type="line" smooth="yes"/>
      <point x="217" y="790"/>
      <point x="67" y="790"/>
      <point x="67" y="692" type="qcurve" smooth="yes"/>
      <point x="67" y="112" type="line" smooth="yes"/>
      <point x="67" y="12"/>
      <point x="217" y="12"/>
      <point x="217" y="112" type="qcurve" smooth="yes"/>
    </contour>
  </outline>
</glyph>
<glyph name="Ocircumflex" format="1">
  <advance width="285"/>
  <unicode hex="00D4"/>
  <outline>
    <contour>
      <point x="179" y="847" type="line"/>
      <point x="142" y="953" type="line"/>
      <point x="107" y="847" type="line"/>
      <point x="86" y="847" type="line"/>
      <point x="128" y="992" type="line"/>
      <point x="157" y="992" type="line"/>
      <point x="200" y="847" type="line"/>
    </contour>
    <contour>
      <point x="142" y="-3" type="qcurve" smooth="yes"/>
      <point x="44" y="-3"/>
      <point x="44" y="114" type="qcurve" smooth="yes"/>
      <point x="44" y="690" type="line" smooth="yes"/>
      <point x="44" y="806"/>
      <point x="142" y="806" type="qcurve" smooth="yes"/>
      <point x="241" y="806"/>
      <point x="241" y="690" type="qcurve" smooth="yes"/>
      <point x="241" y="114" type="line" smooth="yes"/>
      <point x="241" y="-3"/>
    </contour>
    <contour>
      <point x="217" y="692" type="line" smooth="yes"/>
      <point x="217" y="790"/>
      <point x="67" y="790"/>
      <point x="67" y="692" type="qcurve" smooth="yes"/>
      <point x="67" y="112" type="line" smooth="yes"/>
      <point x="67" y="12"/>
      <point x="217" y="12"/>
      <point x="217" y="112" type="qcurve" smooth="yes"/>
    </contour>
  </outline>
</glyph>
<glyph name="Otilde" format="1">
  <advance width="285"/>
  <unicode hex="00D5"/>
  <outline>
    <contour>
      <point x="257" y="908" type="line"/>
      <point x="217" y="866"/>
      <point x="187" y="869" type="qcurve" smooth="yes"/>
      <point x="175" y="871"/>
      <point x="142" y="895" type="qcurve" smooth="yes"/>
      <point x="135" y="900" type="line" smooth="yes"/>
      <point x="124" y="909"/>
      <point x="96" y="924" type="qcurve"/>
      <point x="72" y="926"/>
      <point x="24" y="879" type="qcurve"/>
      <point x="27" y="905" type="line"/>
      <point x="67" y="948"/>
      <point x="97" y="946" type="qcurve" smooth="yes"/>
      <point x="111" y="945"/>
      <point x="144" y="919" type="qcurve"/>
      <point x="175" y="893"/>
      <point x="189" y="891" type="qcurve" smooth="yes"/>
      <point x="214" y="889"/>
      <point x="260" y="935" type="qcurve"/>
    </contour>
    <contour>
      <point x="142" y="-3" type="qcurve" smooth="yes"/>
      <point x="44" y="-3"/>
      <point x="44" y="114" type="qcurve" smooth="yes"/>
      <point x="44" y="690" type="line" smooth="yes"/>
      <point x="44" y="806"/>
      <point x="142" y="806" type="qcurve" smooth="yes"/>
      <point x="241" y="806"/>
      <point x="241" y="690" type="qcurve" smooth="yes"/>
      <point x="241" y="114" type="line" smooth="yes"/>
      <point x="241" y="-3"/>
    </contour>
    <contour>
      <point x="217" y="692" type="line" smooth="yes"/>
      <point x="217" y="790"/>
      <point x="67" y="790"/>
      <point x="67" y="692" type="qcurve" smooth="yes"/>
      <point x="67" y="112" type="line" smooth="yes"/>
      <point x="67" y="12"/>
      <point x="217" y="12"/>
      <point x="217" y="112" type="qcurve" smooth="yes"/>
    </contour>
  </outline>
</glyph>
<glyph name="Odieresis" format="1">
  <advance width="285"/>
  <unicode hex="00D6"/>
  <outline>
    <contour>
      <point x="180" y="894" type="line"/>
      <point x="180" y="921" type="line"/>
      <point x="202" y="921" type="line"/>
      <point x="202" y="894" type="line"/>
    </contour>
    <contour>
      <point x="82" y="894" type="line"/>
      <point x="82" y="921" type="line"/>
      <point x="104" y="921" type="line"/>
      <point x="104" y="894" type="line"/>
    </contour>
    <contour>
      <point x="142" y="-3" type="qcurve" smooth="yes"/>
      <point x="44" y="-3"/>
      <point x="44" y="114" type="qcurve" smooth="yes"/>
      <point x="44" y="690" type="line" smooth="yes"/>
      <point x="44" y="806"/>
      <point x="142" y="806" type="qcurve" smooth="yes"/>
      <point x="241" y="806"/>
      <point x="241" y="690" type="qcurve" smooth="yes"/>
      <point x="241" y="114" type="line" smooth="yes"/>
      <point x="241" y="-3"/>
    </contour>
    <contour>
      <point x="217" y="692" type="line" smooth="yes"/>
      <point x="217" y="790"/>
      <point x="67" y="790"/>
      <point x="67" y="692" type="qcurve" smooth="yes"/>
      <point x="67" y="112" type="line" smooth="yes"/>
      <point x="67" y="12"/>
      <point x="217" y="12"/>
      <point x="217" y="112" type="qcurve" smooth="yes"/>
    </contour>
  </outline>
</glyph>
<glyph name="multiply" format="1">
  <advance width="309"/>
  <unicode hex="00D7"/>
  <outline>
    <contour>
      <point x="264" y="219" type="line"/>
      <point x="159" y="324" type="line"/>
      <point x="54" y="219" type="line"/>
      <point x="38" y="235" type="line"/>
      <point x="143" y="339" type="line"/>
      <point x="38" y="444" type="line"/>
      <point x="54" y="459" type="line"/>
      <point x="159" y="354" type="line"/>
      <point x="264" y="459" type="line"/>
      <point x="278" y="444" type="line"/>
      <point x="173" y="339" type="line"/>
      <point x="278" y="235" type="line"/>
    </contour>
  </outline>
</glyph>
<glyph name="Oslash" format="1">
  <advance width="285"/>
  <unicode hex="00D8"/>
  <outline>
    <contour>
      <point x="239" y="727" type="line"/>
      <point x="241" y="705"/>
      <point x="241" y="690" type="qcurve" smooth="yes"/>
      <point x="241" y="114" type="line" smooth="yes"/>
      <point x="241" y="-3"/>
      <point x="142" y="-3" type="qcurve" smooth="yes"/>
      <point x="86" y="-3"/>
      <point x="57" y="44" type="qcurve"/>
      <point x="47" y="5" type="line"/>
      <point x="24" y="5" type="line"/>
      <point x="46" y="87" type="line"/>
      <point x="44" y="105"/>
      <point x="44" y="114" type="qcurve" smooth="yes"/>
      <point x="44" y="690" type="line" smooth="yes"/>
      <point x="44" y="806"/>
      <point x="142" y="806" type="qcurve" smooth="yes"/>
      <point x="196" y="806"/>
      <point x="227" y="766" type="qcurve"/>
      <point x="236" y="806" type="line"/>
      <point x="260" y="806" type="line"/>
    </contour>
    <contour>
      <point x="142" y="790" type="qcurve" smooth="yes"/>
      <point x="67" y="790"/>
      <point x="67" y="692" type="qcurve" smooth="yes"/>
      <point x="67" y="171" type="line"/>
      <point x="215" y="726" type="line"/>
      <point x="205" y="790"/>
    </contour>
    <contour>
      <point x="217" y="649" type="line"/>
      <point x="69" y="87" type="line"/>
      <point x="74" y="12"/>
      <point x="142" y="12" type="qcurve" smooth="yes"/>
      <point x="217" y="12"/>
      <point x="217" y="112" type="qcurve" smooth="yes"/>
    </contour>
  </outline>
</glyph>
<glyph name="Uacute" format="1">
  <advance width="285"/>
  <unicode hex="00DA"/>
  <outline>
    <contour>
      <point x="127" y="854" type="line"/>
      <point x="101" y="867" type="line"/>
      <point x="158" y="980" type="line"/>
      <point x="184" y="969" type="line"/>
    </contour>
    <contour>
      <point x="142" y="-3" type="qcurve" smooth="yes"/>
      <point x="44" y="-3"/>
      <point x="44" y="114" type="qcurve" smooth="yes"/>
      <point x="44" y="799" type="line"/>
      <point x="67" y="799" type="line"/>
      <point x="67" y="112" type="line" smooth="yes"/>
      <point x="67" y="12"/>
      <point x="217" y="12"/>
      <point x="217" y="112" type="qcurve" smooth="yes"/>
      <point x="217" y="799" type="line"/>
      <point x="241" y="799" type="line"/>
      <point x="241" y="114" type="line" smooth="yes"/>
      <point x="241" y="-3"/>
    </contour>
  </outline>
</glyph>
<glyph name="Ucircumflex" format="1">
  <advance width="285"/>
  <unicode hex="00DB"/>
  <outline>
    <contour>
      <point x="179" y="847" type="line"/>
      <point x="142" y="953" type="line"/>
      <point x="107" y="847" type="line"/>
      <point x="86" y="847" type="line"/>
      <point x="128" y="992" type="line"/>
      <point x="157" y="992" type="line"/>
      <point x="200" y="847" type="line"/>
    </contour>
    <contour>
      <point x="142" y="-3" type="qcurve" smooth="yes"/>
      <point x="44" y="-3"/>
      <point x="44" y="114" type="qcurve" smooth="yes"/>
      <point x="44" y="799" type="line"/>
      <point x="67" y="799" type="line"/>
      <point x="67" y="112" type="line" smooth="yes"/>
      <point x="67" y="12"/>
      <point x="217" y="12"/>
      <point x="217" y="112" type="qcurve" smooth="yes"/>
      <point x="217" y="799" type="line"/>
      <point x="241" y="799" type="line"/>
      <point x="241" y="114" type="line" smooth="yes"/>
      <point x="241" y="-3"/>
    </contour>
  </outline>
</glyph>
<glyph name="Udieresis" format="1">
  <advance width="285"/>
  <unicode hex="00DC"/>
  <outline>
    <contour>
      <point x="180" y="894" type="line"/>
      <point x="180" y="921" type="line"/>
      <point x="202" y="921" type="line"/>
      <point x="202" y="894" type="line"/>
    </contour>
    <contour>
      <point x="82" y="894" type="line"/>
      <point x="82" y="921" type="line"/>
      <point x="104" y="921" type="line"/>
      <point x="104" y="894" type="line"/>
    </contour>
    <contour>
      <point x="142" y="-3" type="qcurve" smooth="yes"/>
      <point x="44" y="-3"/>
      <point x="44" y="114" type="qcurve" smooth="yes"/>
      <point x="44" y="799" type="line"/>
      <point x="67" y="799" type="line"/>
      <point x="67" y="112" type="line" smooth="yes"/>
      <point x="67" y="12"/>
      <point x="217" y="12"/>
      <point x="217" y="112" type="qcurve" smooth="yes"/>
      <point x="217" y="799" type="line"/>
      <point x="241" y="799" type="line"/>
      <point x="241" y="114" type="line" smooth="yes"/>
      <point x="241" y="-3"/>
    </contour>
  </outline>
</glyph>
<glyph name="Yacute" format="1">
  <advance width="280"/>
  <unicode hex="00DD"/>
  <outline>
    <contour>
      <point x="124" y="854" type="line"/>
      <point x="98" y="867" type="line"/>
      <point x="156" y="980" type="line"/>
      <point x="182" y="969" type="line"/>
    </contour>
    <contour>
      <point x="151" y="413" type="line"/>
      <point x="151" y="5" type="line"/>
      <point x="127" y="5" type="line"/>
      <point x="127" y="415" type="line"/>
      <point x="17" y="799" type="line"/>
      <point x="43" y="799" type="line"/>
      <point x="140" y="441" type="line"/>
      <point x="240" y="799" type="line"/>
      <point x="263" y="799" type="line"/>
    </contour>
  </outline>
</glyph>
<glyph name="Thorn" format="1">
  <advance width="284"/>
  <unicode hex="00DE"/>
  <outline>
    <contour>
      <point x="147" y="250" type="qcurve" smooth="yes"/>
      <point x="70" y="250" type="line"/>
      <point x="70" y="5" type="line"/>
      <point x="46" y="5" type="line"/>
      <point x="46" y="799" type="line"/>
      <point x="70" y="799" type="line"/>
      <point x="70" y="591" type="line"/>
      <point x="147" y="591" type="line" smooth="yes"/>
      <point x="210" y="591"/>
      <point x="231" y="562" type="qcurve" smooth="yes"/>
      <point x="249" y="537"/>
      <point x="249" y="470" type="qcurve" smooth="yes"/>
      <point x="249" y="355" type="line" smooth="yes"/>
      <point x="249" y="250"/>
    </contour>
    <contour>
      <point x="226" y="482" type="line" smooth="yes"/>
      <point x="226" y="536"/>
      <point x="210" y="553" type="qcurve" smooth="yes"/>
      <point x="191" y="574"/>
      <point x="140" y="574" type="qcurve" smooth="yes"/>
      <point x="70" y="574" type="line"/>
      <point x="70" y="265" type="line"/>
      <point x="140" y="265" type="line" smooth="yes"/>
      <point x="192" y="265"/>
      <point x="208" y="286" type="qcurve"/>
      <point x="226" y="306"/>
      <point x="226" y="357" type="qcurve" smooth="yes"/>
    </contour>
  </outline>
</glyph>
<glyph name="germandbls" format="1">
  <advance width="326"/>
  <unicode hex="00DF"/>
  <outline>
    <contour>
      <point x="196" y="-69" type="qcurve"/>
      <point x="196" y="-52" type="line"/>
      <point x="266" y="-45"/>
      <point x="266" y="46" type="qcurve" smooth="yes"/>
      <point x="266" y="361" type="line" smooth="yes"/>
      <point x="266" y="414"/>
      <point x="250" y="434" type="qcurve" smooth="yes"/>
      <point x="233" y="454"/>
      <point x="181" y="454" type="qcurve" smooth="yes"/>
      <point x="141" y="454" type="line"/>
      <point x="141" y="470" type="line"/>
      <point x="149" y="470" type="line" smooth="yes"/>
      <point x="184" y="470"/>
      <point x="203" y="491" type="qcurve"/>
      <point x="217" y="511"/>
      <point x="217" y="562" type="qcurve" smooth="yes"/>
      <point x="217" y="692" type="line" smooth="yes"/>
      <point x="217" y="790"/>
      <point x="67" y="790"/>
      <point x="67" y="692" type="qcurve" smooth="yes"/>
      <point x="67" y="9" type="line"/>
      <point x="44" y="9" type="line"/>
      <point x="44" y="690" type="line" smooth="yes"/>
      <point x="44" y="806"/>
      <point x="142" y="806" type="qcurve" smooth="yes"/>
      <point x="241" y="806"/>
      <point x="241" y="690" type="qcurve" smooth="yes"/>
      <point x="241" y="559" type="line" smooth="yes"/>
      <point x="241" y="497"/>
      <point x="209" y="471" type="qcurve"/>
      <point x="270" y="462"/>
      <point x="281" y="426" type="qcurve" smooth="yes"/>
      <point x="291" y="390"/>
      <point x="291" y="365" type="qcurve" smooth="yes"/>
      <point x="291" y="49" type="line" smooth="yes"/>
      <point x="291" y="-66"/>
    </contour>
  </outline>
</glyph>
<glyph name="aacute" format="1">
  <advance width="285"/>
  <unicode hex="00E1"/>
  <outline>
    <contour>
      <point x="127" y="652" type="line"/>
      <point x="101" y="664" type="line"/>
      <point x="158" y="778" type="line"/>
      <point x="184" y="765" type="line"/>
    </contour>
    <contour>
      <point x="239" y="81" type="qcurve"/>
      <point x="239" y="1" type="line"/>
      <point x="216" y="1" type="line"/>
      <point x="216" y="21" type="line"/>
      <point x="184" y="-3"/>
      <point x="142" y="-3" type="qcurve" smooth="yes"/>
      <point x="44" y="-3"/>
      <point x="44" y="114" type="qcurve" smooth="yes"/>
      <point x="44" y="236" type="line" smooth="yes"/>
      <point x="44" y="352"/>
      <point x="142" y="352" type="qcurve" smooth="yes"/>
      <point x="186" y="352"/>
      <point x="217" y="326" type="qcurve"/>
      <point x="217" y="451" type="line" smooth="yes"/>
      <point x="217" y="550"/>
      <point x="67" y="550"/>
      <point x="67" y="451" type="qcurve" smooth="yes"/>
      <point x="67" y="425" type="line"/>
      <point x="44" y="425" type="line"/>
      <point x="44" y="449" type="line" smooth="yes"/>
      <point x="44" y="566"/>
      <point x="142" y="566" type="qcurve" smooth="yes"/>
      <point x="241" y="566"/>
      <point x="241" y="449" type="qcurve" smooth="yes"/>
      <point x="241" y="114" type="line" smooth="yes"/>
      <point x="241" y="103"/>
    </contour>
    <contour>
      <point x="216" y="266" type="line"/>
      <point x="209" y="336"/>
      <point x="142" y="336" type="qcurve" smooth="yes"/>
      <point x="67" y="336"/>
      <point x="67" y="239" type="qcurve" smooth="yes"/>
      <point x="67" y="112" type="line" smooth="yes"/>
      <point x="67" y="12"/>
      <point x="142" y="12" type="qcurve" smooth="yes"/>
      <point x="207" y="12"/>
      <point x="216" y="85" type="qcurve"/>
    </contour>
  </outline>
</glyph>
<glyph name="acircumflex" format="1">
  <advance width="285"/>
  <unicode hex="00E2"/>
  <outline>
    <contour>
      <point x="179" y="647" type="line"/>
      <point x="142" y="753" type="line"/>
      <point x="107" y="646" type="line"/>
      <point x="86" y="646" type="line"/>
      <point x="128" y="791" type="line"/>
      <point x="157" y="791" type="line"/>
      <point x="200" y="646" type="line"/>
    </contour>
    <contour>
      <point x="239" y="81" type="qcurve"/>
      <point x="239" y="1" type="line"/>
      <point x="216" y="1" type="line"/>
      <point x="216" y="21" type="line"/>
      <point x="184" y="-3"/>
      <point x="142" y="-3" type="qcurve" smooth="yes"/>
      <point x="44" y="-3"/>
      <point x="44" y="114" type="qcurve" smooth="yes"/>
      <point x="44" y="236" type="line" smooth="yes"/>
      <point x="44" y="352"/>
      <point x="142" y="352" type="qcurve" smooth="yes"/>
      <point x="186" y="352"/>
      <point x="217" y="326" type="qcurve"/>
      <point x="217" y="451" type="line" smooth="yes"/>
      <point x="217" y="550"/>
      <point x="67" y="550"/>
      <point x="67" y="451" type="qcurve" smooth="yes"/>
      <point x="67" y="425" type="line"/>
      <point x="44" y="425" type="line"/>
      <point x="44" y="449" type="line" smooth="yes"/>
      <point x="44" y="566"/>
      <point x="142" y="566" type="qcurve" smooth="yes"/>
      <point x="241" y="566"/>
      <point x="241" y="449" type="qcurve" smooth="yes"/>
      <point x="241" y="114" type="line" smooth="yes"/>
      <point x="241" y="103"/>
    </contour>
    <contour>
      <point x="216" y="266" type="line"/>
      <point x="209" y="336"/>
      <point x="142" y="336" type="qcurve" smooth="yes"/>
      <point x="67" y="336"/>
      <point x="67" y="239" type="qcurve" smooth="yes"/>
      <point x="67" y="112" type="line" smooth="yes"/>
      <point x="67" y="12"/>
      <point x="142" y="12" type="qcurve" smooth="yes"/>
      <point x="207" y="12"/>
      <point x="216" y="85" type="qcurve"/>
    </contour>
  </outline>
</glyph>
<glyph name="atilde" format="1">
  <advance width="285"/>
  <unicode hex="00E3"/>
  <outline>
    <contour>
      <point x="257" y="716" type="line"/>
      <point x="220" y="675"/>
      <point x="187" y="676" type="qcurve"/>
      <point x="176" y="678"/>
      <point x="142" y="701" type="qcurve"/>
      <point x="135" y="706" type="line"/>
      <point x="108" y="730"/>
      <point x="96" y="731" type="qcurve" smooth="yes"/>
      <point x="70" y="732"/>
      <point x="24" y="686" type="qcurve"/>
      <point x="27" y="713" type="line"/>
      <point x="68" y="755"/>
      <point x="96" y="752" type="qcurve" smooth="yes"/>
      <point x="111" y="750"/>
      <point x="142" y="726" type="qcurve" smooth="yes"/>
      <point x="175" y="700"/>
      <point x="189" y="699" type="qcurve" smooth="yes"/>
      <point x="214" y="696"/>
      <point x="260" y="742" type="qcurve"/>
    </contour>
    <contour>
      <point x="239" y="81" type="qcurve"/>
      <point x="239" y="1" type="line"/>
      <point x="216" y="1" type="line"/>
      <point x="216" y="21" type="line"/>
      <point x="184" y="-3"/>
      <point x="142" y="-3" type="qcurve" smooth="yes"/>
      <point x="44" y="-3"/>
      <point x="44" y="114" type="qcurve" smooth="yes"/>
      <point x="44" y="236" type="line" smooth="yes"/>
      <point x="44" y="352"/>
      <point x="142" y="352" type="qcurve" smooth="yes"/>
      <point x="186" y="352"/>
      <point x="217" y="326" type="qcurve"/>
      <point x="217" y="451" type="line" smooth="yes"/>
      <point x="217" y="550"/>
      <point x="67" y="550"/>
      <point x="67" y="451" type="qcurve" smooth="yes"/>
      <point x="67" y="425" type="line"/>
      <point x="44" y="425" type="line"/>
      <point x="44" y="449" type="line" smooth="yes"/>
      <point x="44" y="566"/>
      <point x="142" y="566" type="qcurve" smooth="yes"/>
      <point x="241" y="566"/>
      <point x="241" y="449" type="qcurve" smooth="yes"/>
      <point x="241" y="114" type="line" smooth="yes"/>
      <point x="241" y="103"/>
    </contour>
    <contour>
      <point x="216" y="266" type="line"/>
      <point x="209" y="336"/>
      <point x="142" y="336" type="qcurve" smooth="yes"/>
      <point x="67" y="336"/>
      <point x="67" y="239" type="qcurve" smooth="yes"/>
      <point x="67" y="112" type="line" smooth="yes"/>
      <point x="67" y="12"/>
      <point x="142" y="12" type="qcurve" smooth="yes"/>
      <point x="207" y="12"/>
      <point x="216" y="85" type="qcurve"/>
    </contour>
  </outline>
</glyph>
<glyph name="aring" format="1">
  <advance width="285"/>
  <unicode hex="00E5"/>
  <outline>
    <contour>
      <point x="139" y="617" type="qcurve" smooth="yes"/>
      <point x="105" y="617"/>
      <point x="84" y="640" type="qcurve"/>
      <point x="61" y="662"/>
      <point x="61" y="696" type="qcurve" smooth="yes"/>
      <point x="61" y="729"/>
      <point x="107" y="775"/>
      <point x="173" y="775"/>
      <point x="219" y="729"/>
      <point x="219" y="663"/>
      <point x="196" y="640" type="qcurve"/>
      <point x="171" y="617"/>
    </contour>
    <contour>
      <point x="239" y="81" type="qcurve"/>
      <point x="239" y="1" type="line"/>
      <point x="216" y="1" type="line"/>
      <point x="216" y="21" type="line"/>
      <point x="184" y="-3"/>
      <point x="142" y="-3" type="qcurve" smooth="yes"/>
      <point x="44" y="-3"/>
      <point x="44" y="114" type="qcurve" smooth="yes"/>
      <point x="44" y="236" type="line" smooth="yes"/>
      <point x="44" y="352"/>
      <point x="142" y="352" type="qcurve" smooth="yes"/>
      <point x="186" y="352"/>
      <point x="217" y="326" type="qcurve"/>
      <point x="217" y="451" type="line" smooth="yes"/>
      <point x="217" y="550"/>
      <point x="67" y="550"/>
      <point x="67" y="451" type="qcurve" smooth="yes"/>
      <point x="67" y="425" type="line"/>
      <point x="44" y="425" type="line"/>
      <point x="44" y="449" type="line" smooth="yes"/>
      <point x="44" y="566"/>
      <point x="142" y="566" type="qcurve" smooth="yes"/>
      <point x="241" y="566"/>
      <point x="241" y="449" type="qcurve" smooth="yes"/>
      <point x="241" y="114" type="line" smooth="yes"/>
      <point x="241" y="103"/>
    </contour>
    <contour>
      <point x="140" y="755" type="qcurve" smooth="yes"/>
      <point x="117" y="755"/>
      <point x="98" y="738" type="qcurve"/>
      <point x="82" y="720"/>
      <point x="82" y="672"/>
      <point x="98" y="654" type="qcurve"/>
      <point x="117" y="637"/>
      <point x="140" y="637" type="qcurve" smooth="yes"/>
      <point x="164" y="637"/>
      <point x="181" y="654" type="qcurve" smooth="yes"/>
      <point x="197" y="670"/>
      <point x="197" y="722"/>
      <point x="181" y="738" type="qcurve" smooth="yes"/>
      <point x="164" y="755"/>
    </contour>
    <contour>
      <point x="216" y="266" type="line"/>
      <point x="209" y="336"/>
      <point x="142" y="336" type="qcurve" smooth="yes"/>
      <point x="67" y="336"/>
      <point x="67" y="239" type="qcurve" smooth="yes"/>
      <point x="67" y="112" type="line" smooth="yes"/>
      <point x="67" y="12"/>
      <point x="142" y="12" type="qcurve" smooth="yes"/>
      <point x="207" y="12"/>
      <point x="216" y="85" type="qcurve"/>
    </contour>
  </outline>
</glyph>
<glyph name="ae" format="1">
  <advance width="462"/>
  <unicode hex="00E6"/>
  <outline>
    <contour>
      <point x="317" y="-3" type="qcurve" smooth="yes"/>
      <point x="273" y="-3"/>
      <point x="239" y="28" type="qcurve"/>
      <point x="239" y="1" type="line"/>
      <point x="216" y="1" type="line"/>
      <point x="216" y="21" type="line"/>
      <point x="184" y="-3"/>
      <point x="142" y="-3" type="qcurve" smooth="yes"/>
      <point x="44" y="-3"/>
      <point x="44" y="114" type="qcurve" smooth="yes"/>
      <point x="44" y="236" type="line" smooth="yes"/>
      <point x="44" y="352"/>
      <point x="142" y="352" type="qcurve" smooth="yes"/>
      <point x="186" y="352"/>
      <point x="217" y="326" type="qcurve"/>
      <point x="217" y="451" type="line" smooth="yes"/>
      <point x="217" y="550"/>
      <point x="67" y="550"/>
      <point x="67" y="451" type="qcurve" smooth="yes"/>
      <point x="67" y="425" type="line"/>
      <point x="44" y="425" type="line"/>
      <point x="44" y="449" type="line" smooth="yes"/>
      <point x="44" y="566"/>
      <point x="142" y="566" type="qcurve" smooth="yes"/>
      <point x="203" y="566"/>
      <point x="230" y="515" type="qcurve"/>
      <point x="257" y="566"/>
      <point x="317" y="566" type="qcurve" smooth="yes"/>
      <point x="416" y="566"/>
      <point x="416" y="449" type="qcurve" smooth="yes"/>
      <point x="416" y="306" type="line"/>
      <point x="242" y="306" type="line"/>
      <point x="242" y="112" type="line" smooth="yes"/>
      <point x="242" y="12"/>
      <point x="392" y="12"/>
      <point x="392" y="112" type="qcurve" smooth="yes"/>
      <point x="392" y="126" type="line"/>
      <point x="416" y="126" type="line"/>
      <point x="416" y="114" type="line" smooth="yes"/>
      <point x="416" y="-3"/>
    </contour>
    <contour>
      <point x="392" y="451" type="line" smooth="yes"/>
      <point x="392" y="550"/>
      <point x="242" y="550"/>
      <point x="242" y="451" type="qcurve" smooth="yes"/>
      <point x="242" y="327" type="line"/>
      <point x="392" y="327" type="line"/>
    </contour>
    <contour>
      <point x="216" y="266" type="line"/>
      <point x="209" y="336"/>
      <point x="142" y="336" type="qcurve" smooth="yes"/>
      <point x="67" y="336"/>
      <point x="67" y="239" type="qcurve" smooth="yes"/>
      <point x="67" y="112" type="line" smooth="yes"/>
      <point x="67" y="12"/>
      <point x="142" y="12" type="qcurve" smooth="yes"/>
      <point x="207" y="12"/>
      <point x="216" y="85" type="qcurve"/>
    </contour>
  </outline>
</glyph>
<glyph name="ccedilla" format="1">
  <advance width="275"/>
  <unicode hex="00E7"/>
  <outline>
    <contour>
      <point x="144" y="-179" type="line"/>
      <point x="144" y="-180" type="line"/>
      <point x="180" y="-180"/>
      <point x="180" y="-144" type="qcurve" smooth="yes"/>
      <point x="180" y="-106" type="line" smooth="yes"/>
      <point x="180" y="-78"/>
      <point x="153" y="-76" type="qcurve" smooth="yes"/>
      <point x="147" y="-75"/>
      <point x="140" y="-76" type="qcurve"/>
      <point x="139" y="-76" type="line"/>
      <point x="139" y="-3" type="line"/>
      <point x="44" y="3"/>
      <point x="44" y="114" type="qcurve" smooth="yes"/>
      <point x="44" y="449" type="line" smooth="yes"/>
      <point x="44" y="566"/>
      <point x="142" y="566" type="qcurve" smooth="yes"/>
      <point x="241" y="566"/>
      <point x="241" y="449" type="qcurve" smooth="yes"/>
      <point x="241" y="397" type="line"/>
      <point x="217" y="397" type="line"/>
      <point x="217" y="451" type="line" smooth="yes"/>
      <point x="217" y="550"/>
      <point x="67" y="550"/>
      <point x="67" y="451" type="qcurve" smooth="yes"/>
      <point x="67" y="112" type="line" smooth="yes"/>
      <point x="67" y="12"/>
      <point x="217" y="12"/>
      <point x="217" y="112" type="qcurve" smooth="yes"/>
      <point x="217" y="171" type="line"/>
      <point x="241" y="171" type="line"/>
      <point x="241" y="114" type="line" smooth="yes"/>
      <point x="241" y="7"/>
      <point x="151" y="-4" type="qcurve"/>
      <point x="151" y="-66" type="line"/>
      <point x="166" y="-66" type="line" smooth="yes"/>
      <point x="196" y="-66"/>
      <point x="196" y="-101" type="qcurve" smooth="yes"/>
      <point x="196" y="-144" type="line" smooth="yes"/>
      <point x="196" y="-190"/>
      <point x="149" y="-190" type="qcurve" smooth="yes"/>
      <point x="110" y="-190" type="line"/>
      <point x="110" y="-179" type="line"/>
    </contour>
  </outline>
</glyph>
<glyph name="egrave" format="1">
  <advance width="285"/>
  <unicode hex="00E8"/>
  <outline>
    <contour>
      <point x="158" y="652" type="line"/>
      <point x="101" y="765" type="line"/>
      <point x="127" y="778" type="line"/>
      <point x="184" y="664" type="line"/>
    </contour>
    <contour>
      <point x="142" y="-3" type="qcurve" smooth="yes"/>
      <point x="44" y="-3"/>
      <point x="44" y="114" type="qcurve" smooth="yes"/>
      <point x="44" y="449" type="line" smooth="yes"/>
      <point x="44" y="566"/>
      <point x="142" y="566" type="qcurve" smooth="yes"/>
      <point x="241" y="566"/>
      <point x="241" y="449" type="qcurve" smooth="yes"/>
      <point x="241" y="306" type="line"/>
      <point x="67" y="306" type="line"/>
      <point x="67" y="112" type="line" smooth="yes"/>
      <point x="67" y="12"/>
      <point x="217" y="12"/>
      <point x="217" y="112" type="qcurve" smooth="yes"/>
      <point x="217" y="126" type="line"/>
      <point x="241" y="126" type="line"/>
      <point x="241" y="114" type="line" smooth="yes"/>
      <point x="241" y="-3"/>
    </contour>
    <contour>
      <point x="217" y="451" type="line" smooth="yes"/>
      <point x="217" y="550"/>
      <point x="67" y="550"/>
      <point x="67" y="451" type="qcurve" smooth="yes"/>
      <point x="67" y="327" type="line"/>
      <point x="217" y="327" type="line"/>
    </contour>
  </outline>
</glyph>
<glyph name="ecircumflex" format="1">
  <advance width="285"/>
  <unicode hex="00EA"/>
  <outline>
    <contour>
      <point x="179" y="647" type="line"/>
      <point x="142" y="753" type="line"/>
      <point x="107" y="646" type="line"/>
      <point x="86" y="646" type="line"/>
      <point x="128" y="791" type="line"/>
      <point x="157" y="791" type="line"/>
      <point x="200" y="646" type="line"/>
    </contour>
    <contour>
      <point x="142" y="-3" type="qcurve" smooth="yes"/>
      <point x="44" y="-3"/>
      <point x="44" y="114" type="qcurve" smooth="yes"/>
      <point x="44" y="449" type="line" smooth="yes"/>
      <point x="44" y="566"/>
      <point x="142" y="566" type="qcurve" smooth="yes"/>
      <point x="241" y="566"/>
      <point x="241" y="449" type="qcurve" smooth="yes"/>
      <point x="241" y="306" type="line"/>
      <point x="67" y="306" type="line"/>
      <point x="67" y="112" type="line" smooth="yes"/>
      <point x="67" y="12"/>
      <point x="217" y="12"/>
      <point x="217" y="112" type="qcurve" smooth="yes"/>
      <point x="217" y="126" type="line"/>
      <point x="241" y="126" type="line"/>
      <point x="241" y="114" type="line" smooth="yes"/>
      <point x="241" y="-3"/>
    </contour>
    <contour>
      <point x="217" y="451" type="line" smooth="yes"/>
      <point x="217" y="550"/>
      <point x="67" y="550"/>
      <point x="67" y="451" type="qcurve" smooth="yes"/>
      <point x="67" y="327" type="line"/>
      <point x="217" y="327" type="line"/>
    </contour>
  </outline>
</glyph>
<glyph name="igrave" format="1">
  <advance width="116"/>
  <unicode hex="00EC"/>
  <outline>
    <contour>
      <point x="74" y="652" type="line"/>
      <point x="17" y="765" type="line"/>
      <point x="42" y="778" type="line"/>
      <point x="99" y="664" type="line"/>
    </contour>
    <contour>
      <point x="46" y="5" type="line"/>
      <point x="46" y="569" type="line"/>
      <point x="70" y="569" type="line"/>
      <point x="70" y="5" type="line"/>
    </contour>
  </outline>
</glyph>
<glyph name="icircumflex" format="1">
  <advance width="116"/>
  <unicode hex="00EE"/>
  <outline>
    <contour>
      <point x="94" y="647" type="line"/>
      <point x="57" y="753" type="line"/>
      <point x="22" y="646" type="line"/>
      <point x="1" y="646" type="line"/>
      <point x="43" y="791" type="line"/>
      <point x="73" y="791" type="line"/>
      <point x="115" y="646" type="line"/>
    </contour>
    <contour>
      <point x="46" y="5" type="line"/>
      <point x="46" y="569" type="line"/>
      <point x="70" y="569" type="line"/>
      <point x="70" y="5" type="line"/>
    </contour>
  </outline>
</glyph>
<glyph name="idieresis" format="1">
  <advance width="116"/>
  <unicode hex="00EF"/>
  <outline>
    <contour>
      <point x="96" y="681" type="line"/>
      <point x="96" y="709" type="line"/>
      <point x="119" y="709" type="line"/>
      <point x="119" y="681" type="line"/>
    </contour>
    <contour>
      <point x="-3" y="681" type="line"/>
      <point x="-3" y="709" type="line"/>
      <point x="20" y="709" type="line"/>
      <point x="20" y="681" type="line"/>
    </contour>
    <contour>
      <point x="46" y="5" type="line"/>
      <point x="46" y="569" type="line"/>
      <point x="70" y="569" type="line"/>
      <point x="70" y="5" type="line"/>
    </contour>
  </outline>
</glyph>
<glyph name="eth" format="1">
  <advance width="359"/>
  <unicode hex="00F0"/>
  <outline>
    <contour>
      <point x="331" y="592" type="line"/>
      <point x="291" y="549"/>
      <point x="261" y="552" type="qcurve" smooth="yes"/>
      <point x="258" y="552"/>
      <point x="241" y="558" type="qcurve"/>
      <point x="241" y="114" type="line" smooth="yes"/>
      <point x="241" y="-3"/>
      <point x="144" y="-3" type="qcurve" smooth="yes"/>
      <point x="44" y="-3"/>
      <point x="44" y="114" type="qcurve" smooth="yes"/>
      <point x="44" y="355" type="line" smooth="yes"/>
      <point x="44" y="471"/>
      <point x="139" y="471" type="qcurve" smooth="yes"/>
      <point x="178" y="471"/>
      <point x="219" y="435" type="qcurve"/>
      <point x="219" y="574" type="line"/>
      <point x="215" y="578" type="line"/>
      <point x="209" y="583" type="line" smooth="yes"/>
      <point x="181" y="606"/>
      <point x="169" y="606" type="qcurve"/>
      <point x="147" y="610"/>
      <point x="98" y="563" type="qcurve"/>
      <point x="101" y="589" type="line"/>
      <point x="141" y="632"/>
      <point x="170" y="629" type="qcurve" smooth="yes"/>
      <point x="184" y="628"/>
      <point x="219" y="601" type="qcurve"/>
      <point x="219" y="692" type="line" smooth="yes"/>
      <point x="219" y="790"/>
      <point x="69" y="790"/>
      <point x="69" y="692" type="qcurve" smooth="yes"/>
      <point x="69" y="632" type="line"/>
      <point x="44" y="632" type="line"/>
      <point x="44" y="690" type="line" smooth="yes"/>
      <point x="44" y="806"/>
      <point x="144" y="806" type="qcurve" smooth="yes"/>
      <point x="241" y="806"/>
      <point x="241" y="690" type="qcurve" smooth="yes"/>
      <point x="241" y="583" type="line"/>
      <point x="255" y="575"/>
      <point x="263" y="574" type="qcurve" smooth="yes"/>
      <point x="288" y="571"/>
      <point x="334" y="617" type="qcurve"/>
    </contour>
    <contour>
      <point x="219" y="356" type="line" smooth="yes"/>
      <point x="219" y="455"/>
      <point x="139" y="455" type="qcurve" smooth="yes"/>
      <point x="69" y="455"/>
      <point x="69" y="356" type="qcurve" smooth="yes"/>
      <point x="69" y="112" type="line" smooth="yes"/>
      <point x="69" y="12"/>
      <point x="219" y="12"/>
      <point x="219" y="112" type="qcurve" smooth="yes"/>
    </contour>
  </outline>
</glyph>
<glyph name="ntilde" format="1">
  <advance width="285"/>
  <unicode hex="00F1"/>
  <outline>
    <contour>
      <point x="257" y="716" type="line"/>
      <point x="220" y="675"/>
      <point x="187" y="676" type="qcurve"/>
      <point x="176" y="678"/>
      <point x="142" y="701" type="qcurve"/>
      <point x="135" y="706" type="line"/>
      <point x="108" y="730"/>
      <point x="96" y="731" type="qcurve" smooth="yes"/>
      <point x="70" y="732"/>
      <point x="24" y="686" type="qcurve"/>
      <point x="27" y="713" type="line"/>
      <point x="68" y="755"/>
      <point x="96" y="752" type="qcurve" smooth="yes"/>
      <point x="111" y="750"/>
      <point x="142" y="726" type="qcurve" smooth="yes"/>
      <point x="175" y="700"/>
      <point x="189" y="699" type="qcurve" smooth="yes"/>
      <point x="214" y="696"/>
      <point x="260" y="742" type="qcurve"/>
    </contour>
    <contour>
      <point x="217" y="-3" type="line"/>
      <point x="217" y="454" type="line" smooth="yes"/>
      <point x="217" y="554"/>
      <point x="67" y="554"/>
      <point x="67" y="454" type="qcurve" smooth="yes"/>
      <point x="67" y="-3" type="line"/>
      <point x="41" y="-3" type="line"/>
      <point x="41" y="569" type="line"/>
      <point x="65" y="569" type="line"/>
      <point x="65" y="540" type="line"/>
      <point x="97" y="569"/>
      <point x="142" y="569" type="qcurve" smooth="yes"/>
      <point x="241" y="569"/>
      <point x="241" y="452" type="qcurve" smooth="yes"/>
      <point x="241" y="-3" type="line"/>
    </contour>
  </outline>
</glyph>
<glyph name="odieresis" format="1">
  <advance width="285"/>
  <unicode hex="00F6"/>
  <outline>
    <contour>
      <point x="180" y="681" type="line"/>
      <point x="180" y="709" type="line"/>
      <point x="202" y="709" type="line"/>
      <point x="202" y="681" type="line"/>
    </contour>
    <contour>
      <point x="82" y="681" type="line"/>
      <point x="82" y="709" type="line"/>
      <point x="104" y="709" type="line"/>
      <point x="104" y="681" type="line"/>
    </contour>
    <contour>
      <point x="142" y="-3" type="qcurve" smooth="yes"/>
      <point x="44" y="-3"/>
      <point x="44" y="114" type="qcurve" smooth="yes"/>
      <point x="44" y="449" type="line" smooth="yes"/>
      <point x="44" y="566"/>
      <point x="142" y="566" type="qcurve" smooth="yes"/>
      <point x="241" y="566"/>
      <point x="241" y="449" type="qcurve" smooth="yes"/>
      <point x="241" y="114" type="line" smooth="yes"/>
      <point x="241" y="-3"/>
    </contour>
    <contour>
      <point x="217" y="451" type="line" smooth="yes"/>
      <point x="217" y="550"/>
      <point x="67" y="550"/>
      <point x="67" y="451" type="qcurve" smooth="yes"/>
      <point x="67" y="112" type="line" smooth="yes"/>
      <point x="67" y="12"/>
      <point x="217" y="12"/>
      <point x="217" y="112" type="qcurve" smooth="yes"/>
    </contour>
  </outline>
</glyph>
<glyph name="divide" format="1">
  <advance width="377"/>
  <unicode hex="00F7"/>
  <outline>
    <contour>
      <point x="177" y="429" type="line"/>
      <point x="177" y="456" type="line"/>
      <point x="200" y="456" type="line"/>
      <point x="200" y="429" type="line"/>
    </contour>
    <contour>
      <point x="30" y="329" type="line"/>
      <point x="30" y="350" type="line"/>
      <point x="349" y="350" type="line"/>
      <point x="349" y="329" type="line"/>
    </contour>
    <contour>
      <point x="177" y="210" type="line"/>
      <point x="177" y="237" type="line"/>
      <point x="200" y="237" type="line"/>
      <point x="200" y="210" type="line"/>
    </contour>
  </outline>
</glyph>
<glyph name="oslash" format="1">
  <advance width="285"/>
  <unicode hex="00F8"/>
  <outline>
    <contour>
      <point x="142" y="-3" type="qcurve" smooth="yes"/>
      <point x="110" y="-3"/>
      <point x="81" y="14" type="qcurve"/>
      <point x="75" y="-10" type="line"/>
      <point x="51" y="-10" type="line"/>
      <point x="62" y="33" type="line"/>
      <point x="44" y="63"/>
      <point x="44" y="114" type="qcurve" smooth="yes"/>
      <point x="44" y="449" type="line" smooth="yes"/>
      <point x="44" y="566"/>
      <point x="142" y="566" type="qcurve" smooth="yes"/>
      <point x="172" y="566"/>
      <point x="200" y="552" type="qcurve"/>
      <point x="211" y="590" type="line"/>
      <point x="234" y="590" type="line"/>
      <point x="220" y="534" type="line"/>
      <point x="241" y="502"/>
      <point x="241" y="449" type="qcurve" smooth="yes"/>
      <point x="241" y="114" type="line" smooth="yes"/>
      <point x="241" y="-3"/>
    </contour>
    <contour>
      <point x="142" y="550" type="qcurve" smooth="yes"/>
      <point x="67" y="550"/>
      <point x="67" y="451" type="qcurve" smooth="yes"/>
      <point x="67" y="101" type="line" smooth="yes"/>
      <point x="67" y="96"/>
      <point x="75" y="75" type="qcurve"/>
      <point x="196" y="532" type="line"/>
      <point x="175" y="550"/>
    </contour>
    <contour>
      <point x="217" y="466" type="line" smooth="yes"/>
      <point x="217" y="478"/>
      <point x="213" y="506" type="qcurve"/>
      <point x="85" y="34" type="line"/>
      <point x="107" y="12"/>
      <point x="142" y="12" type="qcurve" smooth="yes"/>
      <point x="217" y="12"/>
      <point x="217" y="112" type="qcurve" smooth="yes"/>
    </contour>
  </outline>
</glyph>
<glyph name="uacute" format="1">
  <advance width="285"/>
  <unicode hex="00FA"/>
  <outline>
    <contour>
      <point x="127" y="652" type="line"/>
      <point x="101" y="664" type="line"/>
      <point x="158" y="778" type="line"/>
      <point x="184" y="765" type="line"/>
    </contour>
    <contour>
      <point x="142" y="-3" type="qcurve" smooth="yes"/>
      <point x="44" y="-3"/>
      <point x="44" y="114" type="qcurve" smooth="yes"/>
      <point x="44" y="569" type="line"/>
      <point x="67" y="569" type="line"/>
      <point x="67" y="112" type="line" smooth="yes"/>
      <point x="67" y="12"/>
      <point x="217" y="12"/>
      <point x="217" y="112" type="qcurve" smooth="yes"/>
      <point x="217" y="569" type="line"/>
      <point x="241" y="569" type="line"/>
      <point x="241" y="114" type="line" smooth="yes"/>
      <point x="241" y="-3"/>
    </contour>
  </outline>
</glyph>
<glyph name="ucircumflex" format="1">
  <advance width="285"/>
  <unicode hex="00FB"/>
  <outline>
    <contour>
      <point x="179" y="647" type="line"/>
      <point x="142" y="753" type="line"/>
      <point x="107" y="646" type="line"/>
      <point x="86" y="646" type="line"/>
      <point x="128" y="791" type="line"/>
      <point x="157" y="791" type="line"/>
      <point x="200" y="646" type="line"/>
    </contour>
    <contour>
      <point x="142" y="-3" type="qcurve" smooth="yes"/>
      <point x="44" y="-3"/>
      <point x="44" y="114" type="qcurve" smooth="yes"/>
      <point x="44" y="569" type="line"/>
      <point x="67" y="569" type="line"/>
      <point x="67" y="112" type="line" smooth="yes"/>
      <point x="67" y="12"/>
      <point x="217" y="12"/>
      <point x="217" y="112" type="qcurve" smooth="yes"/>
      <point x="217" y="569" type="line"/>
      <point x="241" y="569" type="line"/>
      <point x="241" y="114" type="line" smooth="yes"/>
      <point x="241" y="-3"/>
    </contour>
  </outline>
</glyph>
<glyph name="udieresis" format="1">
  <advance width="285"/>
  <unicode hex="00FC"/>
  <outline>
    <contour>
      <point x="180" y="681" type="line"/>
      <point x="180" y="709" type="line"/>
      <point x="202" y="709" type="line"/>
      <point x="202" y="681" type="line"/>
    </contour>
    <contour>
      <point x="82" y="681" type="line"/>
      <point x="82" y="709" type="line"/>
      <point x="104" y="709" type="line"/>
      <point x="104" y="681" type="line"/>
    </contour>
    <contour>
      <point x="142" y="-3" type="qcurve" smooth="yes"/>
      <point x="44" y="-3"/>
      <point x="44" y="114" type="qcurve" smooth="yes"/>
      <point x="44" y="569" type="line"/>
      <point x="67" y="569" type="line"/>
      <point x="67" y="112" type="line" smooth="yes"/>
      <point x="67" y="12"/>
      <point x="217" y="12"/>
      <point x="217" y="112" type="qcurve" smooth="yes"/>
      <point x="217" y="569" type="line"/>
      <point x="241" y="569" type="line"/>
      <point x="241" y="114" type="line" smooth="yes"/>
      <point x="241" y="-3"/>
    </contour>
  </outline>
</glyph>
<glyph name="thorn" format="1">
  <advance width="275"/>
  <unicode hex="00FE"/>
  <outline>
    <contour>
      <point x="136" y="-4" type="qcurve" smooth="yes"/>
      <point x="92" y="-4"/>
      <point x="61" y="22" type="qcurve"/>
      <point x="61" y="-226" type="line"/>
      <point x="39" y="-226" type="line"/>
      <point x="39" y="742" type="line"/>
      <point x="61" y="742" type="line"/>
      <point x="61" y="539" type="line"/>
      <point x="92" y="565"/>
      <point x="136" y="565" type="qcurve" smooth="yes"/>
      <point x="236" y="565"/>
      <point x="236" y="449" type="qcurve" smooth="yes"/>
      <point x="236" y="114" type="line" smooth="yes"/>
      <point x="236" y="-4"/>
    </contour>
    <contour>
      <point x="212" y="450" type="line" smooth="yes"/>
      <point x="212" y="550"/>
      <point x="136" y="550" type="qcurve" smooth="yes"/>
      <point x="62" y="550"/>
      <point x="62" y="450" type="qcurve" smooth="yes"/>
      <point x="62" y="111" type="line" smooth="yes"/>
      <point x="62" y="12"/>
      <point x="136" y="12" type="qcurve" smooth="yes"/>
      <point x="212" y="12"/>
      <point x="212" y="111" type="qcurve" smooth="yes"/>
    </contour>
  </outline>
</glyph>
<glyph name="ccaron" format="1">
  <advance width="226"/>
  <unicode hex="010D"/>
  <outline>
    <contour>
      <point x="115" y="161" type="line"/>
      <point x="115" y="179" type="line"/>
      <point x="131" y="179" type="line"/>
      <point x="131" y="617" type="line"/>
      <point x="110" y="609" type="line"/>
      <point x="110" y="627" type="line"/>
      <point x="150" y="642" type="line"/>
      <point x="150" y="179" type="line"/>
      <point x="166" y="179" type="line"/>
      <point x="166" y="161" type="line"/>
    </contour>
  </outline>
</glyph>
<glyph name="dcroat" format="1">
  <advance width="229"/>
  <unicode hex="0111"/>
  <outline>
    <contour>
      <point x="81" y="164" type="line"/>
      <point x="81" y="376" type="line" smooth="yes"/>
      <point x="81" y="432"/>
      <point x="135" y="437" type="qcurve" smooth="yes"/>
      <point x="147" y="438"/>
      <point x="168" y="443" type="qcurve"/>
      <point x="185" y="451"/>
      <point x="185" y="487" type="qcurve" smooth="yes"/>
      <point x="185" y="577" type="line" smooth="yes"/>
      <point x="185" y="599"/>
      <point x="178" y="617" type="qcurve"/>
      <point x="164" y="634"/>
      <point x="142" y="634" type="qcurve" smooth="yes"/>
      <point x="118" y="634"/>
      <point x="107" y="617" type="qcurve"/>
      <point x="100" y="604"/>
      <point x="100" y="577" type="qcurve" smooth="yes"/>
      <point x="100" y="542" type="line"/>
      <point x="81" y="542" type="line"/>
      <point x="81" y="576" type="line" smooth="yes"/>
      <point x="81" y="649"/>
      <point x="142" y="649" type="qcurve" smooth="yes"/>
      <point x="204" y="649"/>
      <point x="204" y="576" type="qcurve" smooth="yes"/>
      <point x="204" y="485" type="line" smooth="yes"/>
      <point x="204" y="449"/>
      <point x="193" y="438" type="qcurve" smooth="yes"/>
      <point x="183" y="427"/>
      <point x="150" y="422" type="qcurve" smooth="yes"/>
      <point x="144" y="421"/>
      <point x="133" y="419"/>
      <point x="126" y="418"/>
      <point x="121" y="417"/>
      <point x="120" y="417" type="qcurve" smooth="yes"/>
      <point x="102" y="411"/>
      <point x="101" y="396" type="qcurve" smooth="yes"/>
      <point x="100" y="391"/>
      <point x="100" y="376" type="qcurve" smooth="yes"/>
      <point x="100" y="177" type="line"/>
      <point x="204" y="177" type="line"/>
      <point x="204" y="164" type="line"/>
    </contour>
  </outline>
</glyph>
<glyph name="Gbreve" format="1">
  <advance width="229"/>
  <unicode hex="011E"/>
  <outline>
    <contour>
      <point x="142" y="157" type="qcurve" smooth="yes"/>
      <point x="81" y="157"/>
      <point x="81" y="230" type="qcurve" smooth="yes"/>
      <point x="81" y="265" type="line"/>
      <point x="100" y="265" type="line"/>
      <point x="100" y="227" type="line" smooth="yes"/>
      <point x="100" y="171"/>
      <point x="142" y="171" type="qcurve" smooth="yes"/>
      <point x="185" y="171"/>
      <point x="185" y="227" type="qcurve" smooth="yes"/>
      <point x="185" y="377" type="line" smooth="yes"/>
      <point x="185" y="408"/>
      <point x="176" y="420" type="qcurve" smooth="yes"/>
      <point x="168" y="431"/>
      <point x="136" y="431" type="qcurve" smooth="yes"/>
      <point x="117" y="431" type="line"/>
      <point x="117" y="444" type="line"/>
      <point x="136" y="444" type="line" smooth="yes"/>
      <point x="166" y="444"/>
      <point x="178" y="457" type="qcurve"/>
      <point x="185" y="472"/>
      <point x="185" y="499" type="qcurve" smooth="yes"/>
      <point x="185" y="576" type="line" smooth="yes"/>
      <point x="185" y="594"/>
      <point x="179" y="616" type="qcurve"/>
      <point x="166" y="632"/>
      <point x="142" y="632" type="qcurve" smooth="yes"/>
      <point x="119" y="632"/>
      <point x="107" y="617" type="qcurve"/>
      <point x="100" y="604"/>
      <point x="100" y="576" type="qcurve" smooth="yes"/>
      <point x="100" y="541" type="line"/>
      <point x="81" y="541" type="line"/>
      <point x="81" y="575" type="line" smooth="yes"/>
      <point x="81" y="647"/>
      <point x="142" y="647" type="qcurve" smooth="yes"/>
      <point x="204" y="647"/>
      <point x="204" y="575" type="qcurve" smooth="yes"/>
      <point x="204" y="496" type="line" smooth="yes"/>
      <point x="204" y="454"/>
      <point x="169" y="439" type="qcurve"/>
      <point x="204" y="422"/>
      <point x="204" y="379" type="qcurve" smooth="yes"/>
      <point x="204" y="230" type="line" smooth="yes"/>
      <point x="204" y="157"/>
    </contour>
  </outline>
</glyph>
<glyph name="gbreve" format="1">
  <advance width="226"/>
  <unicode hex="011F"/>
  <outline>
    <contour>
      <point x="189" y="431" type="line"/>
      <point x="189" y="161" type="line"/>
      <point x="170" y="161" type="line"/>
      <point x="170" y="431" type="line"/>
      <point x="60" y="431" type="line"/>
      <point x="168" y="641" type="line"/>
      <point x="189" y="641" type="line"/>
      <point x="189" y="444" type="line"/>
      <point x="220" y="444" type="line"/>
      <point x="220" y="431" type="line"/>
    </contour>
    <contour>
      <point x="170" y="605" type="line"/>
      <point x="89" y="444" type="line"/>
      <point x="170" y="444" type="line"/>
    </contour>
  </outline>
</glyph>
<glyph name="dotlessi" format="1">
  <advance width="116"/>
  <unicode hex="0131"/>
  <outline>
    <contour>
      <point x="46" y="5" type="line"/>
      <point x="46" y="569" type="line"/>
      <point x="70" y="569" type="line"/>
      <point x="70" y="5" type="line"/>
    </contour>
  </outline>
</glyph>
<glyph name="Lslash" format="1">
  <advance width="246"/>
  <unicode hex="0141"/>
  <outline>
    <contour>
      <point x="46" y="5" type="line"/>
      <point x="46" y="371" type="line"/>
      <point x="-39" y="328" type="line"/>
      <point x="-47" y="347" type="line"/>
      <point x="46" y="394" type="line"/>
      <point x="46" y="799" type="line"/>
      <point x="70" y="799" type="line"/>
      <point x="70" y="407" type="line"/>
      <point x="154" y="449" type="line"/>
      <point x="162" y="430" type="line"/>
      <point x="70" y="383" type="line"/>
      <point x="70" y="21" type="line"/>
      <point x="241" y="21" type="line"/>
      <point x="241" y="5" type="line"/>
    </contour>
  </outline>
</glyph>
<glyph name="lslash" format="1">
  <advance width="116"/>
  <unicode hex="0142"/>
  <outline>
    <contour>
      <point x="70" y="380" type="line"/>
      <point x="70" y="5" type="line"/>
      <point x="46" y="5" type="line"/>
      <point x="46" y="367" type="line"/>
      <point x="-40" y="324" type="line"/>
      <point x="-48" y="343" type="line"/>
      <point x="46" y="391" type="line"/>
      <point x="46" y="769" type="line"/>
      <point x="70" y="792" type="line"/>
      <point x="70" y="403" type="line"/>
      <point x="153" y="445" type="line"/>
      <point x="161" y="426" type="line"/>
    </contour>
  </outline>
</glyph>
<glyph name="OE" format="1">
  <advance width="449"/>
  <unicode hex="0152"/>
  <outline>
    <contour>
      <point x="219" y="5" type="line"/>
      <point x="219" y="26" type="line"/>
      <point x="184" y="-3"/>
      <point x="142" y="-3" type="qcurve" smooth="yes"/>
      <point x="44" y="-3"/>
      <point x="44" y="114" type="qcurve" smooth="yes"/>
      <point x="44" y="690" type="line" smooth="yes"/>
      <point x="44" y="806"/>
      <point x="142" y="806" type="qcurve" smooth="yes"/>
      <point x="187" y="806"/>
      <point x="219" y="778" type="qcurve"/>
      <point x="219" y="799" type="line"/>
      <point x="412" y="799" type="line"/>
      <point x="412" y="782" type="line"/>
      <point x="242" y="782" type="line"/>
      <point x="242" y="471" type="line"/>
      <point x="412" y="471" type="line"/>
      <point x="412" y="456" type="line"/>
      <point x="242" y="456" type="line"/>
      <point x="242" y="21" type="line"/>
      <point x="412" y="21" type="line"/>
      <point x="412" y="5" type="line"/>
    </contour>
    <contour>
      <point x="217" y="692" type="line" smooth="yes"/>
      <point x="217" y="790"/>
      <point x="67" y="790"/>
      <point x="67" y="692" type="qcurve" smooth="yes"/>
      <point x="67" y="112" type="line" smooth="yes"/>
      <point x="67" y="12"/>
      <point x="217" y="12"/>
      <point x="217" y="112" type="qcurve" smooth="yes"/>
    </contour>
  </outline>
</glyph>
<glyph name="oe" format="1">
  <advance width="456"/>
  <unicode hex="0153"/>
  <outline>
    <contour>
      <point x="317" y="-3" type="qcurve" smooth="yes"/>
      <point x="257" y="-3"/>
      <point x="230" y="48" type="qcurve"/>
      <point x="203" y="-3"/>
      <point x="142" y="-3" type="qcurve" smooth="yes"/>
      <point x="44" y="-3"/>
      <point x="44" y="114" type="qcurve" smooth="yes"/>
      <point x="44" y="449" type="line" smooth="yes"/>
      <point x="44" y="566"/>
      <point x="142" y="566" type="qcurve" smooth="yes"/>
      <point x="203" y="566"/>
      <point x="230" y="515" type="qcurve"/>
      <point x="257" y="566"/>
      <point x="317" y="566" type="qcurve" smooth="yes"/>
      <point x="416" y="566"/>
      <point x="416" y="449" type="qcurve" smooth="yes"/>
      <point x="416" y="306" type="line"/>
      <point x="242" y="306" type="line"/>
      <point x="242" y="112" type="line" smooth="yes"/>
      <point x="242" y="12"/>
      <point x="392" y="12"/>
      <point x="392" y="112" type="qcurve" smooth="yes"/>
      <point x="392" y="126" type="line"/>
      <point x="416" y="126" type="line"/>
      <point x="416" y="114" type="line" smooth="yes"/>
      <point x="416" y="-3"/>
    </contour>
    <contour>
      <point x="392" y="451" type="line" smooth="yes"/>
      <point x="392" y="550"/>
      <point x="242" y="550"/>
      <point x="242" y="451" type="qcurve" smooth="yes"/>
      <point x="242" y="327" type="line"/>
      <point x="392" y="327" type="line"/>
    </contour>
    <contour>
      <point x="217" y="451" type="line" smooth="yes"/>
      <point x="217" y="550"/>
      <point x="67" y="550"/>
      <point x="67" y="451" type="qcurve" smooth="yes"/>
      <point x="67" y="112" type="line" smooth="yes"/>
      <point x="67" y="12"/>
      <point x="217" y="12"/>
      <point x="217" y="112" type="qcurve" smooth="yes"/>
    </contour>
  </outline>
</glyph>
<glyph name="Scaron" format="1">
  <advance width="285"/>
  <unicode hex="0160"/>
  <outline>
    <contour>
      <point x="157" y="847" type="line"/>
      <point x="128" y="847" type="line"/>
      <point x="86" y="992" type="line"/>
      <point x="107" y="992" type="line"/>
      <point x="142" y="885" type="line"/>
      <point x="179" y="991" type="line"/>
      <point x="200" y="992" type="line"/>
    </contour>
    <contour>
      <point x="144" y="-3" type="qcurve" smooth="yes"/>
      <point x="44" y="-3"/>
      <point x="44" y="114" type="qcurve" smooth="yes"/>
      <point x="44" y="166" type="line"/>
      <point x="69" y="166" type="line"/>
      <point x="69" y="112" type="line" smooth="yes"/>
      <point x="69" y="14"/>
      <point x="219" y="14"/>
      <point x="219" y="112" type="qcurve" smooth="yes"/>
      <point x="219" y="371" type="line" smooth="yes"/>
      <point x="219" y="451"/>
      <point x="144" y="451" type="qcurve" smooth="yes"/>
      <point x="44" y="451"/>
      <point x="44" y="569" type="qcurve" smooth="yes"/>
      <point x="44" y="690" type="line" smooth="yes"/>
      <point x="44" y="806"/>
      <point x="144" y="806" type="qcurve" smooth="yes"/>
      <point x="241" y="806"/>
      <point x="241" y="690" type="qcurve" smooth="yes"/>
      <point x="241" y="632" type="line"/>
      <point x="219" y="632" type="line"/>
      <point x="219" y="692" type="line" smooth="yes"/>
      <point x="219" y="791"/>
      <point x="69" y="791"/>
      <point x="69" y="692" type="qcurve" smooth="yes"/>
      <point x="69" y="566" type="line" smooth="yes"/>
      <point x="69" y="466"/>
      <point x="144" y="466" type="qcurve" smooth="yes"/>
      <point x="231" y="466"/>
      <point x="240" y="377" type="qcurve"/>
      <point x="241" y="377" type="line"/>
      <point x="241" y="114" type="line" smooth="yes"/>
      <point x="241" y="-3"/>
    </contour>
  </outline>
</glyph>
<glyph name="scaron" format="1">
  <advance width="285"/>
  <unicode hex="0161"/>
  <outline>
    <contour>
      <point x="157" y="646" type="line"/>
      <point x="128" y="646" type="line"/>
      <point x="86" y="791" type="line"/>
      <point x="107" y="791" type="line"/>
      <point x="142" y="685" type="line"/>
      <point x="179" y="791" type="line"/>
      <point x="200" y="791" type="line"/>
    </contour>
    <contour>
      <point x="144" y="-3" type="qcurve" smooth="yes"/>
      <point x="44" y="-3"/>
      <point x="44" y="114" type="qcurve" smooth="yes"/>
      <point x="44" y="166" type="line"/>
      <point x="69" y="166" type="line"/>
      <point x="69" y="112" type="line" smooth="yes"/>
      <point x="69" y="14"/>
      <point x="219" y="14"/>
      <point x="219" y="112" type="qcurve" smooth="yes"/>
      <point x="219" y="219" type="line" smooth="yes"/>
      <point x="219" y="293"/>
      <point x="144" y="293" type="qcurve" smooth="yes"/>
      <point x="44" y="293"/>
      <point x="44" y="415" type="qcurve" smooth="yes"/>
      <point x="44" y="449" type="line" smooth="yes"/>
      <point x="44" y="566"/>
      <point x="144" y="566" type="qcurve" smooth="yes"/>
      <point x="241" y="566"/>
      <point x="241" y="449" type="qcurve" smooth="yes"/>
      <point x="241" y="409" type="line"/>
      <point x="219" y="409" type="line"/>
      <point x="219" y="451" type="line" smooth="yes"/>
      <point x="219" y="550"/>
      <point x="69" y="550"/>
      <point x="69" y="451" type="qcurve" smooth="yes"/>
      <point x="69" y="422" type="line" smooth="yes"/>
      <point x="69" y="314"/>
      <point x="144" y="314" type="qcurve" smooth="yes"/>
      <point x="231" y="314"/>
      <point x="240" y="224" type="qcurve"/>
      <point x="241" y="224" type="line"/>
      <point x="241" y="114" type="line" smooth="yes"/>
      <point x="241" y="-3"/>
    </contour>
  </outline>
</glyph>
<glyph name="Ydieresis" format="1">
  <advance width="280"/>
  <unicode hex="0178"/>
  <outline>
    <contour>
      <point x="177" y="894" type="line"/>
      <point x="177" y="921" type="line"/>
      <point x="200" y="921" type="line"/>
      <point x="200" y="894" type="line"/>
    </contour>
    <contour>
      <point x="79" y="894" type="line"/>
      <point x="79" y="921" type="line"/>
      <point x="101" y="921" type="line"/>
      <point x="101" y="894" type="line"/>
    </contour>
    <contour>
      <point x="151" y="413" type="line"/>
      <point x="151" y="5" type="line"/>
      <point x="127" y="5" type="line"/>
      <point x="127" y="415" type="line"/>
      <point x="17" y="799" type="line"/>
      <point x="43" y="799" type="line"/>
      <point x="140" y="441" type="line"/>
      <point x="240" y="799" type="line"/>
      <point x="263" y="799" type="line"/>
    </contour>
  </outline>
</glyph>
<glyph name="Zcaron" format="1">
  <advance width="270"/>
  <unicode hex="017D"/>
  <outline>
    <contour>
      <point x="159" y="857" type="line"/>
      <point x="130" y="857" type="line"/>
      <point x="88" y="1002" type="line"/>
      <point x="109" y="1002" type="line"/>
      <point x="144" y="896" type="line"/>
      <point x="181" y="1002" type="line"/>
      <point x="202" y="1002" type="line"/>
    </contour>
    <contour>
      <point x="58" y="21" type="line"/>
      <point x="239" y="21" type="line"/>
      <point x="239" y="5" type="line"/>
      <point x="28" y="5" type="line"/>
      <point x="212" y="781" type="line"/>
      <point x="31" y="781" type="line"/>
      <point x="31" y="799" type="line"/>
      <point x="241" y="799" type="line"/>
    </contour>
  </outline>
</glyph>
<glyph name="zcaron" format="1">
  <advance width="270"/>
  <unicode hex="017E"/>
  <outline>
    <contour>
      <point x="157" y="646" type="line"/>
      <point x="128" y="646" type="line"/>
      <point x="86" y="791" type="line"/>
      <point x="107" y="791" type="line"/>
      <point x="142" y="685" type="line"/>
      <point x="179" y="791" type="line"/>
      <point x="200" y="791" type="line"/>
    </contour>
    <contour>
      <point x="57" y="21" type="line"/>
      <point x="239" y="21" type="line"/>
      <point x="239" y="5" type="line"/>
      <point x="31" y="5" type="line"/>
      <point x="222" y="552" type="line"/>
      <point x="40" y="552" type="line"/>
      <point x="40" y="570" type="line"/>
      <point x="249" y="570" type="line"/>
    </contour>
  </outline>
</glyph>
